<?xml version="1.0" encoding="UTF-8"?>
<!DOCTYPE svg PUBLIC "-//W3C//DTD SVG 1.1//EN" "http://www.w3.org/Graphics/SVG/1.1/DTD/svg11.dtd">
<!-- Creator: CorelDRAW X8 -->
<svg xmlns="http://www.w3.org/2000/svg" xml:space="preserve" width="42.3332mm" height="42.3332mm" version="1.1" style="shape-rendering:geometricPrecision; text-rendering:geometricPrecision; image-rendering:optimizeQuality; fill-rule:evenodd; clip-rule:evenodd"
viewBox="0 0 4233 4233"
 xmlns:xlink="http://www.w3.org/1999/xlink">
 <defs>
  <style type="text/css">
   <![CDATA[
    .fil1 {fill:#FEFEFE}
    .fil0 {fill:url(#id0)}
   ]]>
  </style>
  <linearGradient id="id0" gradientUnits="userSpaceOnUse" x1="-249.99" y1="-161.68" x2="4233.31" y2="4232.53">
   <stop offset="0" style="stop-opacity:1; stop-color:#FCC81F"/>
   <stop offset="0.439216" style="stop-opacity:1; stop-color:#F20E88"/>
   <stop offset="1" style="stop-opacity:1; stop-color:#5026E6"/>
  </linearGradient>
 </defs>
 <g id="Capa_x0020_1">
  <metadata id="CorelCorpID_0Corel-Layer"/>
  <g id="_3011102972800">
   <polygon class="fil0" points="0,1 4233,1 4233,4233 0,4233 "/>
   <path class="fil1" d="M2329 2285l-863 0c-128,0 -141,-12 -100,98 19,53 43,104 72,151 48,78 107,144 176,199 69,57 146,100 231,132 85,31 176,47 272,47 22,0 44,-1 66,-3l0 0c17,-4 36,-6 55,-6 141,0 255,115 255,255 0,129 -96,236 -221,253l0 0c-51,5 -103,8 -155,8 -181,0 -351,-33 -509,-101 -157,-67 -295,-160 -413,-278 -119,-119 -211,-257 -279,-415 -67,-157 -101,-327 -101,-507 0,-181 34,-351 101,-508 68,-158 160,-296 279,-414 118,-119 256,-212 413,-279 158,-67 328,-101 509,-101 206,0 398,45 576,135 179,91 325,214 444,368 108,132 188,286 237,463 30,105 44,217 44,336 2,190 -247,167 -527,167l-562 0zm-212 -962c-162,0 -305,41 -431,125 -88,57 -163,127 -220,212 -69,101 -68,116 66,118l1014 0 180 0c81,1 110,5 63,-78 -14,-27 -30,-51 -46,-73 -75,-96 -168,-169 -276,-223 -108,-53 -226,-81 -350,-81z"/>
  </g>
 </g>
</svg>
