<?xml version="1.0" encoding="UTF-8"?>
<!DOCTYPE svg PUBLIC "-//W3C//DTD SVG 1.1//EN" "http://www.w3.org/Graphics/SVG/1.1/DTD/svg11.dtd">
<!-- Creator: CorelDRAW X8 -->
<svg xmlns="http://www.w3.org/2000/svg" xml:space="preserve" width="111.506mm" height="42.3332mm" version="1.1" style="shape-rendering:geometricPrecision; text-rendering:geometricPrecision; image-rendering:optimizeQuality; fill-rule:evenodd; clip-rule:evenodd"
viewBox="0 0 11151 4233"
 xmlns:xlink="http://www.w3.org/1999/xlink">
 <defs>
  <style type="text/css">
   <![CDATA[
    .fil0 {fill:none}
    .fil1 {fill:#FEFEFE}
    .fil2 {fill:#E6E7E8}
   ]]>
  </style>
 </defs>
 <g id="Capa_x0020_1">
  <metadata id="CorelCorpID_0Corel-Layer"/>
  <rect class="fil0" x="-1" width="11153" height="4233"/>
  <g id="_3011051627728">
   <path class="fil1" d="M1790 2758l-851 0c-126,0 -139,-12 -98,97 19,52 42,102 71,148 47,77 105,142 173,197 68,56 144,98 228,130 84,30 173,46 267,46 22,0 44,-1 65,-3l0 0c18,-4 36,-6 55,-6 139,0 252,113 252,252 0,127 -96,232 -219,248l0 0c-50,6 -101,9 -153,9 -177,0 -345,-33 -501,-100 -154,-66 -290,-157 -407,-274 -117,-117 -208,-253 -275,-409 -66,-155 -99,-322 -99,-500 0,-177 33,-345 99,-499 67,-156 158,-292 275,-409 117,-117 253,-208 407,-275 156,-66 324,-99 501,-99 204,0 393,45 568,133 176,89 321,210 438,362 106,130 184,282 234,457 28,104 43,213 43,330 1,188 -244,165 -520,165l-553 0zm3829 -178c0,179 -34,347 -100,503 -66,156 -159,292 -276,409 -117,117 -253,209 -409,276 -156,66 -323,99 -502,99 -179,0 -345,-33 -501,-99 -156,-67 -294,-159 -411,-276 -117,-117 -208,-253 -275,-409 -67,-156 -100,-324 -100,-503 0,-179 33,-345 100,-501 67,-156 158,-293 275,-410 117,-117 255,-208 411,-276 156,-66 322,-100 501,-100 150,0 290,25 421,71 132,48 253,113 364,198l0 -963 502 0 0 1977 0 4zm-1284 786c107,0 208,-22 303,-62 95,-41 179,-97 251,-168 71,-72 126,-156 166,-251 41,-95 62,-198 62,-305l0 -4c0,-107 -21,-208 -62,-302 -40,-95 -95,-178 -166,-250 -72,-71 -156,-127 -251,-167 -95,-41 -196,-61 -303,-61 -107,0 -208,20 -304,61 -95,40 -179,96 -251,167 -71,72 -127,156 -169,252 -42,96 -64,197 -64,304 0,107 22,210 64,305 42,95 98,179 169,251 72,71 156,127 251,168 96,40 197,62 304,62zm2725 -2077c178,0 345,33 501,100 156,66 293,159 410,276 117,117 208,252 275,408 66,156 99,324 99,503 0,179 -33,345 -99,501 -67,156 -158,293 -275,410 -117,117 -254,208 -410,276 -156,67 -323,100 -501,100 -179,0 -347,-33 -503,-100 -156,-68 -293,-159 -410,-276 -117,-117 -208,-254 -274,-410 -67,-156 -100,-322 -100,-501 0,-179 33,-347 100,-503 66,-156 157,-291 274,-408 117,-117 254,-210 410,-276 156,-67 324,-100 503,-100zm1 2071c107,0 208,-20 305,-60 94,-41 178,-97 250,-168 71,-72 127,-156 168,-251 40,-97 60,-198 60,-305 0,-107 -20,-209 -60,-305 -41,-95 -97,-179 -168,-251 -72,-71 -156,-127 -250,-168 -97,-42 -198,-62 -305,-62 -106,0 -208,20 -303,62 -95,41 -179,97 -250,168 -72,72 -128,156 -170,251 -42,96 -64,198 -64,305 0,107 22,208 64,305 42,95 98,179 170,251 71,71 155,127 250,168 95,40 197,60 303,60zm2726 0c127,0 244,-27 351,-82 107,-55 196,-129 267,-220l396 308c-117,150 -263,270 -439,361 -175,90 -367,136 -575,136 -176,0 -341,-33 -497,-100 -156,-68 -293,-159 -412,-276 -117,-117 -210,-254 -277,-410 -68,-156 -101,-322 -101,-501 0,-176 33,-341 101,-497 67,-156 160,-293 277,-410 119,-117 256,-208 412,-276 156,-66 321,-100 497,-100 208,0 400,45 575,133 176,90 322,211 439,364l-396 308c-71,-94 -160,-168 -267,-221 -107,-55 -224,-81 -351,-81 -107,0 -210,20 -305,61 -95,40 -180,95 -251,166 -71,72 -127,154 -168,250 -40,95 -60,196 -60,303 0,105 20,206 60,303 41,94 97,178 168,249 72,70 156,127 251,169 95,42 198,63 305,63zm-8207 -1550c-159,0 -300,41 -424,123 -87,57 -161,126 -217,210 -68,99 -66,114 65,115l1000 0 177 0c80,2 109,6 62,-76 -14,-26 -30,-51 -46,-73 -74,-93 -165,-166 -271,-219 -107,-52 -223,-80 -346,-80z"/>
   <path class="fil2" d="M10853 1945c0,-138 -112,-250 -250,-250 -138,0 -250,112 -250,250 0,138 112,250 250,250 138,0 250,-112 250,-250z"/>
   <path class="fil2" d="M10853 3211c0,-138 -112,-249 -250,-249 -138,0 -250,111 -250,249 0,138 112,250 250,250 138,0 250,-112 250,-250z"/>
   <path class="fil2" d="M1952 3616c0,-138 -112,-250 -250,-250 -138,0 -250,112 -250,250 0,138 112,250 250,250 138,0 250,-112 250,-250z"/>
   <path class="fil2" d="M5617 607c0,-138 -112,-249 -250,-249 -138,0 -250,111 -250,249 0,138 112,250 250,250 138,0 250,-112 250,-250z"/>
  </g>
 </g>
</svg>
