<?xml version="1.0" encoding="UTF-8"?>
<!DOCTYPE svg PUBLIC "-//W3C//DTD SVG 1.1//EN" "http://www.w3.org/Graphics/SVG/1.1/DTD/svg11.dtd">
<!-- Creator: CorelDRAW X8 -->
<svg xmlns="http://www.w3.org/2000/svg" xml:space="preserve" width="36.17mm" height="47.277mm" version="1.1" style="shape-rendering:geometricPrecision; text-rendering:geometricPrecision; image-rendering:optimizeQuality; fill-rule:evenodd; clip-rule:evenodd"
viewBox="0 0 3617 4728"
 xmlns:xlink="http://www.w3.org/1999/xlink">
 <defs>
  <style type="text/css">
   <![CDATA[
    .str0 {stroke:#373435;stroke-width:20}
    .str6 {stroke:black;stroke-width:70.08;stroke-linecap:round;stroke-linejoin:round}
    .str4 {stroke:black;stroke-width:70.08;stroke-linecap:round;stroke-linejoin:round}
    .str5 {stroke:black;stroke-width:52.28;stroke-linecap:round;stroke-linejoin:round}
    .str7 {stroke:black;stroke-width:52.28;stroke-linecap:round;stroke-linejoin:round}
    .str2 {stroke:black;stroke-width:26.74;stroke-linecap:round;stroke-linejoin:round}
    .str1 {stroke:black;stroke-width:66.03;stroke-linecap:round;stroke-linejoin:round}
    .str3 {stroke:black;stroke-width:66.03;stroke-linecap:round;stroke-linejoin:round}
    .fil0 {fill:none}
    .fil10 {fill:#FEFEFE}
    .fil11 {fill:#E6E7E8}
    .fil6 {fill:#373435}
    .fil9 {fill:black}
    .fil4 {fill:#03BC92}
    .fil7 {fill:#116BBE}
    .fil16 {fill:#266626}
    .fil15 {fill:#2B7C2F}
    .fil17 {fill:#389D3B}
    .fil12 {fill:#781106}
    .fil8 {fill:#B61A3A}
    .fil5 {fill:#BE1D3C}
    .fil13 {fill:#D22F24}
    .fil3 {fill:#E18F47}
    .fil2 {fill:#EE9E5A}
    .fil14 {fill:white}
    .fil18 {fill:#EE9E5A;fill-rule:nonzero}
    .fil1 {fill:#373435;fill-opacity:0.501961}
   ]]>
  </style>
 </defs>
 <g id="Capa_x0020_1">
  <metadata id="CorelCorpID_0Corel-Layer"/>
  <rect class="fil0" y="7" width="3617" height="4728"/>
  <path class="fil1" d="M1791 4084c414,0 750,76 750,170 0,94 -336,170 -750,170 -414,0 -750,-76 -750,-170 0,-94 336,-170 750,-170z"/>
  <path class="fil2" d="M1437 3605c180,81 245,276 367,276 122,0 163,-164 365,-276 1779,-871 950,-2959 -324,-3081 -1460,120 -2186,2203 -408,3081z"/>
  <path class="fil3" d="M3155 1799c-20,-94 -48,-187 -84,-276l-468 -662c-215,-186 -476,-310 -758,-337 -732,60 -1279,614 -1419,1261 379,158 2209,160 2729,14z"/>
  <ellipse class="fil4" cx="1792" cy="526" rx="113" ry="166"/>
  <ellipse class="fil5" transform="matrix(0.0145329 0.325129 -1.04536 0.0116801 1644.87 369.655)" rx="123" ry="152"/>
  <ellipse class="fil5" transform="matrix(0.0145329 0.325129 -1.04536 0.0116801 1953.34 369.655)" rx="123" ry="152"/>
  <path class="fil6" d="M1198 1838l1148 3c267,-10 534,-29 801,-57 -183,-1629 -2529,-1636 -2710,0 254,24 507,43 761,54z"/>
  <line class="fil7 str0" x1="1896" y1="535" x2="1896" y2= "535" />
  <path class="fil4" d="M3152 1783c-30,-803 -756,-1436 -1253,-1247 351,365 512,784 520,1302 244,-11 489,-29 733,-55z"/>
  <path class="fil7" d="M1168 1837c20,-547 226,-989 504,-1286l0 0c4,-5 8,-9 13,-14 -499,-136 -1204,453 -1251,1247 245,23 490,41 734,53z"/>
  <path class="fil8" d="M1561 1849l429 2c143,-2 286,-6 428,-13 -9,-514 -171,-940 -519,-1302 -61,-35 -127,-48 -214,1 -282,295 -494,750 -516,1300 130,6 261,10 392,12z"/>
  <g id="_2293995062096">
   <path class="fil9" d="M1170 1903c319,0 577,258 577,576 0,319 -258,577 -577,577 -318,0 -576,-258 -576,-577 0,-318 258,-576 576,-576zm0 42c295,0 534,239 534,534 0,295 -239,534 -534,534 -294,0 -534,-239 -534,-534 0,-295 240,-534 534,-534zm1363 0c295,0 534,239 534,534 0,295 -239,534 -534,534 -295,0 -534,-239 -534,-534 0,-295 239,-534 534,-534zm0 -42c318,0 576,258 576,576 0,319 -258,577 -576,577 -318,0 -576,-258 -576,-577 0,-318 258,-576 576,-576z"/>
   <path class="fil0" d="M1170 1945c295,0 534,239 534,534 0,295 -239,534 -534,534 -294,0 -534,-239 -534,-534 0,-295 240,-534 534,-534zm1363 0c295,0 534,239 534,534 0,295 -239,534 -534,534 -295,0 -534,-239 -534,-534 0,-295 239,-534 534,-534z"/>
   <rect class="fil9" x="1696" y="2590" width="311.612" height="91.2166"/>
   <rect class="fil10" x="1778" y="2590" width="146.347" height="91.2166"/>
   <rect class="fil11" x="1819" y="2590" width="66.3037" height="91.2166"/>
  </g>
  <g id="_2293995060240">
   <path class="fil12" d="M1804 3089c198,0 378,43 374,104 -7,121 -152,321 -366,322 -224,0 -336,-202 -350,-320 -8,-63 144,-106 342,-106z"/>
   <path class="fil10" d="M1804 3089c132,0 255,19 322,50 -74,74 -185,134 -320,134 -139,1 -241,-58 -308,-131 56,-33 170,-53 306,-53z"/>
   <path class="fil13" d="M2110 3356c-5,-3 -9,-6 -14,-9 -100,-59 -218,-46 -263,30l-1 1c-38,-31 -94,-51 -155,-51 -55,0 -105,16 -143,42 58,79 150,146 278,146 130,-1 234,-74 298,-159z"/>
  </g>
  <circle class="fil9" cx="1793" cy="354" r="40"/>
  <circle class="fil14" cx="1272" cy="2515" r="325"/>
  <g id="_2293995060208">
   <circle class="fil9" cx="1345" cy="2517" r="198"/>
   <circle class="fil10" cx="1364" cy="2391" r="86"/>
   <circle class="fil10" cx="1255" cy="2549" r="38"/>
  </g>
  <g>
   <path class="fil0 str1" d="M953 2452c14,-182 217,-311 424,-254"/>
  </g>
  <g>
   <path class="fil0 str2" d="M1688 3590c42,61 139,65 200,2"/>
  </g>
  <circle class="fil14" cx="2419" cy="2515" r="325"/>
  <g>
   <circle class="fil9" cx="2345" cy="2517" r="198"/>
   <circle class="fil10" cx="2326" cy="2391" r="86"/>
   <circle class="fil10" cx="2435" cy="2549" r="38"/>
  </g>
  <g>
   <path class="fil0 str3" d="M2738 2452c-15,-182 -217,-311 -424,-254"/>
  </g>
  <path class="fil15" d="M1948 1922c113,-2 290,3 349,-78 24,-33 67,-101 69,-178 2,-102 -102,-188 -124,-79 0,1 -13,-315 -145,-296 -74,10 -51,350 -75,150 -26,-222 -227,-229 -191,20 3,20 36,224 1,122 -7,-18 -70,-89 -118,-36 -101,109 -43,378 234,375z"/>
  <path class="fil16" d="M1948 1922c43,-1 94,0 145,-4 5,-29 -8,-61 -46,-91 -62,-49 -15,-233 -14,-310l2 -13 0 0c-10,5 -11,-6 -8,-26 -2,-10 -3,-22 -5,-37 -26,-222 -227,-229 -191,20 3,20 36,224 1,122 -7,-18 -70,-89 -118,-36 -101,109 -43,378 234,375z"/>
  <ellipse class="fil17" transform="matrix(1.03304 -0.161723 0.161723 1.03304 2157.19 1429.29)" rx="44" ry="90"/>
  <ellipse class="fil17" transform="matrix(1.03144 0.171615 -0.171615 1.03144 2300.36 1683.82)" rx="44" ry="90"/>
  <g>
   <path class="fil18" d="M1906 4112l68 -16c5,19 -7,38 -26,42 -19,5 -38,-7 -42,-26zm66 -167l0 0 -6 1 -4 2 -4 1 -3 2 -3 1 -1 1 -1 1 -1 1 0 0 -1 1 0 1 -1 2 0 2 -1 3 0 3 0 4 1 4 0 5 1 6 1 6 1 7 2 7 1 7 2 8 2 8 2 8 3 9 2 10 3 9 2 10 3 10 2 11 -68 16 -3 -10 -2 -10 -2 -10 -3 -9 -2 -9 -2 -9 -3 -9 -2 -9 -2 -8 -2 -8 -2 -8 -1 -8 -1 -8 -2 -8 0 -8 -1 -8 0 -8 1 -8 1 -8 1 -8 3 -8 3 -8 5 -7 5 -7 6 -7 6 -6 8 -5 8 -5 8 -3 8 -4 9 -2 10 -3 0 0 14 69zm270 -383l21 29 18 28 15 27 12 25 9 25 5 23 3 23 0 22 -4 21 -6 20 -10 17 -11 16 -13 15 -15 12 -16 11 -16 9 -18 8 -18 8 -18 6 -19 5 -18 5 -19 4 -19 4 -18 3 -18 3 -17 2 -17 3 -15 2 -14 2 -13 1 -12 2 -9 2 -14 -69 11 -2 13 -2 14 -2 15 -2 15 -2 16 -2 17 -2 16 -3 17 -3 18 -3 16 -4 17 -4 16 -5 15 -5 14 -6 13 -6 12 -7 11 -7 8 -7 8 -8 6 -8 4 -9 3 -9 2 -10 0 -12 -2 -14 -3 -16 -7 -18 -9 -20 -13 -23 -16 -24 -19 -27 56 -42zm0 0l-56 42c-12,-15 -9,-37 6,-49 16,-11 38,-9 50,7z"/>
  </g>
  <g>
   <g>
    <path class="fil0 str4" d="M3511 1274c-133,22 -199,134 -77,197 244,125 150,656 -314,674"/>
   </g>
   <g>
    <path class="fil0 str5" d="M3436 1222c-46,34 -56,57 -52,143"/>
   </g>
  </g>
  <g>
   <g>
    <path class="fil0 str6" d="M730 3419c86,-104 61,-232 -72,-199 -266,67 -545,-395 -209,-714"/>
   </g>
   <g>
    <path class="fil0 str7" d="M821 3408c12,-55 5,-79 -56,-142"/>
   </g>
  </g>
  <g>
   <path class="fil18" d="M1705 4116c-4,19 -23,31 -42,27 -19,-5 -30,-23 -26,-42l68 15zm-66 -166l15 -69 0 0 9 2 9 3 8 3 9 4 7 4 8 6 6 5 6 7 6 7 4 8 3 8 3 8 1 8 1 8 1 8 0 8 -1 7 0 8 -1 8 -2 8 -1 8 -2 8 -2 9 -2 8 -2 9 -2 8 -3 9 -2 10 -3 9 -2 10 -2 9 -3 10 -68 -15 2 -11 3 -10 3 -10 2 -10 2 -9 3 -9 2 -9 2 -8 2 -8 2 -7 1 -7 1 -6 1 -6 1 -6 1 -5 0 -5 0 -4 0 -3 -1 -2 0 -3 -1 -1 0 -1 0 -1 -1 -1 -1 -1 -1 0 -1 -2 -3 -1 -3 -1 -3 -2 -5 -1 -6 -1 0 0zm-269 -384l55 43 -19 26 -16 25 -13 22 -9 20 -6 19 -4 15 -2 14 0 12 2 11 3 9 5 8 5 8 8 8 8 8 11 7 12 6 13 7 14 5 15 6 16 4 17 4 17 4 17 3 17 3 17 3 16 2 16 3 16 2 14 2 14 2 13 2 12 2 -15 69 -9 -2 -12 -2 -12 -2 -15 -2 -15 -2 -17 -2 -17 -3 -18 -2 -18 -4 -19 -3 -18 -4 -19 -5 -19 -6 -18 -6 -18 -7 -17 -8 -17 -10 -16 -11 -15 -12 -13 -14 -11 -16 -9 -18 -7 -19 -3 -21 -1 -22 3 -23 5 -24 9 -24 12 -26 15 -26 18 -28 22 -30zm0 0c11,-15 33,-18 49,-6 15,12 18,34 6,49l-55 -43z"/>
  </g>
 </g>
</svg>
