<?xml version="1.0" encoding="UTF-8"?>
<!DOCTYPE svg PUBLIC "-//W3C//DTD SVG 1.1//EN" "http://www.w3.org/Graphics/SVG/1.1/DTD/svg11.dtd">
<!-- Creator: CorelDRAW X8 -->
<svg xmlns="http://www.w3.org/2000/svg" xml:space="preserve" width="36.17mm" height="47.277mm" version="1.1" style="shape-rendering:geometricPrecision; text-rendering:geometricPrecision; image-rendering:optimizeQuality; fill-rule:evenodd; clip-rule:evenodd"
viewBox="0 0 3617 4728"
 xmlns:xlink="http://www.w3.org/1999/xlink">
 <defs>
  <style type="text/css">
   <![CDATA[
    .str0 {stroke:#373435;stroke-width:20}
    .str8 {stroke:black;stroke-width:70.08;stroke-linecap:round;stroke-linejoin:round}
    .str4 {stroke:#EE9E5A;stroke-width:70.08;stroke-linecap:round;stroke-linejoin:round}
    .str6 {stroke:black;stroke-width:70.08;stroke-linecap:round;stroke-linejoin:round}
    .str5 {stroke:#EE9E5A;stroke-width:70.08;stroke-linecap:round;stroke-linejoin:round}
    .str7 {stroke:black;stroke-width:52.28;stroke-linecap:round;stroke-linejoin:round}
    .str9 {stroke:black;stroke-width:52.28;stroke-linecap:round;stroke-linejoin:round}
    .str2 {stroke:black;stroke-width:26.74;stroke-linecap:round;stroke-linejoin:round}
    .str1 {stroke:black;stroke-width:66.03;stroke-linecap:round;stroke-linejoin:round}
    .str3 {stroke:black;stroke-width:66.03;stroke-linecap:round;stroke-linejoin:round}
    .fil9 {fill:none}
    .fil10 {fill:#FEFEFE}
    .fil11 {fill:#E6E7E8}
    .fil5 {fill:#373435}
    .fil8 {fill:black}
    .fil3 {fill:#03BC92}
    .fil6 {fill:#116BBE}
    .fil16 {fill:#266626}
    .fil15 {fill:#2B7C2F}
    .fil17 {fill:#389D3B}
    .fil12 {fill:#781106}
    .fil7 {fill:#B61A3A}
    .fil4 {fill:#BE1D3C}
    .fil13 {fill:#D22F24}
    .fil2 {fill:#E18F47}
    .fil1 {fill:#EE9E5A}
    .fil0 {fill:#FCE6A4}
    .fil14 {fill:white}
   ]]>
  </style>
 </defs>
 <g id="Capa_x0020_1">
  <metadata id="CorelCorpID_0Corel-Layer"/>
  <g id="_2293830409856">
   <g>
    <circle class="fil0" cx="1793" cy="2967" r="1447"/>
    <g>
     <path class="fil1" d="M1437 3605c180,81 245,276 367,276 122,0 163,-164 365,-276 1779,-871 950,-2959 -324,-3081 -1460,120 -2186,2203 -408,3081z"/>
     <path class="fil2" d="M3155 1799c-20,-94 -48,-187 -84,-276l-468 -662c-215,-186 -476,-310 -758,-337 -732,60 -1279,614 -1419,1261 379,158 2209,160 2729,14z"/>
     <ellipse class="fil3" cx="1792" cy="526" rx="113" ry="166"/>
     <ellipse class="fil4" transform="matrix(0.0145329 0.325129 -1.04536 0.0116801 1644.87 369.655)" rx="123" ry="152"/>
     <ellipse class="fil4" transform="matrix(0.0145329 0.325129 -1.04536 0.0116801 1953.34 369.655)" rx="123" ry="152"/>
     <path class="fil5" d="M1198 1838l1148 3c267,-10 534,-29 801,-57 -183,-1629 -2529,-1636 -2710,0 254,24 507,43 761,54z"/>
     <line class="fil6 str0" x1="1896" y1="535" x2="1896" y2= "535" />
     <path class="fil3" d="M3152 1783c-30,-803 -756,-1436 -1253,-1247 351,365 512,784 520,1302 244,-11 489,-29 733,-55z"/>
     <path class="fil6" d="M1168 1837c20,-547 226,-989 504,-1286l0 0c4,-5 8,-9 13,-14 -499,-136 -1204,453 -1251,1247 245,23 490,41 734,53z"/>
     <path class="fil7" d="M1561 1849l429 2c143,-2 286,-6 428,-13 -9,-514 -171,-940 -519,-1302 -61,-35 -127,-48 -214,1 -282,295 -494,750 -516,1300 130,6 261,10 392,12z"/>
     <g>
      <path class="fil8" d="M1170 1903c319,0 577,258 577,576 0,319 -258,577 -577,577 -318,0 -576,-258 -576,-577 0,-318 258,-576 576,-576zm0 42c295,0 534,239 534,534 0,295 -239,534 -534,534 -294,0 -534,-239 -534,-534 0,-295 240,-534 534,-534zm1363 0c295,0 534,239 534,534 0,295 -239,534 -534,534 -295,0 -534,-239 -534,-534 0,-295 239,-534 534,-534zm0 -42c318,0 576,258 576,576 0,319 -258,577 -576,577 -318,0 -576,-258 -576,-577 0,-318 258,-576 576,-576z"/>
      <path class="fil9" d="M1170 1945c295,0 534,239 534,534 0,295 -239,534 -534,534 -294,0 -534,-239 -534,-534 0,-295 240,-534 534,-534zm1363 0c295,0 534,239 534,534 0,295 -239,534 -534,534 -295,0 -534,-239 -534,-534 0,-295 239,-534 534,-534z"/>
      <rect class="fil8" x="1696" y="2590" width="311.612" height="91.2166"/>
      <rect class="fil10" x="1778" y="2590" width="146.347" height="91.2166"/>
      <rect class="fil11" x="1819" y="2590" width="66.3037" height="91.2166"/>
     </g>
     <g>
      <path class="fil12" d="M1804 3089c198,0 378,43 374,104 -7,121 -152,321 -366,322 -224,0 -336,-202 -350,-320 -8,-63 144,-106 342,-106z"/>
      <path class="fil10" d="M1804 3089c132,0 255,19 322,50 -74,74 -185,134 -320,134 -139,1 -241,-58 -308,-131 56,-33 170,-53 306,-53z"/>
      <path class="fil13" d="M2110 3356c-5,-3 -9,-6 -14,-9 -100,-59 -218,-46 -263,30l-1 1c-38,-31 -94,-51 -155,-51 -55,0 -105,16 -143,42 58,79 150,146 278,146 130,-1 234,-74 298,-159z"/>
     </g>
     <circle class="fil8" cx="1793" cy="354" r="40"/>
     <circle class="fil14" cx="1272" cy="2515" r="325"/>
     <g>
      <circle class="fil8" cx="1345" cy="2517" r="198"/>
      <circle class="fil10" cx="1364" cy="2391" r="86"/>
      <circle class="fil10" cx="1255" cy="2549" r="38"/>
     </g>
     <g>
      <path class="fil9 str1" d="M953 2452c14,-182 217,-311 424,-254"/>
     </g>
     <g>
      <path class="fil9 str2" d="M1688 3590c42,61 139,65 200,2"/>
     </g>
     <circle class="fil14" cx="2419" cy="2515" r="325"/>
     <g>
      <circle class="fil8" cx="2345" cy="2517" r="198"/>
      <circle class="fil10" cx="2326" cy="2391" r="86"/>
      <circle class="fil10" cx="2435" cy="2549" r="38"/>
     </g>
     <g>
      <path class="fil9 str3" d="M2738 2452c-15,-182 -217,-311 -424,-254"/>
     </g>
     <path class="fil15" d="M1948 1922c113,-2 290,3 349,-78 24,-33 67,-101 69,-178 2,-102 -102,-188 -124,-79 0,1 -13,-315 -145,-296 -74,10 -51,350 -75,150 -26,-222 -227,-229 -191,20 3,20 36,224 1,122 -7,-18 -70,-89 -118,-36 -101,109 -43,378 234,375z"/>
     <path class="fil16" d="M1948 1922c43,-1 94,0 145,-4 5,-29 -8,-61 -46,-91 -62,-49 -15,-233 -14,-310l2 -13 0 0c-10,5 -11,-6 -8,-26 -2,-10 -3,-22 -5,-37 -26,-222 -227,-229 -191,20 3,20 36,224 1,122 -7,-18 -70,-89 -118,-36 -101,109 -43,378 234,375z"/>
     <ellipse class="fil17" transform="matrix(1.03304 -0.161723 0.161723 1.03304 2157.19 1429.29)" rx="44" ry="90"/>
     <ellipse class="fil17" transform="matrix(1.03144 0.171615 -0.171615 1.03144 2300.36 1683.82)" rx="44" ry="90"/>
     <g>
      <path class="fil9 str4" d="M1324 4186c115,-2 172,14 181,-71 12,-110 -160,-290 37,-454"/>
     </g>
     <g>
      <path class="fil9 str5" d="M2311 4144c-115,-2 -172,14 -181,-71 -12,-109 161,-290 -37,-453"/>
     </g>
     <g>
      <g>
       <path class="fil9 str6" d="M2887 3419c-86,-104 -61,-232 72,-199 266,67 546,-395 209,-714"/>
      </g>
      <g>
       <path class="fil9 str7" d="M2796 3408c-12,-55 -5,-79 56,-142"/>
      </g>
     </g>
     <g>
      <g>
       <path class="fil9 str8" d="M730 3419c86,-104 61,-232 -72,-199 -266,67 -545,-395 -209,-714"/>
      </g>
      <g>
       <path class="fil9 str9" d="M821 3408c12,-55 5,-79 -56,-142"/>
      </g>
     </g>
    </g>
   </g>
   <rect class="fil9" width="3617" height="4728"/>
  </g>
 </g>
</svg>
