<?xml version="1.0" encoding="UTF-8"?>
<!DOCTYPE svg PUBLIC "-//W3C//DTD SVG 1.1//EN" "http://www.w3.org/Graphics/SVG/1.1/DTD/svg11.dtd">
<!-- Creator: CorelDRAW X8 -->
<svg xmlns="http://www.w3.org/2000/svg" xml:space="preserve" width="150mm" height="87mm" version="1.1" style="shape-rendering:geometricPrecision; text-rendering:geometricPrecision; image-rendering:optimizeQuality; fill-rule:evenodd; clip-rule:evenodd"
viewBox="0 0 15000 8700"
 xmlns:xlink="http://www.w3.org/1999/xlink">
 <defs>
  <style type="text/css">
   <![CDATA[
    .str1 {stroke:#373435;stroke-width:20}
    .str10 {stroke:#373435;stroke-width:20}
    .str13 {stroke:black;stroke-width:70.08;stroke-linecap:round;stroke-linejoin:round}
    .str14 {stroke:black;stroke-width:52.28;stroke-linecap:round;stroke-linejoin:round}
    .str12 {stroke:black;stroke-width:26.74;stroke-linecap:round;stroke-linejoin:round}
    .str11 {stroke:black;stroke-width:66.03;stroke-linecap:round;stroke-linejoin:round}
    .str0 {stroke:#EE9E5A;stroke-width:41.21;stroke-linecap:round;stroke-linejoin:round}
    .str9 {stroke:#EE9E5A;stroke-width:41.21;stroke-linecap:round;stroke-linejoin:round}
    .str4 {stroke:black;stroke-width:33.59;stroke-linecap:round;stroke-linejoin:round}
    .str2 {stroke:black;stroke-width:44.08;stroke-linecap:round;stroke-linejoin:round}
    .str7 {stroke:black;stroke-width:46.79;stroke-linecap:round;stroke-linejoin:round}
    .str5 {stroke:black;stroke-width:46.79;stroke-linecap:round;stroke-linejoin:round}
    .str6 {stroke:black;stroke-width:34.9;stroke-linecap:round;stroke-linejoin:round}
    .str8 {stroke:black;stroke-width:34.9;stroke-linecap:round;stroke-linejoin:round}
    .str3 {stroke:black;stroke-width:17.85;stroke-linecap:round;stroke-linejoin:round}
    .fil11 {fill:none}
    .fil38 {fill:none;fill-rule:nonzero}
    .fil20 {fill:#FEFEFE}
    .fil21 {fill:#E6E7E8}
    .fil16 {fill:#373435}
    .fil34 {fill:black}
    .fil19 {fill:black}
    .fil14 {fill:#03BC92}
    .fil17 {fill:#116BBE}
    .fil24 {fill:#266626}
    .fil23 {fill:#2B7C2F}
    .fil0 {fill:#314253}
    .fil33 {fill:#373435}
    .fil25 {fill:#389D3B}
    .fil27 {fill:#3C4C5E}
    .fil28 {fill:#4C5F73}
    .fil29 {fill:#627992}
    .fil18 {fill:#B61A3A}
    .fil1 {fill:#BB3A73}
    .fil15 {fill:#BE1D3C}
    .fil13 {fill:#E18F47}
    .fil36 {fill:#E6E7E8}
    .fil4 {fill:#E96B66}
    .fil12 {fill:#EE9E5A}
    .fil2 {fill:#FCE6A4}
    .fil35 {fill:#FEFEFE}
    .fil39 {fill:#FF6E6E}
    .fil3 {fill:#FFA672}
    .fil37 {fill:white}
    .fil22 {fill:white}
    .fil10 {fill:#FEFEFE;fill-rule:nonzero}
    .fil26 {fill:black;fill-rule:nonzero}
    .fil32 {fill:#BB3A73;fill-rule:nonzero}
    .fil40 {fill:#BB3A73;fill-rule:nonzero}
    .fil31 {fill:#EE9E5A;fill-rule:nonzero}
    .fil30 {fill:#FCE6A4;fill-rule:nonzero}
    .fil9 {fill:#FFA672;fill-rule:nonzero}
    .fil41 {fill:#FFA672;fill-rule:nonzero}
    .fil5 {fill:#BB3A73;fill-opacity:0.400000}
    .fil8 {fill:#E96B66;fill-opacity:0.400000}
    .fil6 {fill:#FCE6A4;fill-opacity:0.400000}
    .fil7 {fill:#FFA672;fill-opacity:0.400000}
   ]]>
  </style>
 </defs>
 <g id="Capa_x0020_1">
  <metadata id="CorelCorpID_0Corel-Layer"/>
  <rect class="fil0" x="23103" y="-6974" width="12166" height="9401"/>
  <g id="_1875140841984">
   <g>
    <path class="fil1" d="M33764 -2058c551,0 1067,154 1505,423l0 4062 -3911 0c-305,-457 -482,-1007 -482,-1597 0,-1595 1293,-2888 2888,-2888z"/>
    <path class="fil2" d="M28126 -1153c518,0 938,420 938,938 0,518 -420,937 -938,937 -517,0 -937,-419 -937,-937 0,-518 420,-938 937,-938z"/>
    <path class="fil3" d="M33550 -6974c238,370 375,810 375,1283 0,1315 -1066,2381 -2381,2381 -1315,0 -2381,-1066 -2381,-2381 0,-473 138,-913 375,-1283l4012 0z"/>
    <path class="fil4" d="M26425 -5538c964,0 1744,781 1744,1745 0,963 -780,1744 -1744,1744 -963,0 -1744,-781 -1744,-1744 0,-964 781,-1745 1744,-1745z"/>
   </g>
   <g>
    <path class="fil5" d="M27055 2427c19,-159 29,-320 29,-484 0,-2212 -1777,-4008 -3981,-4039l0 4523 3952 0z"/>
    <path class="fil6" d="M30930 -830c-724,0 -1311,587 -1311,1312 0,724 587,1311 1311,1311 725,0 1312,-587 1312,-1311 0,-725 -587,-1312 -1312,-1312z"/>
    <path class="fil7" d="M23103 -5831c517,1168 1687,1983 3047,1983 1770,0 3218,-1382 3324,-3126l-6371 0 0 1143z"/>
    <path class="fil8" d="M33310 -6963c-1348,0 -2440,1092 -2440,2440 0,1347 1092,2440 2440,2440 803,0 1515,-388 1959,-986l0 -2908c-444,-598 -1156,-986 -1959,-986z"/>
   </g>
  </g>
  <path class="fil9" d="M29046 269c186,0 294,-87 323,-323l55 -448 -172 0 -55 443c-15,127 -66,168 -137,168 -87,0 -103,-79 -91,-176l54 -435 -172 0 -52 421c-27,214 42,350 247,350z"/>
  <polygon id="1" class="fil9" points="29565,-502 29472,260 29646,260 29739,-502 "/>
  <path id="2" class="fil9" d="M27603 988l63 -29c-17,-46 -26,-97 -26,-153 0,-98 28,-203 78,-283l-53 -24c-64,85 -97,206 -97,317 0,66 12,123 35,172z"/>
  <path id="3" class="fil9" d="M27796 905c32,0 58,-17 77,-43l1 0 -3 38 79 0 32 -262 -80 0 -15 120c-5,39 -36,75 -59,75 -19,0 -23,-14 -17,-56l20 -139 -80 0 -22 163c-12,78 18,104 67,104z"/>
  <path id="4" class="fil9" d="M28096 905c63,0 104,-34 104,-85 0,-41 -28,-60 -69,-81 -24,-11 -37,-20 -37,-29 0,-10 10,-16 21,-16 12,1 30,7 45,27l49 -46c-24,-28 -59,-42 -95,-42 -54,0 -97,35 -97,88 0,38 24,60 64,80 30,15 41,19 41,29 0,9 -10,15 -24,15 -21,0 -44,-13 -60,-32l-45 47c23,29 65,45 103,45z"/>
  <path id="5" class="fil9" d="M28466 706c0,-50 -47,-73 -90,-73 -88,0 -143,73 -143,162 -1,68 43,110 109,110 52,0 86,-19 114,-57l-60 -36c-14,20 -30,27 -47,27 -16,0 -33,-10 -38,-34 77,-8 154,-33 155,-99zm-77 11c-1,26 -36,36 -75,40 9,-36 32,-57 55,-57 13,0 20,6 20,17z"/>
  <path id="6" class="fil9" d="M28519 638l-32 262 80 0 12 -101c10,-62 42,-91 80,-77l12 -89c-29,0 -55,14 -75,41l-1 0 4 -36 -80 0z"/>
  <path id="7" class="fil9" d="M28855 604c30,0 50,-20 50,-47 0,-27 -19,-46 -48,-46 -30,0 -50,20 -50,47 0,27 20,46 48,46zm-50 34l-32 262 81 0 32 -262 -81 0z"/>
  <path id="8" class="fil9" d="M28948 638l-33 262 80 0 12 -97c9,-65 43,-98 67,-98 17,0 20,17 16,53l-19 142 80 0 20 -160c10,-73 -10,-107 -60,-107 -34,0 -63,15 -87,42l-1 0 4 -37 -79 0z"/>
  <path id="9" class="fil9" d="M29286 905c24,0 47,-6 70,-18l-13 -63c-10,6 -19,9 -26,9 -9,0 -14,-7 -12,-22l13 -108 54 0 8 -65 -54 0 11 -93 -82 16 -10 77 -26 0 -8 65 26 0 -14 118c-7,61 22,84 63,84z"/>
  <path id="10" class="fil9" d="M29613 706c0,-50 -48,-73 -90,-73 -88,0 -144,73 -144,162 0,68 44,110 110,110 51,0 86,-19 114,-57l-60 -36c-15,20 -30,27 -48,27 -15,0 -32,-10 -37,-34 77,-8 154,-33 155,-99zm-78 11c0,26 -35,36 -75,40 10,-36 33,-57 56,-57 12,0 20,6 19,17z"/>
  <path id="11" class="fil9" d="M29666 638l-32 262 80 0 12 -101c9,-62 42,-91 80,-77l11 -89c-29,0 -54,14 -75,41l-1 0 5 -36 -80 0z"/>
  <path id="12" class="fil9" d="M29851 703l-24 197 81 0 23 -197 42 0 8 -65 -41 0 3 -27c4,-34 12,-41 26,-41 10,0 18,3 28,10l19 -59c-17,-14 -38,-20 -62,-20 -52,0 -82,32 -90,93l-5 44 -22 0 -8 65 22 0z"/>
  <path id="13" class="fil9" d="M30069 905c29,0 56,-16 75,-44l2 1 -5 38 81 0 32 -262 -81 0 -2 18 -2 0c-14,-14 -34,-23 -62,-23 -68,0 -123,72 -123,165 0,60 29,107 85,107zm26 -71c-19,0 -30,-17 -30,-42 0,-39 21,-87 56,-87 17,0 32,7 44,19l-1 7c-9,66 -42,103 -69,103z"/>
  <path id="14" class="fil9" d="M30392 905c50,0 86,-20 113,-57l-62 -40c-15,19 -30,25 -46,25 -21,0 -35,-17 -35,-45 0,-44 24,-83 60,-83 15,0 29,6 37,23l62 -46c-22,-32 -54,-49 -101,-49 -91,0 -139,77 -139,158 0,74 43,114 111,114z"/>
  <path id="15" class="fil9" d="M30771 706c1,-50 -47,-73 -89,-73 -89,0 -144,73 -144,162 -1,68 43,110 109,110 52,0 87,-19 115,-57l-61 -36c-14,20 -30,27 -47,27 -16,0 -33,-10 -38,-34 77,-8 154,-33 155,-99zm-77 11c-1,26 -36,36 -75,40 9,-36 33,-57 56,-57 12,0 19,6 19,17z"/>
  <path id="16" class="fil9" d="M30771 962l53 23c65,-87 97,-205 97,-317 0,-65 -12,-124 -36,-171l-62 29c17,45 25,97 25,152 0,97 -27,201 -77,284z"/>
  <polygon id="17" class="fil9" points="27167,1055 27120,1436 27207,1436 27254,1055 "/>
  <path id="18" class="fil9" d="M27309 1173l-33 263 80 0 12 -97c9,-66 43,-98 67,-98 17,0 21,16 16,53l-19 142 80 0 21 -161c9,-73 -11,-106 -61,-106 -34,0 -63,14 -87,41l-1 0 5 -37 -80 0z"/>
  <path id="19" class="fil9" d="M27647 1440c24,0 48,-5 70,-18l-13 -62c-10,5 -19,8 -26,8 -9,0 -14,-7 -12,-22l13 -108 54 0 8 -65 -54 0 11 -92 -82 16 -10 76 -26 0 -8 65 26 0 -14 119c-7,60 22,83 63,83z"/>
  <path id="20" class="fil9" d="M27974 1241c0,-49 -47,-72 -90,-72 -88,0 -143,73 -143,162 -1,68 43,109 109,109 51,0 86,-19 114,-57l-60 -35c-14,19 -30,26 -48,26 -15,0 -32,-10 -37,-33 77,-8 154,-33 155,-100zm-77 11c-1,26 -36,36 -75,41 9,-37 32,-57 55,-57 13,0 20,6 20,16z"/>
  <path id="21" class="fil9" d="M28027 1174l-32 262 80 0 12 -101c10,-62 42,-91 80,-77l12 -89c-29,0 -55,14 -75,40l-2 0 5 -35 -80 0z"/>
  <path id="22" class="fil9" d="M28212 1238l-24 198 81 0 23 -198 43 0 8 -65 -42 0 3 -26c4,-35 12,-42 26,-42 10,0 19,4 28,10l19 -59c-17,-13 -38,-20 -62,-20 -52,0 -82,32 -90,94l-5 43 -22 0 -8 65 22 0z"/>
  <path id="23" class="fil9" d="M28430 1440c30,0 56,-16 75,-43l2 0 -5 39 81 0 32 -263 -81 0 -2 19 -2 0c-14,-15 -34,-23 -61,-23 -69,0 -124,71 -124,164 0,61 29,107 85,107zm26 -71c-18,0 -30,-16 -30,-42 0,-39 21,-86 57,-86 16,0 31,6 43,18l-1 8c-9,66 -41,102 -69,102z"/>
  <path id="24" class="fil9" d="M28824 1451l18 -64c-33,-10 -69,-14 -103,-16l0 -1 119 -143 6 -54 -195 0 -8 64 89 0 0 2 -117 143 -6 54c68,0 136,0 197,15z"/>
  <path id="25" class="fil9" d="M29062 1440c30,0 56,-16 76,-43l1 0 -5 39 81 0 49 -395 -81 0 -19 151 -1 0c-16,-15 -37,-23 -63,-23 -68,0 -124,71 -124,164 0,61 29,107 86,107zm25 -71c-18,0 -30,-16 -30,-42 0,-39 22,-86 57,-86 18,0 33,5 45,18l-1 8c-10,66 -42,102 -71,102z"/>
  <path id="26" class="fil9" d="M29504 1241c0,-49 -47,-72 -90,-72 -88,0 -143,73 -143,162 -1,68 43,109 109,109 51,0 86,-19 114,-57l-60 -35c-14,19 -30,26 -48,26 -15,0 -32,-10 -37,-33 77,-8 154,-33 155,-100zm-77 11c-1,26 -36,36 -75,41 9,-37 32,-57 55,-57 13,0 20,6 20,16z"/>
  <path id="27" class="fil9" d="M29766 1440c93,0 147,-43 162,-161l27 -224 -86 0 -27 221c-7,64 -33,84 -69,84 -43,0 -51,-39 -45,-88l27 -217 -86 0 -26 210c-14,107 21,175 123,175z"/>
  <path id="28" class="fil9" d="M30057 1440c64,0 104,-33 104,-85 0,-41 -28,-60 -69,-80 -24,-12 -37,-21 -37,-29 0,-10 11,-16 21,-16 13,0 31,7 45,27l49 -47c-23,-28 -59,-41 -94,-41 -54,0 -97,35 -97,87 0,39 24,60 64,80 30,15 40,20 40,29 0,10 -10,15 -24,15 -20,0 -44,-12 -59,-31l-45 46c23,29 65,45 102,45z"/>
  <path id="29" class="fil9" d="M30269 1440c33,0 59,-17 78,-43l1 0 -3 39 79 0 32 -263 -81 0 -14 121c-5,38 -37,75 -59,75 -19,0 -23,-14 -17,-57l19 -139 -79 0 -23 163c-11,78 18,104 67,104z"/>
  <path id="30" class="fil9" d="M30568 1440c29,0 56,-16 75,-43l2 0 -5 39 81 0 32 -263 -81 0 -2 19 -2 0c-14,-15 -34,-23 -61,-23 -69,0 -124,71 -124,164 0,61 29,107 85,107zm26 -71c-19,0 -30,-16 -30,-42 0,-39 21,-86 57,-86 16,0 31,6 43,18l-1 8c-9,66 -41,102 -69,102z"/>
  <path id="31" class="fil9" d="M30811 1174l-32 262 80 0 12 -101c10,-62 42,-91 80,-77l12 -89c-29,0 -55,14 -75,40l-2 0 5 -35 -80 0z"/>
  <path id="32" class="fil9" d="M31052 1140c29,0 49,-21 49,-48 0,-26 -19,-46 -48,-46 -29,0 -50,20 -50,48 0,26 20,46 49,46zm-50 33l-32 263 80 0 32 -263 -80 0z"/>
  <path id="33" class="fil9" d="M31224 1440c100,0 145,-74 145,-159 0,-72 -44,-112 -112,-112 -92,0 -144,75 -144,159 0,72 44,112 111,112zm6 -71c-18,0 -36,-14 -36,-45 0,-41 22,-83 57,-83 14,0 37,8 37,45 0,43 -23,83 -58,83z"/>
  <g id="_1910607452112">
   <path class="fil10" d="M33242 7347l0 -1616 557 0c125,0 221,8 288,23 92,22 171,60 236,116 86,72 149,164 191,276 43,112 64,240 64,384 0,123 -14,232 -43,326 -28,95 -65,174 -110,236 -45,62 -94,111 -147,146 -53,36 -118,63 -193,81 -76,19 -162,28 -260,28l-583 0zm215 -190l344 0c107,0 190,-10 251,-29 60,-20 108,-48 144,-84 51,-51 90,-120 118,-205 29,-86 43,-190 43,-312 0,-169 -28,-299 -83,-390 -55,-91 -123,-152 -202,-183 -57,-22 -149,-33 -277,-33l-338 0 0 1236z"/>
   <path id="1" class="fil10" d="M34772 6761c0,-216 61,-376 181,-480 101,-87 224,-130 368,-130 161,0 293,53 395,158 102,105 153,250 153,436 0,150 -23,268 -68,354 -45,86 -111,153 -197,201 -86,48 -181,72 -283,72 -163,0 -296,-53 -397,-158 -101,-105 -152,-256 -152,-453zm204 1c0,149 32,261 98,335 65,75 148,112 247,112 99,0 181,-37 247,-112 65,-75 98,-189 98,-342 0,-144 -33,-254 -99,-328 -66,-74 -148,-111 -246,-111 -99,0 -182,36 -247,111 -66,74 -98,185 -98,335z"/>
   <path id="2" class="fil10" d="M36102 7347l0 -1171 178 0 0 166c86,-128 210,-191 372,-191 71,0 135,13 194,38 59,25 104,59 133,100 29,41 50,89 62,146 7,37 11,101 11,193l0 719 -199 0 0 -712c0,-81 -7,-141 -23,-181 -15,-40 -43,-72 -82,-96 -39,-24 -85,-36 -138,-36 -84,0 -157,27 -218,81 -61,53 -92,155 -92,305l0 639 -198 0z"/>
   <path id="3" class="fil10" d="M38155 6968l206 27c-32,119 -92,212 -179,278 -88,65 -199,99 -335,99 -170,0 -306,-53 -406,-158 -100,-105 -150,-253 -150,-443 0,-196 51,-349 152,-457 101,-109 232,-163 394,-163 156,0 283,53 382,159 99,107 149,256 149,449 0,12 -1,30 -2,53l-872 0c8,128 44,227 109,295 65,68 147,102 244,102 73,0 135,-19 186,-57 52,-39 92,-100 122,-184zm-649 -318l652 0c-9,-99 -34,-173 -75,-222 -63,-76 -145,-115 -245,-115 -91,0 -168,31 -230,92 -61,61 -96,142 -102,245z"/>
   <path id="4" class="fil10" d="M39376 6918l194 27c-21,134 -75,238 -163,313 -87,76 -195,114 -323,114 -160,0 -288,-53 -385,-157 -98,-105 -146,-254 -146,-449 0,-127 21,-237 63,-332 41,-94 105,-165 191,-212 85,-47 178,-71 279,-71 126,0 231,32 311,96 81,64 133,156 155,274l-191 29c-19,-78 -51,-137 -98,-177 -47,-40 -103,-60 -169,-60 -100,0 -182,36 -244,108 -63,71 -94,184 -94,339 0,157 30,271 90,342 61,71 139,107 236,107 78,0 143,-24 195,-71 52,-48 86,-121 99,-220z"/>
   <g>
    <g>
     <path class="fil11 str0" d="M35431 6163c-65,-19 -100,-19 -92,-69 11,-63 183,-356 41,-437"/>
    </g>
    <path class="fil12" d="M34866 6072c131,-15 235,74 305,33 70,-42 37,-150 115,-283 722,-1108 -467,-2022 -1240,-1657 -795,568 -500,2011 820,1907z"/>
    <path class="fil13" d="M35234 4449c-44,-47 -92,-91 -142,-130l-495 -220c-187,-33 -379,-15 -551,66 -398,285 -523,789 -382,1209 189,-27 754,-337 1164,-612 67,-44 157,27 274,-103 58,-64 0,-93 36,-123 39,-32 71,-61 96,-87z"/>
    <ellipse class="fil14" transform="matrix(0.526824 -0.313985 0.372406 0.624848 34017 4184.52)" rx="123" ry="152"/>
    <ellipse class="fil15" transform="matrix(0.119461 0.181488 -0.595499 0.363992 33879.3 4145.3)" rx="123" ry="152"/>
    <ellipse class="fil15" transform="matrix(0.119461 0.181488 -0.595499 0.363992 34056.2 4039.87)" rx="123" ry="152"/>
    <path class="fil16" d="M34125 5140l659 -390c150,-98 297,-200 440,-307 -662,-872 -2009,-74 -1554,926 154,-73 306,-149 455,-229z"/>
    <line class="fil17 str1" x1="34080" y1="4155" x2="34080" y2= "4155" />
    <path class="fil14" d="M35227 4441c-292,-450 -925,-565 -1145,-287 326,89 562,274 743,569 136,-90 271,-184 402,-282z"/>
    <path class="fil17" d="M34107 5149c-175,-320 -208,-644 -150,-909l0 0c1,-4 2,-8 2,-12 -332,92 -535,671 -291,1142 149,-70 295,-144 439,-221z"/>
    <path class="fil18" d="M34337 5023l247 -146c81,-50 161,-101 241,-154 -181,-291 -420,-480 -743,-569 -47,1 -90,16 -123,74 -61,265 -26,598 149,921 77,-41 153,-83 229,-126z"/>
    <g>
     <path class="fil19" d="M34448 5040c90,-45 187,-50 273,-22 84,27 158,85 203,170 45,85 54,182 30,271 -24,91 -81,175 -168,229 -89,56 -191,71 -285,47 -94,-25 -178,-87 -226,-182 -48,-95 -52,-202 -18,-296 32,-92 99,-171 191,-217zm12 23c85,-42 174,-46 253,-21 79,25 148,79 189,158 42,79 50,169 28,252 -22,84 -75,161 -156,212 -82,51 -178,65 -264,42 -87,-22 -164,-81 -209,-168 -45,-88 -48,-186 -17,-273 29,-85 92,-160 176,-202zm696 -350c67,-33 141,-34 208,-9 66,24 126,74 165,144 39,70 50,149 36,220 -15,72 -55,136 -120,177 -65,40 -143,48 -215,25 -73,-23 -139,-76 -180,-152 -41,-77 -49,-162 -29,-236 20,-73 67,-135 135,-169zm-12 -20c72,-36 153,-37 225,-10 71,26 136,80 178,155 41,76 53,161 38,237 -15,78 -59,148 -128,191 -71,45 -155,53 -232,28 -79,-24 -151,-81 -196,-165 -44,-83 -53,-175 -31,-255 22,-78 73,-145 146,-181z"/>
     <path class="fil11" d="M34436 5059c89,-45 183,-49 265,-22 82,26 154,83 198,165 44,82 52,177 29,263 -23,88 -78,169 -164,223 -85,53 -186,68 -277,44 -91,-23 -172,-84 -219,-176 -47,-92 -50,-194 -18,-286 32,-89 98,-167 186,-211zm727 -364c70,-35 147,-35 216,-9 69,26 132,77 172,150 41,73 52,155 37,228 -15,75 -56,142 -123,184 -67,43 -149,51 -224,27 -76,-24 -145,-79 -188,-159 -43,-80 -51,-169 -30,-246 21,-75 70,-140 140,-175z"/>
     <path class="fil19" d="M34927 5268c55,-32 110,-64 164,-94 9,16 18,33 27,50 -54,31 -108,63 -164,96 -9,-18 -18,-35 -27,-52z"/>
     <path class="fil20" d="M34971 5242c26,-15 52,-29 77,-44 9,17 18,34 28,51 -26,15 -51,30 -77,45 -10,-17 -19,-35 -28,-52z"/>
     <path class="fil21" d="M34993 5230c11,-7 23,-13 34,-20 9,17 19,34 28,51 -12,7 -23,14 -35,20 -9,-17 -18,-34 -27,-51z"/>
    </g>
    <circle class="fil19" transform="matrix(0.599641 -0.357383 0.357383 0.599641 33958.6 4085.59)" r="38"/>
    <g>
     <circle class="fil22" transform="matrix(0.378668 -0.225685 0.225685 0.378668 34669.2 5408.39)" r="492"/>
     <g>
      <circle class="fil19" transform="matrix(0.231085 -0.137726 0.137726 0.231085 34730.4 5420.44)" r="492"/>
      <circle class="fil20" transform="matrix(0.100777 -0.0600624 0.0600624 0.100777 34698.5 5341.73)" r="492"/>
      <circle class="fil20" transform="matrix(0.0437671 -0.026085 0.026085 0.0437671 34689.9 5469.72)" r="492"/>
     </g>
     <g>
      <path class="fil11 str2" d="M34465 5481c-54,-109 18,-252 156,-290"/>
     </g>
    </g>
    <g>
     <path class="fil11 str3" d="M35124 5832c45,20 102,-11 115,-68"/>
    </g>
    <g>
     <circle class="fil22" transform="matrix(-0.288565 0.171984 0.171984 0.288565 35291.5 5050.66)" r="492"/>
     <g id="_1910607472784">
      <circle class="fil19" transform="matrix(-0.176099 0.104954 0.104954 0.176099 35331.5 5080.64)" r="492"/>
      <circle class="fil20" transform="matrix(-0.0767971 0.0457708 0.0457708 0.0767971 35290.3 5030.67)" r="492"/>
      <circle class="fil20" transform="matrix(-0.0333528 0.0198781 0.0198781 0.0333528 35379.2 5071.33)" r="492"/>
     </g>
     <g>
      <path class="fil11 str4" d="M35414 4940c-53,-76 -175,-80 -251,0"/>
     </g>
    </g>
    <g>
     <path class="fil23" d="M34947 4694c64,-39 167,-97 173,-164 3,-27 4,-81 -21,-125 -34,-60 -123,-74 -98,-4 0,1 -115,-175 -185,-120 -38,31 91,219 9,112 -91,-118 -209,-54 -103,77 9,10 97,116 42,70 -10,-9 -70,-28 -80,19 -20,97 105,232 263,135z"/>
     <path class="fil24" d="M34947 4694c24,-15 54,-32 82,-52 -8,-18 -26,-32 -58,-36 -52,-7 -88,-129 -114,-173l-3 -8 0 0c-4,6 -8,0 -14,-12 -4,-5 -9,-12 -15,-20 -91,-118 -209,-54 -103,77 9,10 97,116 42,70 -10,-9 -70,-28 -80,19 -20,97 105,232 263,135z"/>
     <ellipse class="fil25" transform="matrix(0.53715 -0.445828 0.445828 0.53715 34898.2 4340.2)" rx="44" ry="90"/>
     <ellipse class="fil25" transform="matrix(0.650166 -0.254119 0.254119 0.650166 35067.3 4437.23)" rx="44" ry="90"/>
    </g>
    <path class="fil19" d="M34984 5666c-43,-14 -58,26 -10,33 135,28 225,-22 265,-157 13,-38 -23,-50 -32,-9 -32,113 -107,156 -223,133z"/>
    <g>
     <g>
      <path class="fil11 str5" d="M34326 6071c-43,-27 -120,-49 -231,-70 -180,-34 -205,-106 -186,-259"/>
     </g>
     <g>
      <path class="fil11 str6" d="M34343 6040c-27,-26 -43,-31 -100,-20"/>
     </g>
    </g>
    <g>
     <g>
      <path class="fil11 str7" d="M35518 5757c-76,-49 -86,-136 5,-142 183,-11 266,-362 -13,-496"/>
     </g>
     <g>
      <path class="fil11 str8" d="M35458 5768c-19,-33 -20,-49 6,-101"/>
     </g>
    </g>
    <g>
     <path class="fil11 str9" d="M35267 6158c-32,60 -38,95 -85,77 -61,-22 -244,-116 -372,-163"/>
    </g>
   </g>
  </g>
  <g>
   <rect class="fil1" transform="matrix(4.3254E-16 -0.0163318 0.0479145 1.26899E-15 -6277.18 11393.9)" width="27940" height="21590"/>
   <rect class="fil4" transform="matrix(4.3254E-16 -0.0163318 0.0479145 1.26899E-15 -6277.18 10869.3)" width="27940" height="21590"/>
   <rect class="fil3" transform="matrix(4.3254E-16 -0.0163318 0.0479145 1.26899E-15 -6277.18 10344.8)" width="27940" height="21590"/>
   <rect class="fil2" transform="matrix(4.3254E-16 -0.0163318 0.0479145 1.26899E-15 -6277.18 9820.16)" width="27940" height="21590"/>
   <path class="fil26" d="M-6191 9540l0 -73 33 0c6,0 11,1 14,2 4,1 6,4 8,7 2,3 3,7 3,11 0,5 -1,9 -5,13 -3,3 -8,6 -15,7 3,1 4,2 6,3 3,3 5,6 8,10l12 20 -12 0 -9 -15c-3,-5 -5,-8 -7,-10 -2,-3 -4,-4 -5,-5 -2,-1 -3,-2 -5,-2 -1,0 -2,-1 -5,-1l-11 0 0 33 -10 0zm10 -41l21 0c4,0 7,0 10,-1 2,-1 4,-3 6,-5 1,-2 1,-4 1,-6 0,-4 -1,-6 -3,-9 -3,-2 -7,-3 -12,-3l-23 0 0 24z"/>
   <path id="1" class="fil26" d="M-6074 9531l0 9 -48 0c0,-2 0,-4 1,-6 1,-4 3,-7 6,-10 2,-3 6,-7 11,-11 8,-7 14,-12 16,-15 3,-4 5,-8 5,-11 0,-4 -2,-7 -4,-9 -3,-3 -6,-4 -10,-4 -5,0 -8,1 -11,4 -2,3 -3,6 -3,11l-10 -1c1,-7 3,-12 7,-16 5,-4 10,-5 17,-5 7,0 13,2 17,6 4,3 6,8 6,14 0,3 -1,6 -2,9 -1,2 -3,5 -6,8 -3,4 -7,8 -14,13 -5,5 -9,8 -10,9 -2,2 -3,4 -4,5l36 0z"/>
   <path id="2" class="fil26" d="M-6036 9540l0 -18 -32 0 0 -8 34 -47 7 0 0 47 10 0 0 8 -10 0 0 18 -9 0zm0 -26l0 -33 -23 33 23 0z"/>
   <path id="3" class="fil26" d="M-6007 9523l9 -1c1,4 2,7 4,9 2,2 5,3 8,3 3,0 5,-1 7,-2 2,-1 4,-3 5,-5 2,-2 3,-5 4,-9 0,-3 1,-7 1,-11 0,0 0,-1 0,-1 -2,2 -4,5 -7,6 -4,2 -7,3 -10,3 -6,0 -12,-2 -16,-6 -4,-5 -6,-11 -6,-18 0,-7 2,-13 7,-18 4,-4 9,-6 16,-6 5,0 9,1 13,4 4,2 7,6 9,10 2,5 3,12 3,21 0,9 -1,17 -3,22 -2,6 -5,10 -9,13 -4,3 -9,4 -14,4 -6,0 -11,-2 -14,-5 -4,-3 -6,-7 -7,-13zm37 -32c0,-5 -1,-9 -4,-12 -3,-3 -6,-5 -10,-5 -4,0 -7,2 -10,5 -3,3 -5,7 -5,13 0,4 2,8 4,11 3,3 7,4 11,4 4,0 7,-1 10,-4 3,-3 4,-7 4,-12z"/>
   <path id="4" class="fil26" d="M-5886 9511l0 -8 31 0 0 27c-4,3 -9,6 -14,8 -5,2 -11,3 -16,3 -7,0 -13,-2 -19,-5 -6,-3 -11,-7 -14,-13 -3,-6 -4,-12 -4,-19 0,-7 1,-14 4,-20 3,-6 8,-11 13,-14 6,-3 12,-4 19,-4 6,0 10,1 15,2 4,2 7,4 10,7 2,4 4,7 5,12l-9 3c-1,-4 -2,-7 -4,-9 -1,-2 -4,-4 -7,-5 -3,-1 -6,-2 -10,-2 -4,0 -8,1 -11,2 -3,1 -6,3 -8,5 -2,3 -3,5 -4,8 -2,4 -3,9 -3,14 0,7 1,12 3,17 3,4 6,7 10,9 4,2 9,3 14,3 4,0 8,0 12,-2 4,-2 7,-3 9,-5l0 -14 -22 0z"/>
   <path id="5" class="fil26" d="M-5797 9531l0 9 -48 0c0,-2 0,-4 1,-6 1,-4 3,-7 6,-10 2,-3 6,-7 11,-11 8,-7 14,-12 16,-15 3,-4 5,-8 5,-11 0,-4 -2,-7 -4,-9 -3,-3 -6,-4 -10,-4 -5,0 -8,1 -11,4 -2,3 -3,6 -4,11l-9 -1c1,-7 3,-12 7,-16 5,-4 10,-5 17,-5 7,0 13,2 17,6 4,3 6,8 6,14 0,3 -1,6 -2,9 -1,2 -3,5 -6,8 -3,4 -7,8 -14,13 -5,5 -9,8 -10,9 -2,2 -3,4 -4,5l36 0z"/>
   <path id="6" class="fil26" d="M-5741 9531l0 9 -48 0c0,-2 0,-4 1,-6 1,-4 3,-7 6,-10 3,-3 7,-7 12,-11 8,-7 13,-12 16,-15 3,-4 4,-8 4,-11 0,-4 -1,-7 -4,-9 -2,-3 -6,-4 -10,-4 -4,0 -7,1 -10,4 -3,3 -4,6 -4,11l-9 -1c1,-7 3,-12 7,-16 4,-4 10,-5 17,-5 7,0 12,2 16,6 4,3 6,8 6,14 0,3 0,6 -2,9 -1,2 -3,5 -5,8 -3,4 -8,8 -14,13 -6,5 -9,8 -11,9 -1,2 -2,4 -3,5l35 0z"/>
   <path id="7" class="fil26" d="M-5702 9540l0 -18 -32 0 0 -8 33 -47 8 0 0 47 9 0 0 8 -9 0 0 18 -9 0zm0 -26l0 -33 -23 33 23 0z"/>
   <path id="8" class="fil26" d="M-5643 9540l0 -73 27 0c6,0 10,1 14,2 3,2 6,4 8,7 1,3 2,6 2,10 0,3 0,6 -2,8 -2,3 -4,5 -8,7 5,1 8,4 10,7 3,3 4,6 4,11 0,3 -1,6 -2,9 -2,3 -3,5 -6,7 -2,2 -4,3 -7,4 -4,0 -8,1 -12,1l-28 0zm10 -42l15 0c5,0 8,-1 10,-1 2,-1 4,-2 5,-4 1,-2 2,-4 2,-6 0,-3 -1,-5 -2,-7 -1,-1 -3,-3 -5,-3 -2,-1 -6,-1 -11,-1l-14 0 0 22zm0 33l18 0c3,0 5,0 6,0 3,0 4,-1 6,-2 1,-1 3,-2 4,-4 1,-2 1,-4 1,-6 0,-3 -1,-5 -2,-7 -1,-2 -3,-4 -6,-5 -2,0 -6,-1 -11,-1l-16 0 0 25z"/>
   <path id="9" class="fil26" d="M-5545 9540l-9 0 0 -57c-2,2 -5,4 -8,6 -4,2 -7,4 -10,5l0 -9c5,-2 10,-5 13,-9 4,-3 7,-6 8,-9l6 0 0 73z"/>
   <path id="10" class="fil26" d="M-5493 9540l0 -18 -32 0 0 -8 33 -47 8 0 0 47 10 0 0 8 -10 0 0 18 -9 0zm0 -26l0 -33 -23 33 23 0z"/>
   <path id="11" class="fil26" d="M-5437 9540l0 -18 -31 0 0 -8 33 -47 7 0 0 47 10 0 0 8 -10 0 0 18 -9 0zm0 -26l0 -33 -22 33 22 0z"/>
   <path id="12" class="fil26" d="M-6194 9718l5 -21 -9 0 0 -7 10 0 4 -18 -14 0 0 -8 15 0 5 -21 7 0 -4 21 15 0 5 -21 7 0 -4 21 8 0 0 8 -10 0 -3 18 13 0 0 7 -15 0 -4 21 -8 0 5 -21 -16 0 -4 21 -8 0zm14 -28l15 0 4 -18 -16 0 -3 18z"/>
   <polygon id="13" class="fil26" points="-6134,9717 -6134,9644 -6085,9644 -6085,9653 -6124,9653 -6124,9675 -6090,9675 -6090,9684 -6124,9684 -6124,9717 "/>
   <path id="14" class="fil26" d="M-6075 9700l9 -1c1,4 2,7 4,9 2,2 5,3 8,3 3,0 5,-1 7,-2 2,-1 4,-3 5,-5 2,-2 3,-5 4,-9 1,-3 1,-7 1,-10 0,-1 0,-1 0,-2 -2,3 -4,5 -7,7 -3,1 -7,2 -10,2 -6,0 -11,-2 -16,-6 -4,-5 -6,-10 -6,-18 0,-7 2,-13 7,-17 4,-5 9,-7 16,-7 5,0 9,1 13,4 4,2 7,6 9,11 2,4 3,11 3,20 0,9 -1,17 -3,22 -2,6 -5,10 -9,13 -4,3 -9,4 -14,4 -6,0 -10,-1 -14,-5 -4,-3 -6,-7 -7,-13zm37 -32c0,-5 -1,-9 -4,-12 -3,-3 -6,-5 -10,-5 -4,0 -7,2 -10,5 -3,3 -5,8 -5,13 0,4 2,8 4,11 3,3 7,4 11,4 4,0 7,-1 10,-4 3,-3 4,-7 4,-12z"/>
   <polygon id="15" class="fil26" points="-6016,9717 -6016,9644 -5963,9644 -5963,9653 -6006,9653 -6006,9675 -5966,9675 -5966,9684 -6006,9684 -6006,9708 -5961,9708 -5961,9717 "/>
   <path id="16" class="fil26" d="M-5951 9681c0,-9 0,-15 2,-21 2,-5 5,-9 8,-12 4,-3 8,-4 13,-4 4,0 8,1 11,2 2,2 5,4 7,7 2,3 3,7 4,11 1,4 2,10 2,17 0,9 -1,16 -3,21 -1,5 -4,9 -8,12 -3,3 -7,4 -13,4 -7,0 -12,-2 -16,-7 -5,-6 -7,-16 -7,-30zm9 0c0,12 1,20 4,24 3,4 6,6 10,6 4,0 8,-2 11,-6 2,-4 4,-12 4,-24 0,-12 -2,-20 -4,-24 -3,-4 -7,-6 -11,-6 -4,0 -7,2 -10,6 -3,4 -4,12 -4,24z"/>
   <path id="17" class="fil26" d="M-5894 9700l9 -1c1,4 2,7 4,9 2,2 5,3 8,3 3,0 5,-1 7,-2 2,-1 4,-3 5,-5 2,-2 3,-5 4,-9 1,-3 1,-7 1,-10 0,-1 0,-1 0,-2 -2,3 -4,5 -7,7 -3,1 -7,2 -10,2 -6,0 -11,-2 -16,-6 -4,-5 -6,-10 -6,-18 0,-7 2,-13 7,-17 4,-5 9,-7 16,-7 5,0 9,1 13,4 4,2 7,6 9,11 2,4 3,11 3,20 0,9 -1,17 -3,22 -2,6 -5,10 -9,13 -4,3 -9,4 -14,4 -6,0 -10,-1 -14,-5 -4,-3 -6,-7 -7,-13zm37 -32c0,-5 -1,-9 -4,-12 -3,-3 -6,-5 -10,-5 -4,0 -7,2 -10,5 -3,3 -5,8 -5,13 0,4 2,8 4,11 3,3 7,4 11,4 4,0 7,-1 10,-4 3,-3 4,-7 4,-12z"/>
   <path id="18" class="fil26" d="M-5838 9681c0,-9 1,-15 2,-21 2,-5 5,-9 8,-12 4,-3 8,-4 13,-4 4,0 8,1 11,2 3,2 5,4 7,7 2,3 3,7 4,11 1,4 2,10 2,17 0,9 -1,16 -3,21 -1,5 -4,9 -7,12 -4,3 -8,4 -14,4 -7,0 -12,-2 -16,-7 -5,-6 -7,-16 -7,-30zm9 0c0,12 1,20 4,24 3,4 6,6 10,6 4,0 8,-2 11,-6 2,-4 4,-12 4,-24 0,-12 -2,-20 -4,-24 -3,-4 -7,-6 -11,-6 -4,0 -7,2 -10,6 -3,4 -4,12 -4,24z"/>
   <path class="fil26" d="M-6191 10064l0 -72 33 0c6,0 11,0 14,2 4,1 6,3 8,6 2,4 3,7 3,11 0,6 -1,10 -5,14 -3,3 -8,5 -15,6 3,1 4,3 6,4 3,2 5,6 8,10l12 19 -12 0 -9 -15c-3,-4 -5,-7 -7,-10 -2,-2 -4,-4 -5,-5 -2,-1 -3,-1 -5,-2 -1,0 -2,0 -5,0l-11 0 0 32 -10 0zm10 -40l21 0c4,0 7,-1 10,-2 2,-1 4,-2 6,-4 1,-2 1,-4 1,-7 0,-3 -1,-6 -3,-8 -3,-2 -7,-3 -12,-3l-23 0 0 24z"/>
   <path id="1" class="fil26" d="M-6074 10056l0 8 -48 0c0,-2 0,-4 1,-6 1,-3 3,-6 6,-10 2,-3 6,-6 11,-10 8,-7 14,-12 16,-16 3,-4 5,-7 5,-11 0,-3 -2,-6 -4,-9 -3,-2 -6,-3 -10,-3 -5,0 -8,1 -11,4 -2,2 -3,6 -3,10l-10 -1c1,-7 3,-12 7,-15 5,-4 10,-6 17,-6 7,0 13,2 17,6 4,4 6,9 6,15 0,2 -1,5 -2,8 -1,3 -3,6 -6,9 -3,3 -7,7 -14,13 -5,4 -9,7 -10,9 -2,2 -3,3 -4,5l36 0z"/>
   <path id="2" class="fil26" d="M-6065 10045l10 0c1,4 2,8 5,10 2,2 5,3 9,3 4,0 8,-1 11,-5 3,-3 4,-7 4,-12 0,-6 -1,-10 -4,-13 -3,-2 -7,-4 -11,-4 -3,0 -6,1 -8,2 -2,1 -4,3 -5,5l-9 -1 7 -37 36 0 0 8 -29 0 -4 20c5,-3 9,-5 14,-5 6,0 12,2 16,7 5,4 7,10 7,17 0,6 -2,12 -6,17 -5,6 -11,9 -19,9 -7,0 -12,-2 -16,-6 -5,-4 -7,-9 -8,-15z"/>
   <path id="3" class="fil26" d="M-6008 10045l9 0c1,4 3,8 5,10 3,2 6,3 9,3 5,0 8,-1 11,-5 3,-3 5,-7 5,-12 0,-6 -2,-10 -4,-13 -3,-2 -7,-4 -12,-4 -3,0 -5,1 -7,2 -3,1 -5,3 -6,5l-8 -1 7 -37 36 0 0 8 -29 0 -4 20c4,-3 9,-5 14,-5 6,0 11,2 16,7 4,4 6,10 6,17 0,6 -2,12 -6,17 -4,6 -11,9 -19,9 -6,0 -12,-2 -16,-6 -4,-4 -6,-9 -7,-15z"/>
   <path id="4" class="fil26" d="M-5886 10036l0 -9 31 0 0 27c-4,4 -9,7 -14,9 -5,2 -11,3 -16,3 -7,0 -13,-2 -19,-5 -6,-3 -11,-7 -14,-13 -3,-6 -4,-13 -4,-20 0,-7 1,-13 4,-19 3,-7 8,-11 13,-14 6,-3 12,-5 19,-5 6,0 10,1 15,3 4,2 7,4 10,7 2,3 4,7 5,12l-9 2c-1,-3 -2,-6 -4,-8 -1,-3 -4,-4 -7,-5 -3,-2 -6,-2 -10,-2 -4,0 -8,0 -11,2 -3,1 -6,3 -8,5 -2,2 -3,5 -4,7 -2,5 -3,10 -3,15 0,6 1,12 3,16 3,5 6,8 10,10 4,2 9,3 14,3 4,0 8,-1 12,-2 4,-2 7,-4 9,-6l0 -13 -22 0z"/>
   <path id="5" class="fil26" d="M-5811 10064l-8 0 0 -57c-3,2 -5,5 -9,7 -3,2 -7,3 -9,4l0 -8c5,-3 9,-6 13,-9 4,-3 6,-7 8,-10l5 0 0 73z"/>
   <path id="6" class="fil26" d="M-5759 10064l0 -17 -32 0 0 -8 34 -47 7 0 0 47 10 0 0 8 -10 0 0 17 -9 0zm0 -25l0 -33 -23 33 23 0z"/>
   <path id="7" class="fil26" d="M-5730 10001l0 -8 47 0 0 6c-5,5 -10,12 -14,20 -5,8 -8,17 -11,25 -1,6 -3,13 -3,20l-9 0c0,-5 1,-12 3,-20 2,-9 5,-16 9,-24 4,-7 9,-14 13,-19l-35 0z"/>
   <path id="8" class="fil26" d="M-5643 10064l0 -72 27 0c6,0 10,0 14,2 3,1 6,4 8,7 1,3 2,6 2,9 0,3 0,6 -2,9 -2,3 -4,5 -8,7 5,1 8,3 10,6 3,3 4,7 4,11 0,4 -1,7 -2,10 -2,3 -3,5 -6,7 -2,1 -4,2 -7,3 -4,1 -8,1 -12,1l-28 0zm10 -42l15 0c5,0 8,0 10,-1 2,0 4,-2 5,-3 1,-2 2,-4 2,-7 0,-2 -1,-4 -2,-6 -1,-2 -3,-3 -5,-4 -2,-1 -6,-1 -11,-1l-14 0 0 22zm0 34l18 0c3,0 5,0 6,-1 3,0 4,-1 6,-1 1,-1 3,-3 4,-5 1,-1 1,-3 1,-6 0,-2 -1,-5 -2,-7 -1,-2 -3,-3 -6,-4 -2,-1 -6,-1 -11,-1l-16 0 0 25z"/>
   <path id="9" class="fil26" d="M-5577 10048l9 -1c0,4 2,7 4,9 2,1 4,2 8,2 2,0 5,0 7,-2 2,-1 4,-3 5,-5 1,-2 2,-5 3,-8 1,-4 2,-7 2,-11 0,0 0,-1 -1,-2 -1,3 -4,5 -7,7 -3,2 -6,3 -10,3 -6,0 -11,-2 -15,-7 -4,-4 -6,-10 -6,-17 0,-8 2,-13 6,-18 5,-4 10,-7 17,-7 4,0 9,2 12,4 4,3 7,6 9,11 2,5 3,12 3,20 0,10 -1,17 -3,23 -2,5 -5,9 -9,12 -4,3 -8,5 -14,5 -5,0 -10,-2 -14,-5 -3,-3 -5,-8 -6,-13zm36 -33c0,-5 -1,-9 -4,-12 -2,-3 -6,-4 -9,-4 -4,0 -8,1 -11,5 -3,3 -4,7 -4,12 0,5 1,9 4,11 3,3 6,5 10,5 4,0 8,-2 10,-5 3,-2 4,-6 4,-12z"/>
   <path id="10" class="fil26" d="M-5475 10056l0 8 -48 0c0,-2 0,-4 1,-6 1,-3 3,-6 6,-10 3,-3 7,-6 12,-10 7,-7 13,-12 16,-16 2,-4 4,-7 4,-11 0,-3 -1,-6 -4,-9 -3,-2 -6,-3 -10,-3 -4,0 -8,1 -10,4 -3,2 -4,6 -4,10l-9 -1c0,-7 3,-12 7,-15 4,-4 9,-6 16,-6 7,0 13,2 17,6 4,4 6,9 6,15 0,2 -1,5 -2,8 -1,3 -3,6 -6,9 -3,3 -7,7 -14,13 -5,4 -8,7 -10,9 -1,2 -3,3 -4,5l36 0z"/>
   <path id="11" class="fil26" d="M-6194 10243l5 -21 -9 0 0 -8 10 0 4 -18 -14 0 0 -7 15 0 5 -21 7 0 -4 21 15 0 5 -21 7 0 -4 21 8 0 0 7 -10 0 -3 18 13 0 0 8 -15 0 -4 21 -8 0 5 -21 -16 0 -4 21 -8 0zm14 -29l15 0 4 -18 -16 0 -3 18z"/>
   <polygon id="12" class="fil26" points="-6134,10242 -6134,10169 -6085,10169 -6085,10177 -6124,10177 -6124,10200 -6090,10200 -6090,10209 -6124,10209 -6124,10242 "/>
   <polygon id="13" class="fil26" points="-6072,10242 -6072,10169 -6023,10169 -6023,10177 -6062,10177 -6062,10200 -6028,10200 -6028,10209 -6062,10209 -6062,10242 "/>
   <path id="14" class="fil26" d="M-6012 10225l8 -1c1,4 2,7 4,9 2,2 5,2 8,2 3,0 5,0 7,-1 3,-2 4,-3 6,-5 1,-3 2,-5 3,-9 1,-4 1,-7 1,-11 0,0 0,-1 0,-2 -2,3 -4,5 -7,7 -3,2 -7,3 -10,3 -6,0 -11,-2 -15,-7 -5,-4 -7,-10 -7,-17 0,-7 2,-13 7,-18 4,-4 10,-7 16,-7 5,0 9,2 13,4 4,3 7,6 9,11 2,5 3,12 3,21 0,9 -1,16 -3,22 -2,5 -5,10 -9,12 -4,3 -9,5 -14,5 -6,0 -10,-2 -14,-5 -3,-3 -6,-8 -6,-13zm36 -32c0,-6 -1,-10 -4,-13 -3,-3 -6,-4 -10,-4 -4,0 -7,2 -10,5 -3,3 -5,7 -5,12 0,5 2,9 5,12 2,3 6,4 10,4 4,0 7,-1 10,-4 3,-3 4,-7 4,-12z"/>
   <path id="15" class="fil26" d="M-5957 10222l9 -1c1,5 3,9 5,11 2,2 5,3 9,3 4,0 8,-1 11,-4 3,-3 4,-7 4,-11 0,-4 -1,-7 -4,-10 -3,-3 -6,-4 -10,-4 -2,0 -4,0 -7,1l1 -8c1,0 2,0 2,0 4,0 7,-1 10,-3 3,-2 5,-5 5,-9 0,-3 -1,-6 -4,-8 -2,-2 -5,-3 -8,-3 -4,0 -7,1 -9,3 -2,2 -4,6 -4,10l-9 -2c1,-6 3,-10 7,-14 4,-3 9,-5 15,-5 4,0 7,1 11,3 3,2 6,4 7,7 2,3 3,6 3,9 0,4 -1,6 -3,9 -1,2 -4,5 -7,6 4,1 8,3 10,6 2,3 4,7 4,12 0,6 -3,12 -7,16 -5,5 -11,7 -18,7 -6,0 -12,-2 -16,-6 -4,-4 -7,-9 -7,-15z"/>
   <path id="16" class="fil26" d="M-5901 10222l10 0c0,4 2,8 5,10 2,2 5,3 9,3 4,0 8,-1 11,-4 3,-4 4,-8 4,-13 0,-5 -1,-9 -4,-12 -3,-3 -7,-5 -11,-5 -3,0 -6,1 -8,2 -2,2 -4,3 -6,5l-8 -1 7 -37 36 0 0 8 -29 0 -4 20c5,-3 9,-5 14,-5 6,0 12,3 16,7 4,4 7,10 7,17 0,6 -2,12 -6,17 -5,6 -11,9 -19,9 -7,0 -12,-2 -16,-6 -5,-3 -7,-8 -8,-15z"/>
   <path id="17" class="fil26" d="M-5789 10216l10 2c-2,8 -6,14 -11,19 -5,4 -12,6 -19,6 -8,0 -14,-2 -19,-5 -5,-3 -9,-8 -11,-14 -3,-6 -4,-12 -4,-19 0,-8 1,-15 4,-20 3,-6 7,-10 12,-13 6,-3 12,-4 18,-4 7,0 13,1 18,5 5,4 9,9 11,16l-10 2c-1,-5 -4,-9 -7,-12 -3,-2 -7,-3 -12,-3 -6,0 -10,1 -14,4 -4,3 -6,6 -8,11 -2,4 -2,9 -2,14 0,6 1,11 2,16 2,4 5,8 9,10 4,2 8,4 12,4 6,0 10,-2 14,-5 4,-3 6,-8 7,-14z"/>
   <path class="fil26" d="M-6191 10589l0 -73 33 0c6,0 11,1 14,2 4,1 6,4 8,7 2,3 3,7 3,11 0,5 -1,10 -5,13 -3,4 -8,6 -15,7 3,1 4,2 6,3 3,3 5,6 8,10l12 20 -12 0 -9 -15c-3,-5 -5,-8 -7,-10 -2,-3 -4,-4 -5,-5 -2,-1 -3,-2 -5,-2 -1,0 -2,0 -5,0l-11 0 0 32 -10 0zm10 -41l21 0c4,0 7,0 10,-1 2,-1 4,-2 6,-4 1,-2 1,-5 1,-7 0,-3 -1,-6 -3,-8 -3,-3 -7,-4 -12,-4l-23 0 0 24z"/>
   <path id="1" class="fil26" d="M-6074 10580l0 9 -48 0c0,-2 0,-4 1,-6 1,-4 3,-7 6,-10 2,-3 6,-7 11,-11 8,-6 14,-12 16,-15 3,-4 5,-8 5,-11 0,-4 -2,-7 -4,-9 -3,-2 -6,-4 -10,-4 -5,0 -8,2 -11,4 -2,3 -3,6 -3,11l-10 -1c1,-7 3,-12 7,-16 5,-3 10,-5 17,-5 7,0 13,2 17,6 4,4 6,8 6,14 0,3 -1,6 -2,9 -1,3 -3,5 -6,9 -3,3 -7,7 -14,12 -5,5 -9,8 -10,10 -2,1 -3,3 -4,4l36 0z"/>
   <path id="2" class="fil26" d="M-6018 10580l0 9 -48 0c0,-2 0,-4 1,-6 1,-4 3,-7 6,-10 3,-3 7,-7 12,-11 8,-6 13,-12 16,-15 3,-4 4,-8 4,-11 0,-4 -1,-7 -4,-9 -2,-2 -6,-4 -10,-4 -4,0 -7,2 -10,4 -3,3 -4,6 -4,11l-9 -1c1,-7 3,-12 7,-16 4,-3 10,-5 17,-5 7,0 12,2 16,6 4,4 6,8 6,14 0,3 0,6 -2,9 -1,3 -3,5 -5,9 -3,3 -8,7 -14,12 -6,5 -9,8 -11,10 -1,1 -2,3 -3,4l35 0z"/>
   <path id="3" class="fil26" d="M-6008 10553c0,-9 1,-15 3,-21 1,-5 4,-9 8,-12 3,-3 7,-4 13,-4 4,0 7,1 10,2 3,2 5,4 7,7 2,3 4,7 5,11 1,4 1,10 1,17 0,9 0,16 -2,21 -2,5 -5,9 -8,12 -4,3 -8,4 -13,4 -7,0 -13,-2 -17,-7 -5,-6 -7,-16 -7,-30zm9 0c0,12 2,20 4,24 3,4 7,6 11,6 4,0 7,-2 10,-6 3,-4 4,-12 4,-24 0,-12 -1,-20 -4,-24 -3,-4 -6,-6 -10,-6 -4,0 -8,2 -10,6 -3,4 -5,12 -5,24z"/>
   <path id="4" class="fil26" d="M-5886 10560l0 -8 31 0 0 27c-4,4 -9,6 -14,8 -5,2 -11,3 -16,3 -7,0 -13,-1 -19,-4 -6,-3 -11,-8 -14,-14 -3,-5 -4,-12 -4,-19 0,-7 1,-14 4,-20 3,-6 8,-11 13,-14 6,-3 12,-4 19,-4 6,0 10,1 15,3 4,1 7,4 10,7 2,3 4,7 5,12l-9 2c-1,-4 -2,-7 -4,-9 -1,-2 -4,-4 -7,-5 -3,-1 -6,-2 -10,-2 -4,0 -8,1 -11,2 -3,2 -6,3 -8,6 -2,2 -3,4 -4,7 -2,4 -3,9 -3,14 0,7 1,12 3,17 3,4 6,7 10,9 4,3 9,4 14,4 4,0 8,-1 12,-3 4,-1 7,-3 9,-5l0 -14 -22 0z"/>
   <path id="5" class="fil26" d="M-5830 10550c-4,-2 -7,-4 -9,-6 -1,-3 -2,-6 -2,-9 0,-6 2,-10 5,-14 4,-3 9,-5 16,-5 6,0 11,2 15,5 4,4 6,9 6,14 0,3 -1,6 -3,9 -2,2 -4,4 -8,6 5,1 8,3 10,7 3,3 4,7 4,11 0,6 -2,12 -7,16 -4,4 -10,6 -17,6 -7,0 -13,-2 -18,-6 -4,-4 -6,-10 -6,-16 0,-5 1,-9 3,-12 3,-3 6,-5 11,-6zm-2 -16c0,4 1,7 3,9 2,2 5,3 9,3 3,0 6,-1 8,-3 3,-2 4,-5 4,-8 0,-3 -1,-6 -4,-8 -2,-3 -5,-4 -8,-4 -4,0 -6,1 -9,3 -2,3 -3,5 -3,8zm-3 34c0,3 1,5 2,7 1,3 3,5 5,6 3,1 5,2 8,2 4,0 8,-1 10,-4 3,-3 5,-6 5,-11 0,-4 -2,-8 -5,-10 -3,-3 -6,-5 -10,-5 -5,0 -8,2 -11,5 -3,2 -4,6 -4,10z"/>
   <path id="6" class="fil26" d="M-5788 10570l9 -2c1,6 3,9 6,11 2,3 5,4 9,4 4,0 8,-2 10,-5 3,-3 5,-6 5,-10 0,-5 -2,-8 -4,-11 -3,-2 -6,-4 -11,-4 -1,0 -3,1 -6,1l1 -7c1,0 1,0 2,0 3,0 7,-1 10,-3 3,-2 4,-5 4,-9 0,-4 -1,-6 -3,-9 -2,-2 -5,-3 -8,-3 -4,0 -7,1 -9,4 -2,2 -4,5 -5,9l-9 -1c2,-6 4,-11 8,-14 4,-3 9,-5 14,-5 4,0 8,1 11,2 4,2 6,4 8,7 2,3 3,6 3,10 0,3 -1,6 -3,8 -2,3 -4,5 -7,6 4,1 7,4 10,7 2,3 3,7 3,11 0,7 -2,12 -7,17 -4,4 -10,6 -17,6 -7,0 -12,-2 -16,-6 -5,-3 -7,-8 -8,-14z"/>
   <path id="7" class="fil26" d="M-5700 10589l0 -73 28 0c5,0 10,1 13,2 3,2 6,4 8,7 2,3 3,6 3,10 0,3 -1,6 -3,9 -1,2 -4,5 -7,6 4,2 8,4 10,7 2,3 3,7 3,11 0,3 0,6 -2,9 -1,3 -3,6 -5,7 -2,2 -5,3 -8,4 -3,1 -7,1 -12,1l-28 0zm10 -42l16 0c4,0 7,-1 9,-1 2,-1 4,-2 6,-4 1,-1 1,-4 1,-6 0,-2 0,-5 -1,-6 -1,-2 -3,-4 -5,-4 -2,-1 -6,-1 -11,-1l-15 0 0 22zm0 33l18 0c3,0 6,0 7,0 2,0 4,-1 5,-2 2,-1 3,-2 4,-4 1,-2 1,-4 1,-6 0,-3 0,-5 -2,-7 -1,-2 -3,-4 -5,-4 -3,-1 -6,-2 -11,-2l-17 0 0 25z"/>
   <path id="8" class="fil26" d="M-5621 10550c-4,-2 -7,-4 -8,-6 -2,-3 -3,-6 -3,-9 0,-6 2,-10 6,-14 3,-3 9,-5 15,-5 6,0 11,2 15,5 4,4 6,9 6,14 0,3 -1,6 -3,9 -1,2 -4,4 -8,6 5,1 8,3 10,7 3,3 4,7 4,11 0,6 -2,12 -7,16 -4,4 -10,6 -17,6 -7,0 -13,-2 -17,-6 -5,-4 -7,-10 -7,-16 0,-5 1,-9 4,-12 2,-3 5,-5 10,-6zm-2 -16c0,4 1,7 3,9 3,2 5,3 9,3 4,0 6,-1 9,-3 2,-2 3,-5 3,-8 0,-3 -1,-6 -4,-8 -2,-3 -5,-4 -8,-4 -3,0 -6,1 -9,3 -2,3 -3,5 -3,8zm-3 34c0,3 1,5 2,7 1,3 3,5 5,6 3,1 5,2 8,2 4,0 8,-1 11,-4 2,-3 4,-6 4,-11 0,-4 -2,-8 -5,-10 -2,-3 -6,-5 -10,-5 -5,0 -8,2 -11,5 -2,2 -4,6 -4,10z"/>
   <path id="9" class="fil26" d="M-5578 10570l9 -2c1,6 2,9 5,11 2,3 5,4 9,4 4,0 8,-2 11,-5 2,-3 4,-6 4,-10 0,-5 -1,-8 -4,-11 -3,-2 -6,-4 -10,-4 -2,0 -4,1 -7,1l1 -7c1,0 1,0 2,0 4,0 7,-1 10,-3 3,-2 5,-5 5,-9 0,-4 -1,-6 -4,-9 -2,-2 -5,-3 -8,-3 -4,0 -7,1 -9,4 -2,2 -4,5 -4,9l-9 -1c1,-6 3,-11 7,-14 4,-3 9,-5 14,-5 4,0 8,1 11,2 4,2 6,4 8,7 2,3 3,6 3,10 0,3 -1,6 -3,8 -1,3 -4,5 -7,6 4,1 7,4 10,7 2,3 3,7 3,11 0,7 -2,12 -7,17 -4,4 -10,6 -17,6 -7,0 -12,-2 -16,-6 -4,-3 -7,-8 -7,-14z"/>
   <path id="10" class="fil26" d="M-6194 10767l5 -21 -9 0 0 -7 10 0 4 -18 -14 0 0 -8 15 0 5 -21 7 0 -4 21 15 0 5 -21 7 0 -4 21 8 0 0 8 -10 0 -3 18 13 0 0 7 -15 0 -4 21 -8 0 5 -21 -16 0 -4 21 -8 0zm14 -28l15 0 4 -18 -16 0 -3 18z"/>
   <path id="11" class="fil26" d="M-6134 10766l0 -73 25 0c5,0 10,1 13,1 4,1 7,3 10,6 4,3 7,7 9,12 2,5 3,11 3,17 0,6 -1,11 -2,15 -1,4 -3,8 -5,11 -2,2 -4,5 -7,6 -2,2 -5,3 -8,4 -4,1 -8,1 -12,1l-26 0zm9 -8l16 0c5,0 8,-1 11,-2 3,-1 5,-2 7,-3 2,-3 4,-6 5,-10 1,-4 2,-8 2,-14 0,-7 -1,-13 -4,-17 -2,-4 -5,-7 -9,-9 -3,-1 -7,-1 -12,-1l-16 0 0 56z"/>
   <path id="12" class="fil26" d="M-6028 10747l9 1c-1,6 -3,11 -7,14 -4,4 -9,5 -15,5 -7,0 -13,-2 -17,-7 -5,-4 -7,-11 -7,-20 0,-6 1,-11 3,-15 2,-4 5,-7 9,-10 4,-2 8,-3 12,-3 6,0 11,2 14,5 4,3 6,7 7,12l-8 1c-1,-3 -3,-6 -5,-8 -2,-1 -4,-2 -7,-2 -5,0 -9,1 -11,4 -3,4 -5,9 -5,16 0,7 2,12 5,15 2,3 6,5 10,5 4,0 7,-1 9,-3 2,-2 4,-6 4,-10z"/>
   <path id="13" class="fil26" d="M-6014 10747l10 -1c0,5 2,8 5,11 2,2 5,3 9,3 4,0 8,-2 11,-5 3,-3 4,-7 4,-13 0,-5 -1,-9 -4,-12 -3,-3 -7,-4 -11,-4 -3,0 -6,0 -8,2 -2,1 -4,3 -6,5l-8 -1 7 -38 36 0 0 9 -29 0 -4 19c5,-3 9,-4 14,-4 6,0 12,2 16,6 4,5 7,11 7,17 0,7 -2,13 -6,18 -5,5 -11,8 -19,8 -7,0 -12,-1 -16,-5 -5,-4 -7,-9 -8,-15z"/>
   <path id="14" class="fil26" d="M-5957 10747l9 -1c1,5 3,8 5,11 3,2 6,3 9,3 4,0 8,-1 11,-4 3,-3 4,-7 4,-11 0,-4 -1,-8 -4,-10 -3,-3 -6,-4 -10,-4 -2,0 -4,0 -6,1l1 -8c0,0 1,0 1,0 4,0 7,-1 10,-3 3,-2 5,-5 5,-9 0,-4 -1,-6 -3,-8 -3,-3 -6,-4 -9,-4 -4,0 -6,1 -9,4 -2,2 -4,5 -4,10l-9 -2c1,-6 3,-11 7,-14 4,-3 9,-5 15,-5 4,0 7,1 11,3 3,1 6,4 7,7 2,3 3,6 3,9 0,3 -1,6 -3,9 -1,2 -4,4 -7,6 4,1 8,3 10,6 2,3 4,7 4,12 0,6 -3,11 -7,16 -5,4 -11,6 -18,6 -6,0 -12,-2 -16,-5 -4,-4 -7,-9 -7,-15z"/>
   <path id="15" class="fil26" d="M-5901 10747l10 -1c0,5 2,8 5,11 2,2 5,3 9,3 4,0 8,-2 11,-5 3,-3 4,-7 4,-13 0,-5 -1,-9 -4,-12 -3,-3 -7,-4 -11,-4 -3,0 -6,0 -8,2 -2,1 -4,3 -5,5l-9 -1 7 -38 36 0 0 9 -29 0 -4 19c5,-3 9,-4 14,-4 6,0 12,2 16,6 4,5 7,11 7,17 0,7 -2,13 -6,18 -5,5 -11,8 -19,8 -7,0 -12,-1 -16,-5 -5,-4 -7,-9 -8,-15z"/>
   <path id="16" class="fil26" d="M-5844 10747l9 -1c1,5 3,8 5,11 3,2 6,3 9,3 4,0 8,-1 11,-4 3,-3 4,-7 4,-11 0,-4 -1,-8 -4,-10 -2,-3 -6,-4 -10,-4 -2,0 -4,0 -6,1l1 -8c0,0 1,0 1,0 4,0 7,-1 10,-3 3,-2 5,-5 5,-9 0,-4 -1,-6 -3,-8 -3,-3 -5,-4 -9,-4 -3,0 -6,1 -9,4 -2,2 -3,5 -4,10l-9 -2c1,-6 3,-11 7,-14 4,-3 9,-5 15,-5 4,0 7,1 11,3 3,1 6,4 7,7 2,3 3,6 3,9 0,3 -1,6 -2,9 -2,2 -5,4 -8,6 4,1 8,3 10,6 2,3 4,7 4,12 0,6 -3,11 -7,16 -5,4 -11,6 -18,6 -6,0 -12,-2 -16,-5 -4,-4 -6,-9 -7,-15z"/>
   <path class="fil26" d="M-6191 11114l0 -73 33 0c6,0 11,0 14,2 4,1 6,3 8,7 2,3 3,7 3,11 0,5 -1,9 -5,13 -3,3 -8,5 -15,6 3,2 4,3 6,4 3,3 5,6 8,10l12 20 -12 0 -9 -16c-3,-4 -5,-7 -7,-10 -2,-2 -4,-4 -5,-4 -2,-1 -3,-2 -5,-2 -1,-1 -2,-1 -5,-1l-11 0 0 33 -10 0zm10 -41l21 0c4,0 7,-1 10,-1 2,-1 4,-3 6,-5 1,-2 1,-4 1,-6 0,-4 -1,-7 -3,-9 -3,-2 -7,-3 -12,-3l-23 0 0 24z"/>
   <path id="1" class="fil26" d="M-6088 11114l-8 0 0 -57c-3,2 -5,4 -9,6 -3,2 -7,3 -9,4l0 -8c5,-3 9,-5 13,-9 4,-3 6,-6 8,-10l5 0 0 74z"/>
   <path id="2" class="fil26" d="M-6018 11059l-9 0c-1,-3 -2,-6 -3,-7 -3,-3 -6,-4 -9,-4 -3,0 -6,1 -8,2 -3,2 -5,5 -7,9 -1,4 -2,10 -2,17 2,-3 5,-6 8,-7 3,-2 6,-3 10,-3 6,0 11,2 15,7 4,4 6,10 6,17 0,4 -1,9 -3,13 -2,4 -4,7 -8,9 -3,2 -7,3 -12,3 -7,0 -13,-3 -18,-8 -5,-6 -7,-15 -7,-28 0,-14 3,-24 8,-30 4,-6 11,-9 18,-9 6,0 11,2 14,5 4,3 6,8 7,14zm-37 31c0,3 1,6 2,9 2,3 3,5 6,6 2,2 5,2 7,2 4,0 7,-1 10,-4 3,-3 4,-7 4,-13 0,-5 -1,-9 -4,-11 -3,-3 -6,-5 -10,-5 -4,0 -8,2 -10,5 -3,2 -5,6 -5,11z"/>
   <path id="3" class="fil26" d="M-6007 11050l0 -8 47 0 0 7c-5,5 -10,11 -14,19 -5,8 -8,17 -11,26 -1,6 -3,12 -3,20l-9 0c0,-6 1,-13 3,-21 2,-8 5,-16 9,-24 4,-7 9,-14 13,-19l-35 0z"/>
   <path id="4" class="fil26" d="M-5886 11085l0 -9 31 0 0 27c-4,4 -9,7 -14,9 -5,2 -11,3 -16,3 -7,0 -13,-2 -19,-5 -6,-3 -11,-7 -14,-13 -3,-6 -4,-12 -4,-19 0,-8 1,-14 4,-20 3,-6 8,-11 13,-14 6,-3 12,-4 19,-4 6,0 10,0 15,2 4,2 7,4 10,7 2,3 4,7 5,12l-9 3c-1,-4 -2,-7 -4,-9 -1,-2 -4,-4 -7,-5 -3,-2 -6,-2 -10,-2 -4,0 -8,0 -11,2 -3,1 -6,3 -8,5 -2,2 -3,5 -4,7 -2,5 -3,10 -3,15 0,6 1,12 3,16 3,5 6,8 10,10 4,2 9,3 14,3 4,0 8,-1 12,-2 4,-2 7,-4 9,-5l0 -14 -22 0z"/>
   <path id="5" class="fil26" d="M-5844 11094l9 -1c1,5 3,9 5,11 3,2 6,3 9,3 4,0 8,-1 11,-4 3,-3 4,-7 4,-11 0,-4 -1,-7 -4,-10 -3,-3 -6,-4 -10,-4 -2,0 -4,0 -6,1l1 -8c0,0 1,0 1,0 4,0 7,-1 10,-3 3,-2 5,-5 5,-9 0,-3 -1,-6 -3,-8 -3,-2 -6,-3 -9,-3 -4,0 -6,1 -9,3 -2,2 -4,6 -4,10l-9 -2c1,-6 3,-10 7,-14 4,-3 9,-5 15,-5 4,0 7,1 11,3 3,2 6,4 7,7 2,3 3,6 3,9 0,3 -1,6 -2,9 -2,2 -5,5 -8,6 4,1 8,3 10,6 2,3 4,7 4,12 0,6 -3,12 -7,16 -5,5 -11,7 -18,7 -6,0 -12,-2 -16,-6 -4,-4 -6,-9 -7,-15z"/>
   <path id="6" class="fil26" d="M-5741 11059l-9 0c-1,-3 -2,-6 -3,-7 -3,-3 -6,-4 -9,-4 -3,0 -6,1 -8,2 -3,2 -5,5 -7,9 -1,4 -2,10 -2,17 2,-3 5,-6 8,-7 3,-2 6,-3 10,-3 6,0 11,2 15,7 4,4 6,10 6,17 0,4 -1,9 -3,13 -2,4 -4,7 -8,9 -3,2 -7,3 -12,3 -7,0 -13,-3 -18,-8 -5,-6 -7,-15 -7,-28 0,-14 3,-24 8,-30 4,-6 11,-9 18,-9 6,0 11,2 14,5 4,3 6,8 7,14zm-37 31c0,3 1,6 2,9 2,3 3,5 6,6 2,2 5,2 7,2 4,0 7,-1 10,-4 3,-3 4,-7 4,-13 0,-5 -1,-9 -4,-11 -3,-3 -6,-5 -10,-5 -4,0 -8,2 -10,5 -3,2 -5,6 -5,11z"/>
   <path id="7" class="fil26" d="M-5700 11114l0 -73 28 0c5,0 10,1 13,2 3,1 6,4 8,7 2,3 3,6 3,9 0,3 -1,6 -3,9 -1,3 -4,5 -7,7 4,1 8,3 10,6 2,4 3,7 3,11 0,4 0,7 -2,10 -1,3 -3,5 -5,7 -2,1 -5,3 -8,3 -3,1 -7,2 -12,2l-28 0zm10 -43l16 0c4,0 7,0 9,0 2,-1 4,-2 6,-4 1,-2 1,-4 1,-6 0,-3 0,-5 -1,-7 -1,-2 -3,-3 -5,-4 -2,0 -6,-1 -11,-1l-15 0 0 22zm0 34l18 0c3,0 6,0 7,0 2,-1 4,-1 5,-2 2,-1 3,-3 4,-4 1,-2 1,-4 1,-7 0,-2 0,-5 -2,-7 -1,-2 -3,-3 -5,-4 -3,-1 -6,-1 -11,-1l-17 0 0 25z"/>
   <path id="8" class="fil26" d="M-5634 11097l9 -1c1,4 2,7 4,9 2,2 5,2 8,2 3,0 5,0 7,-1 2,-2 4,-3 5,-5 2,-3 3,-5 4,-9 1,-4 1,-7 1,-11 0,0 0,-1 0,-2 -2,3 -4,5 -7,7 -3,2 -7,3 -10,3 -6,0 -11,-2 -16,-7 -4,-4 -6,-10 -6,-17 0,-7 2,-13 7,-18 4,-4 9,-7 16,-7 5,0 9,2 13,4 4,3 7,6 9,11 2,5 3,12 3,21 0,9 -1,16 -3,22 -2,5 -5,10 -9,12 -4,3 -9,5 -14,5 -6,0 -10,-2 -14,-5 -4,-3 -6,-8 -7,-13zm37 -32c0,-6 -1,-10 -4,-13 -3,-3 -6,-4 -10,-4 -4,0 -7,1 -10,5 -3,3 -5,7 -5,12 0,5 2,9 4,12 3,2 7,4 11,4 4,0 7,-2 10,-4 3,-3 4,-7 4,-12z"/>
   <path id="9" class="fil26" d="M-5578 11050l0 -8 47 0 0 7c-4,5 -9,11 -14,19 -4,8 -8,17 -10,26 -2,6 -3,12 -4,20l-9 0c0,-6 2,-13 4,-21 2,-8 5,-16 9,-24 4,-7 8,-14 13,-19l-36 0z"/>
   <path id="10" class="fil26" d="M-6194 11292l5 -21 -9 0 0 -8 10 0 4 -18 -14 0 0 -7 15 0 5 -21 7 0 -4 21 15 0 5 -21 7 0 -4 21 8 0 0 7 -10 0 -3 18 13 0 0 8 -15 0 -4 21 -8 0 5 -21 -16 0 -4 21 -8 0zm14 -29l15 0 4 -18 -16 0 -3 18z"/>
   <path id="11" class="fil26" d="M-6142 11291l28 -73 10 0 30 73 -11 0 -9 -22 -30 0 -8 22 -10 0zm21 -30l24 0 -7 -20c-2,-6 -4,-12 -5,-16 -1,5 -3,10 -4,15l-8 21z"/>
   <path id="12" class="fil26" d="M-6070 11227l0 -8 47 0 0 7c-4,5 -9,11 -13,19 -5,9 -8,17 -11,26 -2,6 -3,13 -3,20l-9 0c0,-6 1,-13 3,-21 2,-8 5,-16 9,-24 4,-7 8,-13 13,-19l-36 0z"/>
   <path id="13" class="fil26" d="M-5967 11282l0 9 -48 0c0,-2 0,-4 1,-6 1,-4 3,-7 6,-10 3,-3 7,-7 12,-11 8,-7 13,-12 16,-16 3,-3 4,-7 4,-10 0,-4 -1,-7 -4,-9 -2,-3 -6,-4 -10,-4 -4,0 -7,1 -10,4 -3,3 -4,6 -4,11l-9 -1c0,-7 3,-12 7,-16 4,-4 10,-5 16,-5 7,0 13,2 17,5 4,4 6,9 6,15 0,3 0,6 -2,8 -1,3 -3,6 -6,9 -2,4 -7,8 -13,13 -6,5 -9,8 -11,9 -1,2 -2,4 -3,5l35 0z"/>
   <path id="14" class="fil26" d="M-5928 11291l0 -18 -32 0 0 -8 33 -47 8 0 0 47 9 0 0 8 -9 0 0 18 -9 0zm0 -26l0 -33 -23 33 23 0z"/>
   <path id="15" class="fil26" d="M-5854 11236l-9 0c-1,-3 -2,-6 -3,-7 -3,-3 -6,-4 -9,-4 -3,0 -6,1 -8,2 -3,2 -5,5 -6,9 -2,4 -3,10 -3,17 2,-3 5,-6 8,-7 3,-2 6,-3 10,-3 6,0 11,3 15,7 4,4 6,10 6,17 0,5 -1,9 -3,13 -2,4 -4,7 -8,9 -3,2 -7,3 -12,3 -7,0 -13,-3 -18,-8 -5,-6 -7,-15 -7,-27 0,-14 3,-25 8,-31 4,-6 11,-8 18,-8 6,0 11,1 14,4 4,4 6,8 7,14zm-37 31c0,3 1,6 2,9 2,3 3,5 6,6 2,2 5,3 7,3 4,0 7,-2 10,-5 3,-3 4,-7 4,-12 0,-5 -1,-9 -4,-12 -3,-3 -6,-5 -10,-5 -4,0 -8,2 -10,5 -3,3 -5,6 -5,11z"/>
   <path id="16" class="fil26" d="M-5810 11291l-9 0 0 -57c-2,2 -5,4 -9,6 -3,2 -6,4 -9,5l0 -9c5,-2 9,-5 13,-9 4,-3 6,-6 8,-9l6 0 0 73z"/>
   <rect class="fil0" transform="matrix(4.3254E-16 -0.0163318 0.0479145 1.26899E-15 -7402.09 11393.9)" width="27940" height="21590"/>
   <rect class="fil27" transform="matrix(4.3254E-16 -0.0163318 0.0479145 1.26899E-15 -7402.09 10869.3)" width="27940" height="21590"/>
   <rect class="fil28" transform="matrix(4.3254E-16 -0.0163318 0.0479145 1.26899E-15 -7402.09 10344.8)" width="27940" height="21590"/>
   <rect class="fil29" transform="matrix(4.3254E-16 -0.0163318 0.0479145 1.26899E-15 -7402.09 9820.16)" width="27940" height="21590"/>
   <path class="fil26" d="M-7330 9540l0 -73 32 0c7,0 12,1 15,2 3,1 6,4 8,7 2,3 3,7 3,11 0,5 -2,9 -5,13 -3,3 -8,6 -15,7 2,1 4,2 5,3 3,3 6,6 8,10l13 20 -12 0 -10 -15c-3,-5 -5,-8 -7,-10 -1,-3 -3,-4 -5,-5 -1,-1 -2,-2 -4,-2 -1,0 -3,-1 -5,-1l-11 0 0 33 -10 0zm10 -41l20 0c5,0 8,0 11,-1 2,-1 4,-3 5,-5 1,-2 2,-4 2,-6 0,-4 -1,-6 -4,-9 -2,-2 -6,-3 -11,-3l-23 0 0 24z"/>
   <path id="1" class="fil26" d="M-7247 9500c-3,-1 -6,-3 -8,-5 -2,-3 -3,-6 -3,-10 0,-5 2,-9 6,-13 4,-3 9,-5 15,-5 7,0 12,2 16,5 3,4 5,8 5,14 0,3 0,6 -2,9 -2,2 -5,4 -8,5 4,2 8,4 10,7 2,4 3,7 3,12 0,6 -2,11 -6,16 -5,4 -10,6 -18,6 -7,0 -13,-2 -17,-6 -4,-5 -7,-10 -7,-16 0,-5 2,-9 4,-12 2,-3 6,-6 10,-7zm-1 -15c0,4 1,6 3,9 2,2 5,3 9,3 3,0 6,-1 8,-3 2,-3 3,-5 3,-8 0,-4 -1,-6 -3,-9 -2,-2 -5,-3 -9,-3 -3,0 -6,1 -8,3 -2,2 -3,5 -3,8zm-3 34c0,2 0,5 1,7 2,3 3,4 6,6 2,1 5,2 7,2 5,0 8,-2 11,-4 3,-3 4,-7 4,-11 0,-4 -1,-8 -4,-11 -3,-2 -6,-4 -11,-4 -4,0 -8,2 -10,4 -3,3 -4,7 -4,11z"/>
   <path id="2" class="fil26" d="M-7170 9540l-9 0 0 -57c-2,2 -5,4 -9,6 -3,2 -6,4 -9,5l0 -9c5,-2 9,-5 13,-9 4,-3 6,-6 8,-9l6 0 0 73z"/>
   <path id="3" class="fil26" d="M-7081 9511l0 -8 30 0 0 27c-4,3 -9,6 -14,8 -5,2 -11,3 -16,3 -7,0 -13,-2 -19,-5 -6,-3 -11,-7 -14,-13 -2,-6 -4,-12 -4,-19 0,-7 1,-14 4,-20 3,-6 8,-11 13,-14 6,-3 12,-4 19,-4 6,0 10,1 15,2 4,2 7,4 10,7 2,4 4,7 5,12l-8 3c-2,-4 -3,-7 -5,-9 -1,-2 -3,-4 -6,-5 -3,-1 -7,-2 -10,-2 -5,0 -9,1 -12,2 -3,1 -6,3 -8,5 -2,3 -3,5 -4,8 -2,4 -3,9 -3,14 0,7 1,12 3,17 3,4 6,7 10,9 4,2 9,3 14,3 4,0 8,0 12,-2 4,-2 7,-3 9,-5l0 -14 -21 0z"/>
   <path id="4" class="fil26" d="M-7006 9540l-9 0 0 -57c-3,2 -5,4 -9,6 -3,2 -7,4 -9,5l0 -9c5,-2 9,-5 13,-9 4,-3 6,-6 8,-9l6 0 0 73z"/>
   <path id="5" class="fil26" d="M-6983 9504c0,-9 0,-16 2,-21 2,-5 5,-9 8,-12 4,-3 8,-4 13,-4 4,0 8,0 11,2 2,2 5,4 7,7 2,3 3,6 4,11 1,4 2,10 2,17 0,8 -1,15 -3,21 -1,5 -4,9 -8,12 -3,3 -7,4 -13,4 -7,0 -12,-2 -16,-7 -5,-7 -7,-16 -7,-30zm9 0c0,12 1,20 4,24 3,4 6,6 10,6 4,0 8,-2 11,-6 2,-4 4,-12 4,-24 0,-12 -2,-20 -4,-24 -3,-4 -7,-6 -11,-6 -4,0 -7,2 -10,5 -3,5 -4,13 -4,25z"/>
   <path id="6" class="fil26" d="M-6880 9531l0 9 -48 0c0,-2 0,-4 1,-6 1,-4 3,-7 6,-10 3,-3 6,-7 11,-11 8,-7 14,-12 16,-15 3,-4 5,-8 5,-11 0,-4 -2,-7 -4,-9 -3,-3 -6,-4 -10,-4 -4,0 -8,1 -10,4 -3,3 -4,6 -4,11l-9 -1c0,-7 3,-12 7,-16 4,-4 9,-5 16,-5 7,0 13,2 17,6 4,3 6,8 6,14 0,3 -1,6 -2,9 -1,2 -3,5 -6,8 -3,4 -7,8 -14,13 -5,5 -8,8 -10,9 -2,2 -3,4 -4,5l36 0z"/>
   <path id="7" class="fil26" d="M-6839 9540l0 -73 27 0c6,0 10,1 14,2 3,2 6,4 8,7 2,3 2,6 2,10 0,3 0,6 -2,8 -2,3 -4,5 -8,7 5,1 8,4 10,7 3,3 4,6 4,11 0,3 -1,6 -2,9 -2,3 -3,5 -5,7 -3,2 -5,3 -8,4 -4,0 -8,1 -12,1l-28 0zm10 -42l15 0c5,0 8,-1 10,-1 2,-1 4,-2 5,-4 1,-2 2,-4 2,-6 0,-3 -1,-5 -2,-7 -1,-1 -3,-3 -5,-3 -2,-1 -6,-1 -11,-1l-14 0 0 22zm0 33l18 0c3,0 5,0 6,0 3,0 4,-1 6,-2 1,-1 3,-2 4,-4 1,-2 1,-4 1,-6 0,-3 -1,-5 -2,-7 -1,-2 -3,-4 -6,-5 -2,0 -6,-1 -10,-1l-17 0 0 25z"/>
   <path id="8" class="fil26" d="M-6741 9540l-9 0 0 -57c-2,2 -5,4 -8,6 -4,2 -7,4 -10,5l0 -9c5,-2 10,-5 14,-9 3,-3 6,-6 8,-9l5 0 0 73z"/>
   <path id="9" class="fil26" d="M-6671 9531l0 9 -48 0c0,-2 0,-4 1,-6 1,-4 3,-7 6,-10 3,-3 7,-7 12,-11 8,-7 13,-12 16,-15 2,-4 4,-8 4,-11 0,-4 -1,-7 -4,-9 -2,-3 -6,-4 -10,-4 -4,0 -8,1 -10,4 -3,3 -4,6 -4,11l-9 -1c0,-7 3,-12 7,-16 4,-4 9,-5 16,-5 7,0 13,2 17,6 4,3 6,8 6,14 0,3 -1,6 -2,9 -1,2 -3,5 -6,8 -2,4 -7,8 -13,13 -6,5 -9,8 -11,9 -1,2 -3,4 -4,5l36 0z"/>
   <path id="10" class="fil26" d="M-6647 9500c-4,-1 -7,-3 -9,-5 -1,-3 -2,-6 -2,-10 0,-5 2,-9 5,-13 4,-3 9,-5 16,-5 6,0 11,2 15,5 4,4 6,8 6,14 0,3 -1,6 -3,9 -2,2 -4,4 -8,5 4,2 8,4 10,7 2,4 4,7 4,12 0,6 -3,11 -7,16 -4,4 -10,6 -17,6 -8,0 -13,-2 -18,-6 -4,-5 -6,-10 -6,-16 0,-5 1,-9 3,-12 3,-3 6,-6 11,-7zm-2 -15c0,4 1,6 3,9 2,2 5,3 9,3 3,0 6,-1 8,-3 2,-3 4,-5 4,-8 0,-4 -2,-6 -4,-9 -2,-2 -5,-3 -8,-3 -4,0 -7,1 -9,3 -2,2 -3,5 -3,8zm-3 34c0,2 0,5 2,7 1,3 3,4 5,6 2,1 5,2 8,2 4,0 8,-2 10,-4 3,-3 4,-7 4,-11 0,-4 -1,-8 -4,-11 -3,-2 -6,-4 -11,-4 -4,0 -7,2 -10,4 -3,3 -4,7 -4,11z"/>
   <path id="11" class="fil26" d="M-7333 9718l4 -21 -8 0 0 -7 10 0 3 -18 -13 0 0 -8 15 0 4 -21 8 0 -5 21 16 0 4 -21 8 0 -5 21 9 0 0 8 -10 0 -4 18 14 0 0 7 -15 0 -5 21 -7 0 4 -21 -15 0 -5 21 -7 0zm13 -28l16 0 3 -18 -15 0 -4 18z"/>
   <path id="12" class="fil26" d="M-7277 9698l9 -1c1,5 2,8 5,10 2,3 5,4 9,4 4,0 8,-2 11,-5 3,-3 4,-8 4,-13 0,-5 -1,-9 -4,-12 -3,-3 -6,-4 -11,-4 -3,0 -6,0 -8,2 -2,1 -4,3 -5,5l-9 -1 7 -38 36 0 0 9 -29 0 -3 19c4,-3 9,-4 13,-4 7,0 12,2 16,6 5,5 7,10 7,17 0,7 -2,13 -6,17 -5,6 -11,9 -19,9 -7,0 -12,-2 -16,-5 -4,-4 -7,-9 -7,-15z"/>
   <path id="13" class="fil26" d="M-7187 9717l-9 0 0 -57c-2,2 -5,4 -9,6 -3,2 -6,4 -9,5l0 -9c5,-2 9,-5 13,-8 4,-4 6,-7 8,-10l6 0 0 73z"/>
   <path id="14" class="fil26" d="M-7118 9662l-9 1c0,-4 -2,-6 -3,-8 -2,-3 -5,-4 -9,-4 -3,0 -5,1 -8,3 -2,2 -5,5 -6,9 -2,4 -3,9 -3,16 2,-3 5,-5 8,-7 3,-1 7,-2 10,-2 6,0 11,2 15,6 4,5 6,10 6,17 0,5 -1,9 -2,13 -2,4 -5,7 -9,9 -3,2 -7,3 -11,3 -8,0 -14,-3 -19,-8 -4,-5 -7,-15 -7,-27 0,-14 3,-24 8,-31 5,-5 11,-8 19,-8 5,0 10,2 14,5 3,3 6,7 6,13zm-36 31c0,3 0,6 2,9 1,3 3,5 5,7 2,1 5,2 8,2 3,0 7,-2 9,-5 3,-3 4,-7 4,-12 0,-5 -1,-9 -4,-12 -2,-3 -6,-4 -10,-4 -4,0 -7,1 -10,4 -3,3 -4,7 -4,11z"/>
   <path id="15" class="fil26" d="M-7061 9662l-9 1c-1,-4 -2,-6 -3,-8 -3,-3 -6,-4 -9,-4 -3,0 -6,1 -8,3 -3,2 -5,5 -7,9 -1,4 -2,9 -2,16 2,-3 5,-5 8,-7 3,-1 6,-2 9,-2 6,0 12,2 16,6 4,5 6,10 6,17 0,5 -1,9 -3,13 -2,4 -5,7 -8,9 -4,2 -7,3 -12,3 -7,0 -13,-3 -18,-8 -5,-5 -7,-15 -7,-27 0,-14 3,-24 8,-31 4,-5 10,-8 18,-8 6,0 11,2 14,5 4,3 6,7 7,13zm-37 31c0,3 1,6 2,9 1,3 3,5 6,7 2,1 4,2 7,2 4,0 7,-2 10,-5 3,-3 4,-7 4,-12 0,-5 -1,-9 -4,-12 -3,-3 -6,-4 -10,-4 -4,0 -8,1 -11,4 -2,3 -4,7 -4,11z"/>
   <path id="16" class="fil26" d="M-7037 9678c-4,-2 -7,-4 -9,-6 -1,-3 -2,-6 -2,-9 0,-6 2,-10 5,-14 4,-3 9,-5 16,-5 6,0 11,2 15,5 4,4 6,9 6,14 0,3 -1,6 -3,9 -2,2 -4,4 -8,6 4,1 8,3 10,7 2,3 4,7 4,11 0,6 -3,12 -7,16 -4,4 -10,6 -17,6 -7,0 -13,-2 -18,-6 -4,-4 -6,-10 -6,-16 0,-5 1,-9 3,-12 3,-3 6,-5 11,-6zm-2 -16c0,4 1,7 3,9 2,2 5,3 9,3 3,0 6,-1 8,-3 2,-2 4,-5 4,-8 0,-3 -2,-6 -4,-8 -2,-3 -5,-4 -8,-4 -4,0 -7,1 -9,4 -2,2 -3,4 -3,7zm-3 34c0,3 1,5 2,7 1,3 3,5 5,6 2,1 5,2 8,2 4,0 8,-1 10,-4 3,-3 5,-6 5,-11 0,-4 -2,-8 -5,-10 -3,-3 -6,-5 -11,-5 -4,0 -7,2 -10,5 -3,2 -4,6 -4,10z"/>
   <path id="17" class="fil26" d="M-6995 9681c0,-9 1,-15 3,-21 2,-5 4,-9 8,-12 3,-3 8,-4 13,-4 4,0 7,1 10,2 3,2 6,4 8,7 2,3 3,7 4,11 1,4 2,10 2,17 0,9 -1,16 -3,21 -2,5 -4,9 -8,12 -3,3 -8,4 -13,4 -7,0 -12,-2 -16,-7 -5,-6 -8,-16 -8,-30zm10 0c0,12 1,20 4,24 3,4 6,6 10,6 4,0 8,-2 10,-6 3,-4 5,-12 5,-24 0,-12 -2,-20 -5,-24 -2,-4 -6,-6 -10,-6 -4,0 -7,2 -10,6 -3,4 -4,12 -4,24z"/>
   <path class="fil26" d="M-7330 10064l0 -72 32 0c7,0 12,0 15,2 3,1 6,3 8,6 2,4 3,7 3,11 0,6 -2,10 -5,14 -3,3 -8,5 -15,6 2,1 4,3 5,4 3,2 6,6 8,10l13 19 -12 0 -10 -15c-3,-4 -5,-7 -7,-10 -1,-2 -3,-4 -5,-5 -1,-1 -2,-1 -4,-2 -1,0 -3,0 -5,0l-11 0 0 32 -10 0zm10 -40l20 0c5,0 8,-1 11,-2 2,-1 4,-2 5,-4 1,-2 2,-4 2,-7 0,-3 -1,-6 -4,-8 -2,-2 -6,-3 -11,-3l-23 0 0 24z"/>
   <path id="1" class="fil26" d="M-7214 10009l-9 1c-1,-3 -2,-6 -3,-8 -3,-2 -6,-3 -9,-3 -3,0 -6,0 -8,2 -3,2 -5,5 -6,9 -2,4 -3,10 -3,17 2,-3 5,-6 8,-7 3,-2 6,-3 10,-3 6,0 11,2 15,7 4,4 6,10 6,17 0,4 -1,9 -3,12 -2,4 -4,7 -8,9 -3,3 -7,4 -12,4 -7,0 -13,-3 -18,-9 -4,-5 -7,-14 -7,-27 0,-14 3,-24 8,-30 5,-6 11,-9 18,-9 6,0 11,2 14,5 4,3 6,8 7,13zm-37 32c0,3 1,6 2,9 2,2 4,5 6,6 2,2 5,2 7,2 4,0 7,-1 10,-4 3,-3 4,-7 4,-13 0,-5 -1,-9 -4,-12 -3,-2 -6,-4 -10,-4 -4,0 -8,2 -10,4 -3,3 -5,7 -5,12z"/>
   <path id="2" class="fil26" d="M-7170 10064l-9 0 0 -57c-2,2 -5,5 -9,7 -3,2 -6,3 -9,4l0 -8c5,-3 9,-6 13,-9 4,-3 6,-7 8,-10l6 0 0 73z"/>
   <path id="3" class="fil26" d="M-7081 10036l0 -9 30 0 0 27c-4,4 -9,7 -14,9 -5,2 -11,3 -16,3 -7,0 -13,-2 -19,-5 -6,-3 -11,-7 -14,-13 -2,-6 -4,-13 -4,-20 0,-7 1,-13 4,-19 3,-7 8,-11 13,-14 6,-3 12,-5 19,-5 6,0 10,1 15,3 4,2 7,4 10,7 2,3 4,7 5,12l-8 2c-2,-3 -3,-6 -5,-8 -1,-3 -3,-4 -6,-5 -3,-2 -7,-2 -10,-2 -5,0 -9,0 -12,2 -3,1 -6,3 -8,5 -2,2 -3,5 -4,7 -2,5 -3,10 -3,15 0,6 1,12 3,16 3,5 6,8 10,10 4,2 9,3 14,3 4,0 8,-1 12,-2 4,-2 7,-4 9,-6l0 -13 -21 0z"/>
   <path id="4" class="fil26" d="M-7039 10001l0 -8 47 0 0 6c-5,5 -10,12 -14,20 -5,8 -8,17 -11,25 -2,6 -3,13 -3,20l-9 0c0,-5 1,-12 3,-20 2,-9 5,-16 9,-24 4,-7 9,-14 13,-19l-35 0z"/>
   <path id="5" class="fil26" d="M-6983 10001l0 -8 47 0 0 6c-4,5 -9,12 -14,20 -4,8 -8,17 -10,25 -2,6 -3,13 -4,20l-9 0c0,-5 1,-12 4,-20 2,-9 5,-16 9,-24 4,-7 8,-14 13,-19l-36 0z"/>
   <path id="6" class="fil26" d="M-6896 10064l0 -72 28 0c5,0 10,0 13,2 4,1 6,4 8,7 2,3 3,6 3,9 0,3 -1,6 -3,9 -1,3 -4,5 -7,7 4,1 8,3 10,6 2,3 4,7 4,11 0,4 -1,7 -3,10 -1,3 -3,5 -5,7 -2,1 -5,2 -8,3 -3,1 -7,1 -12,1l-28 0zm10 -42l16 0c4,0 7,0 9,-1 3,0 4,-2 6,-3 1,-2 1,-4 1,-7 0,-2 0,-4 -1,-6 -1,-2 -3,-3 -5,-4 -2,-1 -6,-1 -11,-1l-15 0 0 22zm0 34l18 0c3,0 6,0 7,-1 2,0 4,-1 5,-1 2,-1 3,-3 4,-5 1,-1 2,-3 2,-6 0,-2 -1,-5 -3,-7 -1,-2 -3,-3 -5,-4 -3,-1 -6,-1 -11,-1l-17 0 0 25z"/>
   <path id="7" class="fil26" d="M-6830 10048l9 -1c1,4 2,7 4,9 2,1 5,2 8,2 3,0 5,0 7,-2 2,-1 4,-3 5,-5 2,-2 3,-5 4,-8 1,-4 1,-7 1,-11 0,0 0,-1 0,-2 -2,3 -4,5 -7,7 -3,2 -7,3 -10,3 -6,0 -11,-2 -16,-7 -4,-4 -6,-10 -6,-17 0,-8 2,-13 7,-18 4,-4 9,-7 16,-7 5,0 9,2 13,4 4,3 7,6 9,11 2,5 3,12 3,20 0,10 -1,17 -3,23 -2,5 -5,9 -9,12 -4,3 -9,5 -14,5 -6,0 -10,-2 -14,-5 -4,-3 -6,-8 -7,-13zm37 -33c0,-5 -1,-9 -4,-12 -3,-3 -6,-4 -10,-4 -4,0 -7,1 -10,5 -3,3 -5,7 -5,12 0,5 2,9 4,11 3,3 7,5 11,5 4,0 7,-2 10,-5 3,-2 4,-6 4,-12z"/>
   <path id="8" class="fil26" d="M-6774 10001l0 -8 47 0 0 6c-4,5 -9,12 -13,20 -5,8 -9,17 -11,25 -2,6 -3,13 -3,20l-10 0c0,-5 2,-12 4,-20 2,-9 5,-16 9,-24 4,-7 8,-14 13,-19l-36 0z"/>
   <path id="9" class="fil26" d="M-7333 10243l4 -21 -8 0 0 -8 10 0 3 -18 -13 0 0 -7 15 0 4 -21 8 0 -5 21 16 0 4 -21 8 0 -5 21 9 0 0 7 -10 0 -4 18 14 0 0 8 -15 0 -5 21 -7 0 4 -21 -15 0 -5 21 -7 0zm13 -29l16 0 3 -18 -15 0 -4 18z"/>
   <path id="10" class="fil26" d="M-7277 10222l9 -1c1,5 2,9 5,11 2,2 5,3 9,3 4,0 8,-1 11,-4 2,-3 4,-7 4,-11 0,-4 -1,-7 -4,-10 -3,-3 -6,-4 -10,-4 -2,0 -4,0 -7,1l1 -8c1,0 1,0 2,0 4,0 7,-1 10,-3 3,-2 5,-5 5,-9 0,-3 -1,-6 -4,-8 -2,-2 -5,-3 -8,-3 -4,0 -7,1 -9,3 -2,2 -4,6 -4,10l-9 -2c1,-6 3,-10 7,-14 4,-3 9,-5 15,-5 3,0 7,1 10,3 4,2 6,4 8,7 2,3 3,6 3,9 0,4 -1,6 -3,9 -1,2 -4,5 -7,6 4,1 7,3 10,6 2,3 3,7 3,12 0,6 -2,12 -7,16 -4,5 -10,7 -17,7 -7,0 -12,-2 -16,-6 -4,-4 -7,-9 -7,-15z"/>
   <path id="11" class="fil26" d="M-7217 10242l0 -73 25 0c6,0 10,0 13,1 4,1 8,3 11,5 3,3 6,7 8,12 2,6 3,11 3,18 0,5 -1,10 -2,14 -1,5 -3,8 -5,11 -2,3 -4,5 -7,7 -2,1 -5,3 -8,3 -4,1 -8,2 -12,2l-26 0zm9 -9l16 0c5,0 9,0 11,-1 3,-1 5,-2 7,-4 2,-2 4,-5 5,-9 1,-4 2,-9 2,-14 0,-8 -1,-14 -4,-18 -2,-4 -5,-7 -9,-8 -2,-1 -7,-2 -12,-2l-16 0 0 56z"/>
   <path id="12" class="fil26" d="M-7119 10242l0 -18 -31 0 0 -8 33 -47 7 0 0 47 10 0 0 8 -10 0 0 18 -9 0zm0 -26l0 -33 -23 33 23 0z"/>
   <path id="13" class="fil26" d="M-7087 10242l0 -73 25 0c6,0 10,0 13,1 4,1 8,3 10,5 4,3 7,7 9,12 2,6 3,11 3,18 0,5 -1,10 -2,14 -1,5 -3,8 -5,11 -2,3 -4,5 -7,7 -2,1 -5,3 -8,3 -4,1 -8,2 -12,2l-26 0zm9 -9l16 0c5,0 9,0 11,-1 3,-1 5,-2 7,-4 2,-2 4,-5 5,-9 1,-4 2,-9 2,-14 0,-8 -1,-14 -4,-18 -2,-4 -5,-7 -9,-8 -2,-1 -7,-2 -12,-2l-16 0 0 56z"/>
   <path id="14" class="fil26" d="M-6971 10187l-9 0c-1,-3 -2,-6 -3,-7 -3,-3 -6,-4 -9,-4 -3,0 -6,1 -8,2 -3,2 -5,5 -6,9 -2,4 -3,10 -3,17 2,-3 5,-6 8,-7 3,-2 6,-3 10,-3 6,0 11,3 15,7 4,4 6,10 6,17 0,4 -1,9 -3,13 -2,4 -4,7 -8,9 -3,2 -7,3 -11,3 -8,0 -14,-3 -19,-8 -4,-6 -7,-15 -7,-27 0,-15 3,-25 8,-31 5,-6 11,-9 18,-9 6,0 11,2 15,5 3,4 5,8 6,14zm-37 31c0,3 1,6 2,9 2,3 4,5 6,6 2,2 5,2 7,2 4,0 7,-1 10,-4 3,-3 4,-7 4,-13 0,-5 -1,-9 -4,-11 -2,-3 -6,-5 -10,-5 -4,0 -7,2 -10,5 -3,2 -5,6 -5,11z"/>
   <path id="15" class="fil26" d="M-6927 10242l-9 0 0 -57c-2,2 -5,4 -9,6 -3,2 -6,3 -9,4l0 -8c5,-3 9,-5 13,-9 4,-3 6,-6 8,-10l6 0 0 74z"/>
   <path class="fil26" d="M-7330 10589l0 -73 32 0c7,0 12,1 15,2 3,1 6,4 8,7 2,3 3,7 3,11 0,5 -2,10 -5,13 -3,4 -8,6 -15,7 2,1 4,2 5,3 3,3 6,6 8,10l13 20 -12 0 -10 -15c-3,-5 -5,-8 -7,-10 -1,-3 -3,-4 -5,-5 -1,-1 -2,-2 -4,-2 -1,0 -3,0 -5,0l-11 0 0 32 -10 0zm10 -41l20 0c5,0 8,0 11,-1 2,-1 4,-2 5,-4 1,-2 2,-5 2,-7 0,-3 -1,-6 -4,-8 -2,-3 -6,-4 -11,-4l-23 0 0 24z"/>
   <path id="1" class="fil26" d="M-7232 10589l0 -17 -31 0 0 -9 33 -47 7 0 0 47 10 0 0 9 -10 0 0 17 -9 0zm0 -26l0 -32 -23 32 23 0z"/>
   <path id="2" class="fil26" d="M-7203 10526l0 -9 47 0 0 7c-5,5 -10,12 -14,20 -5,8 -8,16 -11,25 -1,6 -3,13 -3,20l-9 0c0,-6 1,-13 3,-21 2,-8 5,-16 9,-23 4,-8 9,-14 13,-19l-35 0z"/>
   <path id="3" class="fil26" d="M-7081 10560l0 -8 30 0 0 27c-4,4 -9,6 -14,8 -5,2 -11,3 -16,3 -7,0 -13,-1 -19,-4 -6,-3 -11,-8 -14,-14 -2,-5 -4,-12 -4,-19 0,-7 1,-14 4,-20 3,-6 8,-11 13,-14 6,-3 12,-4 19,-4 6,0 10,1 15,3 4,1 7,4 10,7 2,3 4,7 5,12l-8 2c-2,-4 -3,-7 -5,-9 -1,-2 -3,-4 -6,-5 -3,-1 -7,-2 -10,-2 -5,0 -9,1 -12,2 -3,2 -6,3 -8,6 -2,2 -3,4 -4,7 -2,4 -3,9 -3,14 0,7 1,12 3,17 3,4 6,7 10,9 4,3 9,4 14,4 4,0 8,-1 12,-3 4,-1 7,-3 9,-5l0 -14 -21 0z"/>
   <path id="4" class="fil26" d="M-6994 10534l-8 1c-1,-4 -2,-6 -4,-8 -2,-3 -5,-4 -9,-4 -3,0 -5,1 -7,3 -3,2 -5,5 -7,9 -2,4 -2,9 -3,16 3,-3 5,-5 8,-7 3,-1 7,-2 10,-2 6,0 11,2 15,6 5,5 7,10 7,17 0,5 -1,9 -3,13 -2,4 -5,7 -8,9 -4,2 -8,3 -12,3 -8,0 -14,-3 -18,-8 -5,-5 -7,-15 -7,-27 0,-14 2,-24 7,-31 5,-5 11,-8 19,-8 5,0 10,1 14,5 4,3 6,7 6,13zm-36 31c0,3 1,6 2,9 1,3 3,5 5,7 3,1 5,2 8,2 4,0 7,-2 9,-5 3,-3 5,-7 5,-12 0,-5 -2,-9 -4,-12 -3,-3 -7,-4 -11,-4 -4,0 -7,1 -10,4 -3,3 -4,7 -4,11z"/>
   <path id="5" class="fil26" d="M-6983 10553c0,-9 0,-15 2,-21 2,-5 5,-9 8,-12 4,-3 8,-4 13,-4 4,0 8,1 11,2 2,2 5,4 7,7 2,3 3,7 4,11 1,4 2,10 2,17 0,9 -1,16 -3,21 -1,5 -4,9 -8,12 -3,3 -7,4 -13,4 -7,0 -12,-2 -16,-7 -5,-6 -7,-16 -7,-30zm9 0c0,12 1,20 4,24 3,4 6,6 10,6 4,0 8,-2 11,-6 2,-4 4,-12 4,-24 0,-12 -2,-20 -4,-24 -3,-4 -7,-6 -11,-6 -4,0 -7,2 -10,6 -3,4 -4,12 -4,24z"/>
   <path id="6" class="fil26" d="M-6896 10589l0 -73 28 0c5,0 10,1 13,2 4,2 6,4 8,7 2,3 3,6 3,10 0,3 -1,6 -3,9 -1,2 -4,5 -7,6 4,2 8,4 10,7 2,3 4,7 4,11 0,3 -1,6 -3,9 -1,3 -3,6 -5,7 -2,2 -5,3 -8,4 -3,1 -7,1 -12,1l-28 0zm10 -42l16 0c4,0 7,-1 9,-1 3,-1 4,-2 6,-4 1,-1 1,-4 1,-6 0,-2 0,-5 -1,-6 -1,-2 -3,-4 -5,-4 -2,-1 -6,-1 -11,-1l-15 0 0 22zm0 33l18 0c3,0 6,0 7,0 2,0 4,-1 5,-2 2,-1 3,-2 4,-4 1,-2 2,-4 2,-6 0,-3 -1,-5 -3,-7 -1,-2 -3,-4 -5,-4 -3,-1 -6,-2 -11,-2l-17 0 0 25z"/>
   <path id="7" class="fil26" d="M-6830 10526l0 -9 47 0 0 7c-5,5 -9,12 -14,20 -5,8 -8,16 -11,25 -1,6 -3,13 -3,20l-9 0c0,-6 1,-13 3,-21 2,-8 5,-16 9,-23 4,-8 9,-14 13,-19l-35 0z"/>
   <path id="8" class="fil26" d="M-6728 10534l-9 1c0,-4 -2,-6 -3,-8 -2,-3 -5,-4 -9,-4 -3,0 -5,1 -8,3 -2,2 -5,5 -6,9 -2,4 -3,9 -3,16 2,-3 5,-5 8,-7 3,-1 6,-2 10,-2 6,0 11,2 15,6 4,5 6,10 6,17 0,5 -1,9 -3,13 -2,4 -4,7 -8,9 -3,2 -7,3 -11,3 -8,0 -14,-3 -19,-8 -4,-5 -7,-15 -7,-27 0,-14 3,-24 8,-31 5,-5 11,-8 18,-8 6,0 11,1 15,5 3,3 5,7 6,13zm-36 31c0,3 0,6 2,9 1,3 3,5 5,7 2,1 5,2 7,2 4,0 8,-2 10,-5 3,-3 4,-7 4,-12 0,-5 -1,-9 -4,-12 -2,-3 -6,-4 -10,-4 -4,0 -7,1 -10,4 -3,3 -4,7 -4,11z"/>
   <path id="9" class="fil26" d="M-7333 10767l4 -21 -8 0 0 -7 10 0 3 -18 -13 0 0 -8 15 0 4 -21 8 0 -5 21 16 0 4 -21 8 0 -5 21 9 0 0 8 -10 0 -4 18 14 0 0 7 -15 0 -5 21 -7 0 4 -21 -15 0 -5 21 -7 0zm13 -28l16 0 3 -18 -15 0 -4 18z"/>
   <path id="10" class="fil26" d="M-7230 10758l0 8 -49 0c0,-2 1,-4 1,-6 2,-3 4,-7 6,-10 3,-3 7,-7 12,-11 8,-6 13,-11 16,-15 3,-4 4,-8 4,-11 0,-3 -1,-6 -4,-9 -2,-2 -5,-4 -9,-4 -5,0 -8,2 -11,4 -2,3 -4,6 -4,11l-9 -1c1,-7 3,-12 7,-16 4,-3 10,-5 17,-5 7,0 12,2 16,6 4,4 6,9 6,14 0,3 0,6 -1,9 -2,3 -4,6 -6,9 -3,3 -8,7 -14,13 -5,4 -9,7 -10,9 -2,1 -3,3 -4,5l36 0z"/>
   <polygon id="11" class="fil26" points="-7217,10766 -7217,10693 -7168,10693 -7168,10702 -7207,10702 -7207,10725 -7173,10725 -7173,10733 -7207,10733 -7207,10766 "/>
   <path id="12" class="fil26" d="M-7159 10747l9 -1c1,5 3,8 6,11 2,2 5,3 9,3 4,0 7,-1 10,-4 3,-3 5,-7 5,-11 0,-4 -2,-8 -4,-10 -3,-3 -7,-4 -11,-4 -1,0 -3,0 -6,1l1 -8c1,0 1,0 1,0 4,0 8,-1 11,-3 3,-2 4,-5 4,-9 0,-4 -1,-6 -3,-8 -2,-3 -5,-4 -9,-4 -3,0 -6,1 -8,4 -3,2 -4,5 -5,10l-9 -2c1,-6 4,-11 8,-14 4,-3 8,-5 14,-5 4,0 8,1 11,3 3,1 6,4 8,7 2,3 2,6 2,9 0,3 0,6 -2,9 -2,2 -4,4 -8,6 5,1 8,3 10,6 3,3 4,7 4,12 0,6 -2,11 -7,16 -5,4 -10,6 -18,6 -6,0 -11,-2 -15,-5 -5,-4 -7,-9 -8,-15z"/>
   <path id="13" class="fil26" d="M-7047 10741l10 2c-2,8 -6,14 -11,18 -5,4 -12,6 -19,6 -8,0 -14,-1 -19,-4 -5,-4 -9,-8 -11,-14 -3,-6 -4,-13 -4,-20 0,-7 1,-14 4,-20 3,-5 7,-10 12,-12 6,-3 12,-5 18,-5 7,0 13,2 18,6 5,3 9,9 11,15l-10 3c-1,-6 -4,-10 -7,-12 -3,-2 -7,-4 -12,-4 -6,0 -10,2 -14,4 -4,3 -7,7 -8,11 -2,5 -2,9 -2,14 0,6 1,12 2,16 2,5 5,8 9,11 4,2 8,3 12,3 5,0 10,-1 14,-4 3,-4 6,-8 7,-14z"/>
   <path id="14" class="fil26" d="M-7000 10766l0 -17 -32 0 0 -8 34 -48 7 0 0 48 10 0 0 8 -10 0 0 17 -9 0zm0 -25l0 -33 -23 33 23 0z"/>
   <path id="15" class="fil26" d="M-6917 10741l10 2c-2,8 -6,14 -11,18 -5,4 -12,6 -19,6 -8,0 -14,-1 -19,-4 -5,-4 -9,-8 -11,-14 -3,-6 -4,-13 -4,-20 0,-7 1,-14 4,-20 3,-5 7,-10 12,-12 6,-3 12,-5 18,-5 7,0 13,2 18,6 5,3 9,9 11,15l-10 3c-1,-6 -4,-10 -7,-12 -3,-2 -7,-4 -12,-4 -6,0 -10,2 -14,4 -4,3 -7,7 -8,11 -2,5 -2,9 -2,14 0,6 1,12 2,16 2,5 5,8 9,11 4,2 8,3 12,3 5,0 10,-1 14,-4 3,-4 6,-8 7,-14z"/>
   <path class="fil26" d="M-7330 11114l0 -73 32 0c7,0 12,0 15,2 3,1 6,3 8,7 2,3 3,7 3,11 0,5 -2,9 -5,13 -3,3 -8,5 -15,6 2,2 4,3 5,4 3,3 6,6 8,10l13 20 -12 0 -10 -16c-3,-4 -5,-7 -7,-10 -1,-2 -3,-4 -5,-4 -1,-1 -2,-2 -4,-2 -1,-1 -3,-1 -5,-1l-11 0 0 33 -10 0zm10 -41l20 0c5,0 8,-1 11,-1 2,-1 4,-3 5,-5 1,-2 2,-4 2,-6 0,-4 -1,-7 -4,-9 -2,-2 -6,-3 -11,-3l-23 0 0 24z"/>
   <path id="1" class="fil26" d="M-7260 11094l9 -1c1,5 2,9 5,11 2,2 5,3 9,3 4,0 8,-1 10,-4 3,-3 5,-7 5,-11 0,-4 -2,-7 -4,-10 -3,-3 -6,-4 -10,-4 -2,0 -4,0 -7,1l1 -8c1,0 1,0 2,0 3,0 7,-1 10,-3 3,-2 5,-5 5,-9 0,-3 -2,-6 -4,-8 -2,-2 -5,-3 -8,-3 -4,0 -7,1 -9,3 -2,2 -4,6 -5,10l-9 -2c2,-6 4,-10 8,-14 4,-3 9,-5 14,-5 4,0 8,1 11,3 4,2 6,4 8,7 2,3 3,6 3,9 0,3 -1,6 -3,9 -2,2 -4,5 -7,6 4,1 7,3 10,6 2,3 3,7 3,12 0,6 -2,12 -7,16 -4,5 -10,7 -17,7 -7,0 -12,-2 -16,-6 -4,-4 -7,-9 -7,-15z"/>
   <path id="2" class="fil26" d="M-7190 11074c-4,-1 -7,-3 -8,-6 -2,-2 -3,-5 -3,-9 0,-5 2,-10 6,-13 3,-4 9,-6 15,-6 6,0 11,2 15,6 4,4 6,8 6,13 0,4 -1,7 -3,9 -1,3 -4,5 -8,6 5,2 8,4 10,7 3,3 4,7 4,12 0,6 -2,11 -7,15 -4,5 -10,7 -17,7 -7,0 -13,-2 -17,-7 -5,-4 -7,-9 -7,-15 0,-5 1,-9 4,-12 2,-4 5,-6 10,-7zm-2 -15c0,3 1,6 3,8 3,3 5,4 9,4 4,0 6,-1 9,-4 2,-2 3,-4 3,-8 0,-3 -1,-6 -4,-8 -2,-2 -5,-3 -8,-3 -3,0 -6,1 -9,3 -2,2 -3,5 -3,8zm-3 34c0,2 1,5 2,7 1,2 3,4 5,6 3,1 5,1 8,1 4,0 8,-1 11,-4 2,-2 4,-6 4,-10 0,-4 -2,-8 -5,-11 -2,-3 -6,-4 -10,-4 -5,0 -8,1 -11,4 -2,3 -4,6 -4,11z"/>
   <path id="3" class="fil26" d="M-7081 11085l0 -9 30 0 0 27c-4,4 -9,7 -14,9 -5,2 -11,3 -16,3 -7,0 -13,-2 -19,-5 -6,-3 -11,-7 -14,-13 -2,-6 -4,-12 -4,-19 0,-8 1,-14 4,-20 3,-6 8,-11 13,-14 6,-3 12,-4 19,-4 6,0 10,0 15,2 4,2 7,4 10,7 2,3 4,7 5,12l-8 3c-2,-4 -3,-7 -5,-9 -1,-2 -3,-4 -6,-5 -3,-2 -7,-2 -10,-2 -5,0 -9,0 -12,2 -3,1 -6,3 -8,5 -2,2 -3,5 -4,7 -2,5 -3,10 -3,15 0,6 1,12 3,16 3,5 6,8 10,10 4,2 9,3 14,3 4,0 8,-1 12,-2 4,-2 7,-4 9,-5l0 -14 -21 0z"/>
   <path id="4" class="fil26" d="M-7040 11094l9 0c1,4 3,8 5,10 3,2 6,3 9,3 5,0 8,-1 11,-4 3,-4 5,-8 5,-13 0,-5 -2,-9 -5,-12 -2,-3 -6,-5 -11,-5 -3,0 -5,1 -8,2 -2,2 -4,3 -5,5l-8 -1 7 -37 36 0 0 8 -29 0 -4 20c4,-3 9,-5 14,-5 6,0 11,2 16,7 4,4 6,10 6,17 0,6 -2,12 -6,17 -4,6 -11,9 -19,9 -6,0 -12,-2 -16,-6 -4,-3 -6,-8 -7,-15z"/>
   <path id="5" class="fil26" d="M-6950 11114l-9 0 0 -57c-2,2 -5,4 -8,6 -4,2 -7,3 -10,4l0 -8c5,-3 10,-5 13,-9 4,-3 7,-6 8,-10l6 0 0 74z"/>
   <path id="6" class="fil26" d="M-6896 11114l0 -73 28 0c5,0 10,1 13,2 4,1 6,4 8,7 2,3 3,6 3,9 0,3 -1,6 -3,9 -1,3 -4,5 -7,7 4,1 8,3 10,6 2,4 4,7 4,11 0,4 -1,7 -3,10 -1,3 -3,5 -5,7 -2,1 -5,3 -8,3 -3,1 -7,2 -12,2l-28 0zm10 -43l16 0c4,0 7,0 9,0 3,-1 4,-2 6,-4 1,-2 1,-4 1,-6 0,-3 0,-5 -1,-7 -1,-2 -3,-3 -5,-4 -2,0 -6,-1 -11,-1l-15 0 0 22zm0 34l18 0c3,0 6,0 7,0 2,-1 4,-1 5,-2 2,-1 3,-3 4,-4 1,-2 2,-4 2,-7 0,-2 -1,-5 -3,-7 -1,-2 -3,-3 -5,-4 -3,-1 -6,-1 -11,-1l-17 0 0 25z"/>
   <path id="7" class="fil26" d="M-6784 11059l-9 0c-1,-3 -2,-6 -4,-7 -2,-3 -5,-4 -9,-4 -2,0 -5,1 -7,2 -3,2 -5,5 -7,9 -1,4 -2,10 -2,17 2,-3 4,-6 8,-7 3,-2 6,-3 9,-3 6,0 11,2 16,7 4,4 6,10 6,17 0,4 -1,9 -3,13 -2,4 -5,7 -8,9 -4,2 -8,3 -12,3 -7,0 -13,-3 -18,-8 -5,-6 -7,-15 -7,-28 0,-14 2,-24 8,-30 4,-6 10,-9 18,-9 6,0 10,2 14,5 4,3 6,8 7,14zm-37 31c0,3 1,6 2,9 1,3 3,5 5,6 3,2 5,2 8,2 4,0 7,-1 10,-4 2,-3 4,-7 4,-13 0,-5 -2,-9 -4,-11 -3,-3 -6,-5 -10,-5 -4,0 -8,2 -11,5 -3,2 -4,6 -4,11z"/>
   <path id="8" class="fil26" d="M-6728 11059l-9 0c0,-3 -2,-6 -3,-7 -2,-3 -5,-4 -9,-4 -3,0 -5,1 -8,2 -2,2 -5,5 -6,9 -2,4 -3,10 -3,17 2,-3 5,-6 8,-7 3,-2 6,-3 10,-3 6,0 11,2 15,7 4,4 6,10 6,17 0,4 -1,9 -3,13 -2,4 -4,7 -8,9 -3,2 -7,3 -11,3 -8,0 -14,-3 -19,-8 -4,-6 -7,-15 -7,-28 0,-14 3,-24 8,-30 5,-6 11,-9 18,-9 6,0 11,2 15,5 3,3 5,8 6,14zm-36 31c0,3 0,6 2,9 1,3 3,5 5,6 2,2 5,2 7,2 4,0 8,-1 10,-4 3,-3 4,-7 4,-13 0,-5 -1,-9 -4,-11 -2,-3 -6,-5 -10,-5 -4,0 -7,2 -10,5 -3,2 -4,6 -4,11z"/>
   <path id="9" class="fil26" d="M-7333 11292l4 -21 -8 0 0 -8 10 0 3 -18 -13 0 0 -7 15 0 4 -21 8 0 -5 21 16 0 4 -21 8 0 -5 21 9 0 0 7 -10 0 -4 18 14 0 0 8 -15 0 -5 21 -7 0 4 -21 -15 0 -5 21 -7 0zm13 -29l16 0 3 -18 -15 0 -4 18z"/>
   <path id="10" class="fil26" d="M-7230 11282l0 9 -49 0c0,-2 1,-4 1,-6 2,-4 4,-7 6,-10 3,-3 7,-7 12,-11 8,-7 13,-12 16,-16 3,-3 4,-7 4,-10 0,-4 -1,-7 -4,-9 -2,-3 -5,-4 -9,-4 -5,0 -8,1 -11,4 -2,3 -4,6 -4,11l-9 -1c1,-7 3,-12 7,-16 4,-4 10,-5 17,-5 7,0 12,2 16,5 4,4 6,9 6,15 0,3 0,6 -1,8 -2,3 -4,6 -6,9 -3,4 -8,8 -14,13 -5,5 -9,8 -10,9 -2,2 -3,4 -4,5l36 0z"/>
   <path id="11" class="fil26" d="M-7174 11236l-9 0c-1,-3 -2,-6 -4,-7 -2,-3 -5,-4 -9,-4 -2,0 -5,1 -7,2 -3,2 -5,5 -7,9 -1,4 -2,10 -2,17 2,-3 4,-6 8,-7 3,-2 6,-3 9,-3 6,0 11,3 16,7 4,4 6,10 6,17 0,5 -1,9 -3,13 -2,4 -5,7 -8,9 -4,2 -8,3 -12,3 -7,0 -13,-3 -18,-8 -5,-6 -7,-15 -7,-27 0,-14 2,-25 8,-31 4,-6 10,-8 18,-8 6,0 10,1 14,4 4,4 6,8 7,14zm-37 31c0,3 1,6 2,9 1,3 3,5 6,6 2,2 4,3 7,3 4,0 7,-2 10,-5 2,-3 4,-7 4,-12 0,-5 -2,-9 -4,-12 -3,-3 -6,-5 -10,-5 -4,0 -8,2 -11,5 -3,3 -4,6 -4,11z"/>
   <path id="12" class="fil26" d="M-7164 11271l9 -1c1,5 2,9 5,11 2,2 5,4 9,4 4,0 8,-2 11,-5 3,-3 4,-6 4,-11 0,-4 -1,-7 -4,-10 -3,-2 -6,-4 -10,-4 -2,0 -4,1 -7,1l1 -8c1,0 2,0 2,0 4,0 7,-1 10,-3 3,-1 5,-5 5,-9 0,-3 -1,-6 -4,-8 -2,-2 -5,-3 -8,-3 -4,0 -7,1 -9,3 -2,2 -4,6 -4,10l-9 -1c1,-6 3,-11 7,-14 4,-4 9,-5 15,-5 4,0 7,1 11,2 3,2 5,4 7,7 2,3 3,6 3,10 0,3 -1,6 -3,8 -1,3 -4,5 -7,6 4,1 8,3 10,6 2,4 3,7 3,12 0,7 -2,12 -6,16 -5,5 -11,7 -18,7 -6,0 -12,-2 -16,-6 -4,-4 -7,-8 -7,-15z"/>
   <path id="13" class="fil26" d="M-7108 11271l9 -1c1,5 3,9 5,11 3,2 6,4 10,4 4,0 7,-2 10,-5 3,-3 5,-6 5,-11 0,-4 -2,-7 -4,-10 -3,-2 -7,-4 -11,-4 -1,0 -4,1 -6,1l1 -8c1,0 1,0 1,0 4,0 8,-1 11,-3 3,-1 4,-5 4,-9 0,-3 -1,-6 -3,-8 -2,-2 -5,-3 -9,-3 -3,0 -6,1 -8,3 -3,2 -4,6 -5,10l-9 -1c1,-6 4,-11 8,-14 4,-4 8,-5 14,-5 4,0 8,1 11,2 3,2 6,4 8,7 2,3 2,6 2,10 0,3 0,6 -2,8 -2,3 -4,5 -8,6 5,1 8,3 10,6 3,4 4,7 4,12 0,7 -2,12 -7,16 -5,5 -10,7 -18,7 -6,0 -11,-2 -15,-6 -5,-4 -7,-8 -8,-15z"/>
   <path id="14" class="fil26" d="M-7023 11291l0 -18 -31 0 0 -8 33 -47 7 0 0 47 10 0 0 8 -10 0 0 18 -9 0zm0 -26l0 -33 -22 33 22 0z"/>
   <path id="15" class="fil26" d="M-6948 11282l0 9 -48 0c0,-2 0,-4 1,-6 1,-4 3,-7 6,-10 3,-3 7,-7 12,-11 8,-7 13,-12 16,-16 3,-3 4,-7 4,-10 0,-4 -1,-7 -4,-9 -2,-3 -6,-4 -10,-4 -4,0 -7,1 -10,4 -3,3 -4,6 -4,11l-9 -1c0,-7 3,-12 7,-16 4,-4 10,-5 16,-5 7,0 13,2 17,5 4,4 6,9 6,15 0,3 0,6 -2,8 -1,3 -3,6 -6,9 -2,4 -7,8 -13,13 -6,5 -9,8 -11,9 -1,2 -2,4 -3,5l35 0z"/>
  </g>
  <path class="fil30" d="M7760 -13842l-83 675 209 0c228,0 365,-160 365,-394 0,-172 -92,-281 -278,-281l-213 0zm143 539l-60 0 49 -403 64 0c94,0 138,55 138,148 0,141 -66,255 -191,255z"/>
  <path id="1" class="fil30" d="M8498 -13158c177,0 258,-132 258,-283 0,-127 -79,-199 -198,-199 -164,0 -257,133 -257,282 0,128 79,200 197,200zm10 -127c-30,0 -63,-25 -63,-80 0,-72 38,-148 101,-148 26,0 66,15 66,81 0,76 -41,147 -104,147z"/>
  <path id="2" class="fil30" d="M8865 -13632l-58 465 143 0 20 -172c16,-116 77,-174 119,-174 31,0 36,30 28,94l-33 252 141 0 37 -284c17,-130 -19,-189 -107,-189 -61,0 -112,26 -154,74l-2 -1 8 -65 -142 0z"/>
  <path id="3" class="fil30" d="M9743 -13512c1,-87 -84,-128 -159,-128 -157,0 -254,129 -254,287 -1,121 77,195 194,195 91,0 153,-34 202,-102l-106 -63c-26,35 -54,47 -85,47 -28,0 -58,-17 -67,-59 137,-14 273,-59 275,-177zm-137 20c-1,46 -63,64 -133,72 16,-65 58,-101 99,-101 22,0 35,10 34,29z"/>
  <path id="4" class="fil30" d="M9979 -13158c89,0 153,-35 201,-102l-110 -70c-27,33 -54,45 -81,45 -39,0 -63,-31 -63,-81 0,-78 43,-148 107,-148 27,0 51,12 66,41l109 -82c-38,-55 -96,-85 -179,-85 -160,0 -247,137 -247,279 0,133 76,203 197,203z"/>
  <polygon id="5" class="fil30" points="10495,-13866 10410,-13167 10552,-13167 10639,-13866 "/>
  <path id="6" class="fil30" d="M10813 -13158c52,0 99,-29 133,-78l3 1 -9 68 144 0 57 -465 -144 0 -4 33 -2 0c-25,-26 -61,-41 -110,-41 -121,0 -219,126 -219,292 0,107 51,190 151,190zm45 -127c-32,0 -53,-29 -53,-74 0,-69 38,-154 101,-154 29,0 56,12 77,34l-2 13c-16,117 -73,181 -123,181z"/>
  <path id="7" class="fil30" d="M11394 -13157c182,0 273,-121 273,-290 0,-108 -53,-193 -152,-193 -54,0 -99,27 -135,76l-2 -1 37 -301 -143 0 -82 660c59,32 122,49 204,49zm-3 -128c-14,0 -32,-1 -52,-6l4 -31c16,-123 73,-191 126,-191 32,0 53,32 53,74 0,82 -46,154 -131,154z"/>
  <rect class="fil3" x="4055" y="-12715" width="11234.2" height="29.5613"/>
  <g>
   <rect class="fil11" width="15000" height="8700"/>
   <g>
    <path class="fil31" d="M8341 6639l35 -77c22,9 32,35 21,56 -9,22 -35,31 -56,21zm-111 -188l0 0 -4 7 -1 5 -2 5 0 4 -1 4 0 1 0 2 0 2 0 0 1 2 0 0 2 3 2 1 2 3 3 3 3 3 5 2 5 3 6 4 7 3 7 5 9 3 7 4 9 4 9 4 10 4 10 4 12 6 10 3 12 6 11 4 12 7 -35 77 -12 -5 -11 -5 -11 -6 -11 -3 -10 -5 -10 -5 -11 -4 -10 -5 -9 -4 -9 -4 -10 -4 -8 -5 -8 -5 -10 -4 -7 -6 -9 -5 -7 -6 -7 -7 -7 -6 -7 -7 -6 -9 -5 -9 -3 -10 -3 -10 -2 -11 -2 -10 1 -12 2 -11 3 -10 2 -11 5 -10 4 -12 0 0 77 38zm-167 -544l43 1 40 4 38 5 33 7 30 10 26 13 24 14 22 16 17 20 15 20 8 23 8 22 4 24 1 23 -2 24 -3 22 -6 23 -5 23 -8 22 -9 22 -9 21 -10 21 -10 22 -11 19 -10 20 -11 17 -10 19 -9 16 -9 15 -8 13 -7 13 -5 10 -77 -38 6 -12 8 -14 9 -15 9 -15 9 -16 10 -17 11 -18 9 -18 10 -18 10 -20 8 -18 9 -19 7 -20 6 -18 5 -18 4 -17 2 -16 2 -16 -1 -13 -2 -14 -3 -11 -6 -11 -6 -9 -8 -10 -12 -9 -15 -8 -17 -9 -23 -7 -26 -6 -32 -5 -35 -2 -40 -2 2 -85zm0 0l-2 85c-23,0 -42,-19 -42,-42 1,-24 19,-44 44,-43z"/>
    <path class="fil31" d="M6558 6557c-23,5 -45,-11 -49,-34 -4,-24 12,-45 35,-49l14 83zm157 -150l84 -15 0 0 2 11 1 11 0 11 0 12 -2 9 -3 12 -2 9 -6 10 -5 10 -7 8 -7 7 -8 7 -9 5 -8 5 -9 5 -9 3 -8 3 -9 3 -9 3 -10 1 -10 3 -10 1 -11 2 -10 2 -11 1 -10 2 -11 1 -12 2 -12 1 -12 2 -11 2 -13 1 -14 -83 13 -3 13 -1 12 -1 13 -3 11 -2 11 0 11 -2 10 -2 10 -1 9 -1 8 -2 7 -2 8 -2 7 -1 6 -1 5 -3 5 -2 3 -1 2 -2 3 -1 1 -2 1 0 1 -1 1 -1 1 -2 -1 -1 2 -2 0 -4 0 -4 0 -4 -1 -6 -1 -7 0 0zm307 -480l-23 82 -38 -10 -35 -6 -31 -5 -27 -1 -24 2 -18 3 -17 4 -14 6 -11 7 -9 7 -6 10 -7 9 -5 13 -6 12 -3 16 -1 16 -2 18 1 18 0 20 3 20 4 21 3 21 4 20 5 21 4 20 5 19 4 19 6 19 4 17 4 17 4 15 3 15 -84 15 -2 -11 -4 -15 -3 -14 -5 -18 -4 -18 -6 -20 -4 -20 -6 -22 -4 -22 -6 -22 -3 -22 -3 -24 -3 -24 -1 -23 0 -24 1 -23 3 -23 5 -23 7 -23 9 -21 13 -20 16 -18 19 -17 22 -13 24 -11 27 -7 30 -6 31 -1 35 2 36 5 39 7 44 11zm0 0c22,5 36,29 30,52 -7,23 -30,36 -53,30l23 -82z"/>
    <path class="fil32" d="M3568 6500l0 -664 -1790 0c-226,0 -395,-51 -508,-153 -113,-102 -169,-241 -169,-418 0,-45 8,-90 24,-136 17,-46 42,-95 76,-146 33,-51 67,-101 103,-148 35,-48 79,-106 132,-175l1890 -2528c123,-166 225,-286 305,-362 80,-74 175,-112 287,-112 361,0 542,207 542,621l0 2761 153 0c183,0 330,25 441,75 110,49 165,159 165,327 0,138 -45,237 -135,301 -91,62 -226,93 -406,93l-218 0 0 664c0,182 -41,319 -122,408 -80,89 -189,134 -324,134 -133,0 -241,-47 -323,-138 -81,-91 -123,-226 -123,-404zm-1533 -1460l1533 0 0 -2074 -1533 2074z"/>
    <path id="1" class="fil32" d="M9347 4389c0,391 -24,726 -71,1006 -48,281 -136,535 -265,763 -162,280 -370,496 -627,649 -256,152 -543,227 -857,227 -360,0 -685,-102 -971,-306 -286,-205 -502,-487 -648,-848 -73,-197 -126,-416 -162,-655 -34,-238 -51,-496 -51,-775 0,-359 20,-682 57,-969 38,-289 98,-536 178,-743 140,-342 345,-602 611,-781 268,-179 587,-269 958,-269 245,0 468,40 668,119 199,80 374,196 525,349 151,154 279,344 384,569 181,392 271,947 271,1664zm-978 -71c0,-434 -26,-791 -78,-1067 -53,-278 -142,-487 -264,-628 -125,-142 -296,-212 -514,-212 -314,0 -532,158 -655,474 -123,316 -184,803 -184,1461 0,447 26,814 78,1098 52,287 141,502 264,648 124,146 292,219 504,219 218,0 390,-75 514,-227 123,-153 209,-371 259,-653 50,-284 76,-654 76,-1113z"/>
    <path id="2" class="fil32" d="M12248 6500l0 -664 -1790 0c-226,0 -395,-51 -508,-153 -113,-102 -169,-241 -169,-418 0,-45 8,-90 24,-136 17,-46 42,-95 76,-146 32,-51 67,-101 103,-148 35,-48 79,-106 132,-175l1890 -2528c123,-166 225,-286 304,-362 81,-74 176,-112 288,-112 361,0 542,207 542,621l0 2761 153 0c183,0 330,25 441,75 110,49 165,159 165,327 0,138 -45,237 -135,301 -91,62 -226,93 -407,93l-217 0 0 664c0,182 -41,319 -122,408 -81,89 -189,134 -324,134 -133,0 -241,-47 -323,-138 -81,-91 -123,-226 -123,-404zm-1534 -1460l1534 0 0 -2074 -1534 2074z"/>
    <path class="fil12" d="M7101 6010c219,99 298,336 446,336 148,0 198,-199 444,-336 2162,-1058 1154,-3596 -394,-3744 -1774,146 -2657,2677 -496,3744l0 0z"/>
    <path class="fil13" d="M9189 3815c-24,-114 -58,-227 -102,-335l-569 -805c-261,-226 -578,-376 -921,-409 -890,73 -1554,746 -1725,1532 461,192 2685,195 3317,17l0 0z"/>
    <ellipse class="fil14" cx="7533" cy="2268" rx="137" ry="202"/>
    <ellipse class="fil15" transform="matrix(0.0176642 0.395182 -1.2706 0.0141967 7353.75 2078.23)" rx="123" ry="152"/>
    <ellipse class="fil15" transform="matrix(0.0176642 0.395182 -1.2706 0.0141967 7728.66 2078.23)" rx="123" ry="152"/>
    <path class="fil33" d="M6811 3863l1395 3c324,-12 649,-35 973,-69 -222,-1980 -3073,-1988 -3293,0 308,29 616,52 925,66z"/>
    <line class="fil11 str10" x1="7659" y1="2279" x2="7659" y2= "2279" />
    <path class="fil14" d="M9185 3796c-36,-976 -918,-1745 -1522,-1516 426,444 622,953 632,1583 296,-14 594,-35 890,-67z"/>
    <path class="fil17" d="M6774 3862c24,-665 275,-1202 613,-1563l0 0c5,-6 9,-11 16,-17 -607,-166 -1464,550 -1521,1515 298,28 596,50 892,65z"/>
    <path class="fil18" d="M7252 3876l521 3c174,-3 348,-8 520,-16 -11,-625 -207,-1143 -630,-1583 -75,-42 -155,-58 -260,2 -343,358 -601,911 -628,1580 158,7 318,12 477,14l0 0z"/>
    <path class="fil34" d="M6777 3942c387,0 701,313 701,700 0,388 -314,701 -701,701 -387,0 -700,-313 -700,-701 0,-387 313,-700 700,-700zm0 51c358,0 649,290 649,649 0,358 -291,649 -649,649 -358,0 -649,-291 -649,-649 0,-359 291,-649 649,-649zm1656 0c359,0 649,290 649,649 0,358 -290,649 -649,649 -358,0 -649,-291 -649,-649 0,-359 291,-649 649,-649zm0 -51c387,0 700,313 700,700 0,388 -313,701 -700,701 -386,0 -700,-313 -700,-701 0,-387 314,-700 700,-700z"/>
    <path class="fil11" d="M6777 3993c358,0 649,290 649,649 0,358 -291,649 -649,649 -358,0 -649,-291 -649,-649 0,-359 291,-649 649,-649zm1656 0c359,0 649,290 649,649 0,358 -290,649 -649,649 -358,0 -649,-291 -649,-649 0,-359 291,-649 649,-649z"/>
    <rect class="fil34" x="7416" y="4777" width="379" height="111"/>
    <rect class="fil35" x="7516" y="4777" width="178" height="111"/>
    <rect class="fil36" x="7565" y="4777" width="80.5852" height="110.862"/>
    <circle class="fil34" cx="7534" cy="2059" r="49"/>
    <circle class="fil37" cx="6901" cy="4686" r="395"/>
    <circle class="fil34" cx="6989" cy="4688" r="241"/>
    <circle class="fil35" cx="7012" cy="4535" r="105"/>
    <circle class="fil35" cx="6880" cy="4727" r="46"/>
    <path class="fil11 str11" d="M6513 4609c17,-221 264,-378 515,-309"/>
    <path class="fil11 str12" d="M7406 6050c51,-74 169,-79 243,-2"/>
    <circle class="fil37" cx="8295" cy="4686" r="395"/>
    <circle class="fil34" cx="8205" cy="4688" r="241"/>
    <circle class="fil35" cx="8182" cy="4535" r="105"/>
    <circle class="fil35" cx="8314" cy="4727" r="46"/>
    <path class="fil11 str11" d="M8682 4609c-18,-221 -263,-378 -515,-309"/>
    <path class="fil23" d="M7722 3965c138,-2 353,4 424,-95 30,-40 82,-123 84,-216 3,-124 -124,-229 -150,-96 0,1 -16,-383 -177,-360 -90,12 -62,425 -91,182 -31,-269 -276,-278 -232,25 4,24 44,272 1,148 -8,-22 -85,-108 -143,-44 -123,133 -52,460 284,456l0 0z"/>
    <path class="fil24" d="M7722 3965c52,-1 114,0 176,-5 6,-35 -9,-74 -56,-111 -75,-59 -18,-283 -17,-376l3 -16 0 0c-12,6 -13,-7 -10,-32 -2,-12 -3,-26 -6,-45 -31,-269 -276,-278 -232,25 4,24 44,272 1,148 -8,-22 -85,-108 -143,-44 -123,133 -52,460 284,456z"/>
    <ellipse class="fil25" transform="matrix(1.25562 -0.196568 0.196568 1.25562 7976.41 3366.1)" rx="44" ry="90"/>
    <ellipse class="fil25" transform="matrix(1.25368 0.208592 -0.208592 1.25368 8150.42 3675.45)" rx="44" ry="90"/>
    <path class="fil38 str13" d="M9144 3393c-128,102 -132,260 34,255 333,-11 546,609 64,902"/>
    <path class="fil38 str14" d="M9034 3382c-29,64 -26,94 29,183"/>
    <path class="fil38 str13" d="M5971 3492c129,102 133,260 -34,255 -333,-11 -546,609 -63,902"/>
    <path class="fil38 str14" d="M6082 3481c28,63 26,94 -29,183"/>
    <path class="fil19" d="M7574 5454c236,0 427,162 427,303 0,141 -191,0 -427,0 -235,0 -426,141 -426,0 0,-141 191,-303 426,-303z"/>
    <path class="fil39" d="M7574 5611c131,0 240,82 256,188 -71,-18 -160,-42 -256,-42 -96,0 -184,24 -255,42 16,-106 125,-188 255,-188z"/>
   </g>
  </g>
  <polygon class="fil40" points="16652,8145 16543,8145 16543,8448 16499,8448 16499,8145 16389,8145 16389,8108 16652,8108 "/>
  <path id="1" class="fil40" d="M16739 8226c19,-23 44,-35 75,-35 53,0 80,30 81,90l0 167 -43 0 0 -167c0,-18 -5,-31 -13,-40 -8,-9 -21,-13 -38,-13 -14,0 -26,4 -37,11 -10,8 -19,17 -25,29l0 180 -43 0 0 -358 43 0 0 136z"/>
  <path id="2" class="fil40" d="M17064 8453c-34,0 -62,-11 -83,-34 -22,-22 -32,-52 -32,-90l0 -8c0,-25 4,-47 14,-67 10,-20 23,-35 40,-46 17,-11 36,-17 56,-17 33,0 58,11 77,32 18,22 27,53 27,93l0 19 -171 0c0,24 8,44 22,60 14,15 31,23 53,23 15,0 28,-3 39,-10 10,-6 19,-14 27,-24l27 20c-21,33 -53,49 -96,49zm-5 -227c-17,0 -32,7 -44,20 -12,12 -19,30 -22,53l127 0 0 -3c-1,-22 -7,-39 -18,-51 -11,-13 -25,-19 -43,-19z"/>
  <path id="3" class="fil40" d="M17545 8325c0,38 -9,69 -27,93 -17,23 -41,35 -71,35 -31,0 -55,-10 -72,-29l0 121 -44 0 0 -349 40 0 2 28c17,-22 42,-33 73,-33 31,0 55,11 72,34 18,23 27,55 27,96l0 4zm-43 -5c0,-28 -6,-51 -19,-67 -12,-17 -28,-25 -50,-25 -26,0 -45,11 -58,35l0 120c12,23 32,35 59,35 21,0 37,-8 49,-25 12,-16 19,-41 19,-73z"/>
  <path id="4" class="fil40" d="M17756 8448c-3,-5 -5,-13 -6,-26 -21,21 -45,31 -72,31 -25,0 -46,-7 -62,-21 -16,-14 -24,-32 -24,-54 0,-26 10,-46 30,-61 20,-14 49,-22 85,-22l42 0 0 -20c0,-15 -5,-27 -14,-36 -9,-9 -22,-13 -40,-13 -15,0 -28,4 -38,12 -11,7 -16,17 -16,28l-43 0c0,-13 4,-25 13,-37 9,-12 21,-21 36,-28 16,-7 33,-10 51,-10 29,0 52,7 68,22 17,14 25,34 26,60l0 116c0,23 3,42 9,56l0 3 -45 0zm-72 -32c14,0 26,-3 38,-10 13,-7 21,-17 27,-28l0 -52 -34 0c-53,0 -79,16 -79,47 0,13 4,24 13,32 9,7 21,11 35,11z"/>
  <path id="5" class="fil40" d="M17850 8320c0,-39 9,-71 27,-94 18,-23 42,-35 72,-35 31,0 55,11 72,33l3 -28 39 0 0 246c0,33 -10,59 -29,78 -19,18 -46,28 -78,28 -18,0 -36,-4 -54,-12 -17,-8 -30,-18 -40,-32l23 -26c18,23 41,34 68,34 21,0 37,-5 49,-17 12,-12 18,-29 18,-50l0 -22c-18,20 -41,30 -71,30 -30,0 -54,-12 -72,-36 -18,-23 -27,-56 -27,-97zm43 5c0,28 6,51 17,67 12,16 28,24 50,24 27,0 47,-12 60,-37l0 -115c-14,-24 -34,-36 -60,-36 -21,0 -37,8 -49,24 -12,17 -18,41 -18,73z"/>
  <path id="6" class="fil40" d="M18233 8453c-34,0 -62,-11 -84,-34 -21,-22 -32,-52 -32,-90l0 -8c0,-25 5,-47 15,-67 9,-20 23,-35 40,-46 17,-11 36,-17 56,-17 33,0 58,11 76,32 18,22 28,53 28,93l0 19 -172 0c1,24 8,44 22,60 14,15 32,23 53,23 16,0 29,-3 39,-10 11,-6 20,-14 28,-24l26 20c-21,33 -53,49 -95,49zm-5 -227c-18,0 -32,7 -44,20 -12,12 -19,30 -22,53l126 0 0 -3c-1,-22 -7,-39 -17,-51 -11,-13 -25,-19 -43,-19z"/>
  <path id="7" class="fil40" d="M18583 8385l58 -189 47 0 -102 291c-16,42 -41,63 -75,63l-8 -1 -16 -3 0 -35 11 1c15,0 27,-3 35,-8 8,-6 15,-17 20,-33l9 -25 -90 -250 48 0 63 189z"/>
  <path id="8" class="fil40" d="M18711 8320c0,-25 5,-47 15,-67 10,-20 23,-35 40,-46 18,-11 38,-16 60,-16 34,0 62,12 83,36 22,24 32,55 32,95l0 3c0,24 -5,47 -14,66 -9,20 -23,35 -40,46 -18,11 -38,16 -61,16 -34,0 -62,-12 -83,-36 -21,-23 -32,-55 -32,-94l0 -3zm44 5c0,28 6,50 19,67 13,17 31,26 52,26 22,0 40,-9 53,-26 13,-17 19,-41 19,-72 0,-28 -7,-51 -20,-68 -13,-17 -30,-26 -52,-26 -21,0 -39,9 -52,26 -13,17 -19,41 -19,73z"/>
  <path id="9" class="fil40" d="M19151 8423c-16,20 -41,30 -74,30 -27,0 -47,-8 -61,-23 -14,-16 -21,-39 -21,-70l0 -164 43 0 0 163c0,38 15,57 46,57 33,0 55,-12 66,-37l0 -183 43 0 0 252 -41 0 -1 -25z"/>
  <path id="10" class="fil40" d="M19534 8448c-3,-5 -5,-13 -7,-26 -20,21 -44,31 -71,31 -25,0 -46,-7 -62,-21 -16,-14 -24,-32 -24,-54 0,-26 10,-46 30,-61 20,-14 48,-22 85,-22l42 0 0 -20c0,-15 -5,-27 -14,-36 -9,-9 -22,-13 -40,-13 -15,0 -28,4 -38,12 -11,7 -16,17 -16,28l-44 0c0,-13 5,-25 14,-37 9,-12 21,-21 36,-28 16,-7 32,-10 51,-10 29,0 52,7 68,22 17,14 25,34 26,60l0 116c0,23 3,42 9,56l0 3 -45 0zm-72 -32c13,0 26,-3 38,-10 13,-7 21,-17 27,-28l0 -52 -34 0c-53,0 -79,16 -79,47 0,13 4,24 13,32 9,7 21,11 35,11z"/>
  <path id="11" class="fil40" d="M19760 8234c-7,-1 -14,-1 -21,-1 -29,0 -48,12 -58,36l0 179 -43 0 0 -252 42 0 0 29c15,-23 35,-34 61,-34 8,0 14,1 19,3l0 40z"/>
  <path id="12" class="fil40" d="M19900 8453c-34,0 -62,-11 -84,-34 -21,-22 -32,-52 -32,-90l0 -8c0,-25 5,-47 15,-67 9,-20 23,-35 40,-46 17,-11 36,-17 56,-17 33,0 58,11 76,32 18,22 28,53 28,93l0 19 -172 0c1,24 8,44 22,60 14,15 32,23 53,23 16,0 29,-3 39,-10 11,-6 20,-14 28,-24l26 20c-21,33 -53,49 -95,49zm-5 -227c-18,0 -32,7 -44,20 -12,12 -19,30 -22,53l126 0 0 -3c-1,-22 -7,-39 -17,-51 -11,-13 -25,-19 -43,-19z"/>
  <polygon id="13" class="fil40" points="20214,8448 20171,8448 20171,8090 20214,8090 "/>
  <path id="14" class="fil40" d="M20272 8320c0,-25 4,-47 14,-67 10,-20 23,-35 41,-46 17,-11 37,-16 59,-16 35,0 62,12 84,36 21,24 31,55 31,95l0 3c0,24 -4,47 -14,66 -9,20 -23,35 -40,46 -17,11 -38,16 -60,16 -35,0 -62,-12 -84,-36 -21,-23 -31,-55 -31,-94l0 -3zm43 5c0,28 6,50 19,67 13,17 31,26 53,26 22,0 39,-9 52,-26 13,-17 19,-41 19,-72 0,-28 -6,-51 -19,-68 -14,-17 -31,-26 -53,-26 -21,0 -38,9 -51,26 -14,17 -20,41 -20,73z"/>
  <path id="15" class="fil40" d="M20544 8320c0,-25 5,-47 15,-67 10,-20 23,-35 41,-46 17,-11 37,-16 59,-16 34,0 62,12 83,36 22,24 32,55 32,95l0 3c0,24 -4,47 -14,66 -9,20 -23,35 -40,46 -18,11 -38,16 -61,16 -34,0 -62,-12 -83,-36 -21,-23 -32,-55 -32,-94l0 -3zm44 5c0,28 6,50 19,67 13,17 31,26 52,26 22,0 40,-9 53,-26 13,-17 19,-41 19,-72 0,-28 -6,-51 -20,-68 -13,-17 -30,-26 -52,-26 -21,0 -39,9 -52,26 -13,17 -19,41 -19,73z"/>
  <path id="16" class="fil40" d="M20872 8226c19,-23 44,-35 75,-35 53,0 80,30 80,90l0 167 -43 0 0 -167c0,-18 -4,-31 -12,-40 -8,-9 -21,-13 -39,-13 -13,0 -26,4 -36,11 -11,8 -19,17 -25,29l0 180 -43 0 0 -358 43 0 0 136z"/>
  <path id="17" class="fil40" d="M21139 8448l-43 0 0 -252 43 0 0 252zm-47 -319c0,-7 2,-13 7,-18 4,-5 10,-8 19,-8 8,0 15,3 19,8 4,5 6,11 6,18 0,7 -2,13 -6,17 -4,5 -11,7 -19,7 -9,0 -15,-2 -19,-7 -5,-4 -7,-10 -7,-17z"/>
  <path id="18" class="fil40" d="M21249 8196l1 31c20,-24 45,-36 76,-36 53,0 80,30 81,90l0 167 -43 0 0 -167c-1,-18 -5,-31 -13,-40 -8,-9 -21,-13 -38,-13 -14,0 -26,4 -37,11 -10,8 -19,17 -25,29l0 180 -43 0 0 -252 41 0z"/>
  <path id="19" class="fil40" d="M21462 8320c0,-39 9,-71 27,-94 18,-23 42,-35 72,-35 31,0 55,11 73,33l2 -28 39 0 0 246c0,33 -10,59 -29,78 -19,18 -45,28 -78,28 -18,0 -36,-4 -54,-12 -17,-8 -30,-18 -39,-32l22 -26c19,23 41,34 68,34 21,0 37,-5 49,-17 12,-12 18,-29 18,-50l0 -22c-18,20 -41,30 -71,30 -30,0 -54,-12 -72,-36 -18,-23 -27,-56 -27,-97zm43 5c0,28 6,51 18,67 11,16 28,24 49,24 27,0 47,-12 60,-37l0 -115c-13,-24 -33,-36 -60,-36 -21,0 -37,8 -49,24 -12,17 -18,41 -18,73z"/>
  <path id="20" class="fil40" d="M21906 8448l-43 0 0 -252 43 0 0 252zm-47 -319c0,-7 2,-13 6,-18 5,-5 11,-8 19,-8 9,0 15,3 20,8 4,5 6,11 6,18 0,7 -2,13 -6,17 -5,5 -11,7 -20,7 -8,0 -14,-2 -19,-7 -4,-4 -6,-10 -6,-17z"/>
  <path id="21" class="fil40" d="M22122 8381c0,-11 -4,-20 -13,-27 -9,-6 -24,-12 -46,-17 -22,-4 -39,-10 -52,-16 -13,-7 -23,-15 -29,-24 -6,-9 -9,-19 -9,-32 0,-21 9,-38 26,-52 18,-15 40,-22 67,-22 29,0 52,7 70,22 18,15 27,34 27,57l-44 0c0,-12 -5,-22 -15,-31 -10,-8 -22,-13 -38,-13 -15,0 -28,4 -36,11 -9,7 -14,15 -14,27 0,10 4,18 13,23 8,5 23,11 44,15 22,5 39,11 53,18 13,6 23,14 29,24 7,9 10,21 10,34 0,23 -9,41 -27,55 -18,13 -41,20 -70,20 -20,0 -38,-3 -54,-11 -16,-7 -28,-17 -36,-30 -9,-12 -14,-26 -14,-41l43 0c1,14 7,26 18,34 11,9 25,13 43,13 16,0 29,-4 39,-10 10,-7 15,-16 15,-27z"/>
  <path id="22" class="fil40" d="M22381 8196l1 31c19,-24 45,-36 76,-36 53,0 80,30 81,90l0 167 -44 0 0 -167c0,-18 -4,-31 -12,-40 -8,-9 -21,-13 -38,-13 -14,0 -27,4 -37,11 -11,8 -19,17 -25,29l0 180 -43 0 0 -252 41 0z"/>
  <path id="23" class="fil40" d="M22592 8320c0,-25 5,-47 15,-67 10,-20 23,-35 40,-46 18,-11 38,-16 60,-16 34,0 62,12 83,36 22,24 32,55 32,95l0 3c0,24 -5,47 -14,66 -9,20 -23,35 -40,46 -18,11 -38,16 -61,16 -34,0 -62,-12 -83,-36 -21,-23 -32,-55 -32,-94l0 -3zm44 5c0,28 6,50 19,67 13,17 31,26 52,26 22,0 40,-9 53,-26 13,-17 19,-41 19,-72 0,-28 -7,-51 -20,-68 -13,-17 -30,-26 -52,-26 -21,0 -39,9 -52,26 -13,17 -19,41 -19,73z"/>
  <path id="24" class="fil40" d="M22935 8135l0 61 47 0 0 33 -47 0 0 157c0,10 2,18 6,23 5,5 12,7 22,7 5,0 12,-1 21,-2l0 34c-12,4 -23,5 -34,5 -19,0 -34,-6 -43,-17 -10,-12 -15,-29 -15,-50l0 -157 -46 0 0 -33 46 0 0 -61 43 0z"/>
  <path id="25" class="fil40" d="M23307 8448c-2,-5 -4,-13 -6,-26 -20,21 -44,31 -72,31 -25,0 -45,-7 -61,-21 -16,-14 -24,-32 -24,-54 0,-26 10,-46 30,-61 20,-14 48,-22 84,-22l42 0 0 -20c0,-15 -4,-27 -13,-36 -9,-9 -23,-13 -40,-13 -16,0 -29,4 -39,12 -10,7 -16,17 -16,28l-43 0c0,-13 4,-25 13,-37 9,-12 22,-21 37,-28 15,-7 32,-10 50,-10 30,0 52,7 69,22 16,14 25,34 25,60l0 116c0,23 4,42 9,56l0 3 -45 0zm-72 -32c14,0 27,-3 39,-10 12,-7 21,-17 26,-28l0 -52 -34 0c-52,0 -79,16 -79,47 0,13 5,24 14,32 9,7 20,11 34,11z"/>
  <polygon id="26" class="fil40" points="23491,8390 23554,8196 23598,8196 23507,8448 23474,8448 23383,8196 23427,8196 "/>
  <path id="27" class="fil40" d="M23792 8448c-3,-5 -5,-13 -6,-26 -20,21 -44,31 -72,31 -25,0 -45,-7 -61,-21 -16,-14 -24,-32 -24,-54 0,-26 10,-46 30,-61 20,-14 48,-22 84,-22l42 0 0 -20c0,-15 -4,-27 -13,-36 -9,-9 -23,-13 -40,-13 -16,0 -29,4 -39,12 -11,7 -16,17 -16,28l-43 0c0,-13 4,-25 13,-37 9,-12 21,-21 37,-28 15,-7 32,-10 50,-10 29,0 52,7 69,22 16,14 25,34 25,60l0 116c0,23 3,42 9,56l0 3 -45 0zm-72 -32c14,0 27,-3 39,-10 12,-7 21,-17 26,-28l0 -52 -34 0c-53,0 -79,16 -79,47 0,13 4,24 13,32 9,7 21,11 35,11z"/>
  <path id="28" class="fil40" d="M23943 8448l-43 0 0 -252 43 0 0 252zm-47 -319c0,-7 3,-13 7,-18 4,-5 10,-8 19,-8 8,0 15,3 19,8 4,5 6,11 6,18 0,7 -2,13 -6,17 -4,5 -11,7 -19,7 -9,0 -15,-2 -19,-7 -4,-4 -7,-10 -7,-17z"/>
  <polygon id="29" class="fil40" points="24059,8448 24016,8448 24016,8090 24059,8090 "/>
  <path id="30" class="fil40" d="M24284 8448c-2,-5 -4,-13 -6,-26 -20,21 -44,31 -72,31 -25,0 -45,-7 -61,-21 -16,-14 -24,-32 -24,-54 0,-26 10,-46 30,-61 20,-14 48,-22 84,-22l42 0 0 -20c0,-15 -4,-27 -13,-36 -9,-9 -22,-13 -40,-13 -15,0 -28,4 -39,12 -10,7 -15,17 -15,28l-44 0c0,-13 5,-25 13,-37 10,-12 22,-21 37,-28 15,-7 32,-10 51,-10 29,0 51,7 68,22 16,14 25,34 26,60l0 116c0,23 3,42 9,56l0 3 -46 0zm-71 -32c13,0 26,-3 38,-10 12,-7 21,-17 26,-28l0 -52 -33 0c-53,0 -80,16 -80,47 0,13 5,24 14,32 9,7 20,11 35,11z"/>
  <path id="31" class="fil40" d="M24602 8325c0,39 -9,70 -26,93 -18,23 -42,35 -72,35 -32,0 -56,-11 -74,-34l-2 29 -40 0 0 -358 44 0 0 133c17,-21 41,-32 72,-32 30,0 54,12 72,35 18,23 26,55 26,95l0 4zm-43 -5c0,-29 -6,-52 -17,-68 -11,-16 -28,-24 -49,-24 -29,0 -49,13 -61,39l0 110c13,26 33,39 61,39 21,0 37,-8 49,-24 11,-16 17,-40 17,-72z"/>
  <polygon id="32" class="fil40" points="24704,8448 24660,8448 24660,8090 24704,8090 "/>
  <path id="33" class="fil40" d="M24878 8453c-35,0 -62,-11 -84,-34 -21,-22 -32,-52 -32,-90l0 -8c0,-25 5,-47 14,-67 10,-20 23,-35 40,-46 18,-11 36,-17 56,-17 33,0 59,11 77,32 18,22 27,53 27,93l0 19 -171 0c1,24 8,44 22,60 14,15 32,23 53,23 15,0 28,-3 39,-10 10,-6 20,-14 28,-24l26 20c-21,33 -53,49 -95,49zm-6 -227c-17,0 -32,7 -44,20 -11,12 -19,30 -22,53l127 0 0 -3c-1,-22 -7,-39 -18,-51 -10,-13 -25,-19 -43,-19z"/>
  <path class="fil41" d="M18639 7482l-47 382 85 0 15 -125 36 0c98,0 152,-61 152,-152 0,-61 -31,-105 -107,-105l-134 0zm93 181l-30 0 13 -105 36 0c22,0 40,12 40,39 0,39 -23,66 -59,66z"/>
  <path id="1" class="fil41" d="M19014 7482l-172 382 90 0 28 -70 114 0 12 70 89 0 -78 -382 -83 0zm49 239l-76 0 52 -134 1 0 23 134z"/>
  <path id="2" class="fil41" d="M19358 7869c54,0 109,-19 144,-46l19 -171 -145 0 -10 72 64 0 -7 47c-21,14 -39,18 -59,18 -45,0 -72,-29 -72,-85 0,-75 42,-146 106,-146 31,0 55,17 69,39l66 -51c-27,-46 -77,-69 -130,-69 -121,0 -202,104 -202,232 0,108 69,160 157,160z"/>
  <polygon id="3" class="fil41" points="19607,7482 19560,7864 19797,7864 19807,7787 19654,7787 19664,7711 19776,7711 19785,7637 19672,7637 19682,7559 19825,7559 19834,7482 "/>
  <polygon id="4" class="fil41" points="19998,7482 19951,7864 20034,7864 20064,7633 20065,7633 20164,7864 20247,7864 20294,7482 20211,7482 20181,7718 20180,7719 20079,7482 "/>
  <path id="5" class="fil41" d="M20482 7869c129,0 203,-105 203,-231 0,-102 -63,-161 -156,-161 -123,0 -202,108 -202,230 0,103 62,162 155,162zm7 -81c-42,0 -72,-27 -72,-86 0,-75 44,-145 104,-145 43,0 74,27 74,86 0,80 -43,145 -106,145z"/>
  <polygon id="6" class="fil41" points="20799,7559 20762,7864 20848,7864 20886,7559 20974,7559 20984,7482 20720,7482 20710,7559 "/>
  <polygon id="7" class="fil41" points="21129,7482 21083,7864 21167,7864 21184,7725 21308,7725 21317,7649 21193,7649 21205,7559 21354,7559 21364,7482 "/>
  <path id="8" class="fil41" d="M21522 7869c128,0 203,-105 203,-231 0,-102 -63,-161 -156,-161 -124,0 -203,108 -203,230 0,103 62,162 156,162zm6 -81c-41,0 -72,-27 -72,-86 0,-75 44,-145 105,-145 43,0 74,27 74,86 0,80 -44,145 -107,145z"/>
  <path id="9" class="fil41" d="M21898 7869c93,0 147,-44 162,-163l27 -224 -86 0 -27 222c-8,64 -33,84 -69,84 -44,0 -52,-39 -46,-88l27 -218 -86 0 -26 211c-14,108 21,176 124,176z"/>
  <polygon id="10" class="fil41" points="22156,7482 22109,7864 22193,7864 22222,7633 22223,7633 22322,7864 22405,7864 22453,7482 22369,7482 22339,7718 22338,7719 22237,7482 "/>
  <path id="11" class="fil41" d="M22525 7482l-47 382 119 0c129,0 206,-91 206,-223 0,-98 -52,-159 -157,-159l-121 0zm81 305l-34 0 28 -228 36 0c53,0 78,31 78,83 0,81 -37,145 -108,145z"/>
 </g>
</svg>
