<?xml version="1.0" encoding="UTF-8"?>
<!DOCTYPE svg PUBLIC "-//W3C//DTD SVG 1.1//EN" "http://www.w3.org/Graphics/SVG/1.1/DTD/svg11.dtd">
<!-- Creator: CorelDRAW X8 -->
<svg xmlns="http://www.w3.org/2000/svg" xml:space="preserve" width="57.4038mm" height="57.4038mm" version="1.1" style="shape-rendering:geometricPrecision; text-rendering:geometricPrecision; image-rendering:optimizeQuality; fill-rule:evenodd; clip-rule:evenodd"
viewBox="0 0 5740 5740"
 xmlns:xlink="http://www.w3.org/1999/xlink">
 <defs>
  <style type="text/css">
   <![CDATA[
    .fil0 {fill:none}
    .fil1 {fill:#FEFEFE}
    .fil2 {fill:#D2D3D5}
    .fil19 {fill:#373435}
    .fil5 {fill:#CB7246}
    .fil9 {fill:#CB7246}
    .fil26 {fill:#EE4147}
    .fil17 {fill:#ED3237}
    .fil18 {fill:#EBECEC}
    .fil7 {fill:#BC683F}
    .fil16 {fill:#DEDFDF}
    .fil20 {fill:#CA3438}
    .fil21 {fill:#AD3335}
    .fil15 {fill:#AA3335}
    .fil27 {fill:#B66339}
    .fil13 {fill:#994E35}
    .fil8 {fill:#955736}
    .fil14 {fill:#854331}
    .fil22 {fill:#755232}
    .fil23 {fill:#6AB29C}
    .fil24 {fill:#449177}
    .fil25 {fill:#397B64}
    .fil3 {fill:#348067}
    .fil6 {fill:black}
    .fil12 {fill:#E6E6E6}
    .fil11 {fill:white}
    .fil10 {fill:url(#id21)}
    .fil4 {fill:url(#id22)}
   ]]>
  </style>
     <clipPath id="id0">
      <path d="M2978 1326l1125 11c236,3 428,198 425,434l-23 2385c-3,237 -198,428 -434,426l-1125 -11c-237,-3 -428,-198 -426,-434l24 -2386c2,-236 197,-427 434,-425z"/>
     </clipPath>
      <clipPath id="id1">
       <path d="M4465 3502l-4 428c-3,236 -189,427 -415,425l-1073 -10c-226,-3 -409,-198 -406,-434l4 -428 1894 19z"/>
      </clipPath>
      <clipPath id="id2">
       <path d="M2978 1326l1125 11c236,3 428,198 425,434l-23 2385c-3,237 -198,428 -434,426l-1125 -11c-237,-3 -428,-198 -426,-434l24 -2386c2,-236 197,-427 434,-425z"/>
      </clipPath>
      <clipPath id="id3">
       <path d="M4244 1363c86,31 159,89 210,163l0 1 5 6 0 1c4,6 8,13 12,19l1 2 3 5 1 3 3 5 1 1c3,7 6,13 9,20l2 3 2 5 1 3 3 6 1 4c1,3 3,6 4,9l1 3 2 5 1 4 2 5 1 5 1 4 2 4 2 9 1 4 1 5 1 4 2 6 0 2c2,7 3,14 4,21l1 3 0 6 1 5 0 4 1 6c1,6 1,13 2,20l0 2 0 7 0 2 0 7 0 2 0 7 -12 1196 -11 1189c-1,11 -1,22 -2,33l0 1c0,3 -1,6 -1,9l0 2c-1,3 -1,6 -1,9l-1 2 -1 8 0 4 -2 6 -1 5 -1 5c0,3 -1,5 -1,8l0 1 -2 8 -1 2c-11,42 -28,81 -50,117l-227 -2 30 -3011z"/>
      </clipPath>
       <clipPath id="id4">
       </clipPath>
       <clipPath id="id5">
        <path d="M4244 1363c86,31 159,89 210,163l0 1 5 6 0 1c4,6 8,13 12,19l1 2 3 5 1 3 3 5 1 1c3,7 6,13 9,20l2 3 2 5 1 3 3 6 1 4c1,3 3,6 4,9l1 3 2 5 1 4 2 5 1 5 1 4 2 4 2 9 1 4 1 5 1 4 2 6 0 2c2,7 3,14 4,21l1 3 0 6 1 5 0 4 1 6c1,6 1,13 2,20l0 2 0 7 0 2 0 7 0 2 0 7 -12 1196 -11 1189c-1,11 -1,22 -2,33l0 1c0,3 -1,6 -1,9l0 2c-1,3 -1,6 -1,9l-1 2 -1 8 0 4 -2 6 -1 5 -1 5c0,3 -1,5 -1,8l0 1 -2 8 -1 2c-11,42 -28,81 -50,117l-227 -2 30 -3011z"/>
       </clipPath>
      <clipPath id="id6">
       <path d="M2978 1326l1125 11c236,3 428,198 425,434l-23 2385c-3,237 -198,428 -434,426l-1125 -11c-237,-3 -428,-198 -426,-434l24 -2386c2,-236 197,-427 434,-425z"/>
      </clipPath>
     <clipPath id="id7">
      <path d="M4508 3803l-3 316c-2,236 -198,427 -434,425l-1125 -11c-236,-2 -428,-198 -425,-434l3 -316 1984 20z"/>
     </clipPath>
      <clipPath id="id8">
      </clipPath>
      <clipPath id="id9">
       <path d="M4508 3803l-3 316c-2,236 -198,427 -434,425l-1125 -11c-236,-2 -428,-198 -425,-434l3 -316 1984 20z"/>
      </clipPath>
     <clipPath id="id10">
      <path d="M3263 2951l440 5 -1 141 -440 -4 1 -142z"/>
     </clipPath>
     <clipPath id="id11">
      <path d="M2754 3239c481,72 963,56 1446,-73 -106,886 -1257,752 -1446,73z"/>
     </clipPath>
      <clipPath id="id12">
       <path d="M2754 3239c233,35 466,49 699,40 8,0 16,-1 24,-1 15,-1 29,-2 43,-2l3 -1c14,0 29,-1 44,-2l22 -2 23 -2c15,-1 30,-3 45,-4 181,-18 362,-51 543,-99 -2,13 -4,27 -6,40l0 2c-2,11 -4,22 -7,33l-2 10c-1,9 -3,17 -5,25 -436,147 -899,173 -1390,62 -2,-5 -4,-10 -6,-15 -3,-5 -5,-10 -7,-16 -1,-3 -3,-7 -4,-10 -3,-8 -6,-16 -8,-24l-2 -5c-3,-9 -6,-18 -8,-27l-1 -2z"/>
      </clipPath>
      <clipPath id="id13">
       <path d="M2754 3239c481,72 963,56 1446,-73 -106,886 -1257,752 -1446,73z"/>
      </clipPath>
      <clipPath id="id14">
       <path d="M4027 3578c-4,4 -7,8 -11,12l-3 3c-7,7 -13,14 -20,20l-5 5c-6,6 -13,12 -20,18l-4 3c-8,7 -16,13 -24,19l-1 1c-14,10 -27,19 -41,28l-3 2c-8,5 -17,10 -25,15l-4 2c-8,4 -16,9 -25,13l-3 2c-15,7 -30,13 -45,19l-2 1c-9,4 -19,7 -28,10l-4 2c-9,3 -18,5 -26,8l-6 1c-9,3 -18,5 -26,7l-5 1c-16,4 -32,7 -48,10l-4 0c-9,2 -18,3 -27,4l-6 1c-9,1 -18,1 -27,2l-6 0c-16,1 -32,2 -48,2l-5 0c-9,0 -18,0 -28,0l-6 -1c-9,0 -18,-1 -27,-1l-6 -1c-9,-1 -19,-2 -29,-3l-3 0c-16,-2 -33,-5 -49,-8l-4 0c-10,-2 -19,-4 -29,-6l-5 -2c-10,-2 -19,-4 -28,-6l-4 -2c-17,-4 -33,-9 -49,-14l-1 0c-10,-4 -20,-8 -30,-11l-4 -2c-9,-3 -18,-7 -27,-11l-5 -2c-9,-4 -18,-8 -26,-12l-4 -2c-16,-7 -30,-15 -45,-23l-4 -2c-8,-5 -17,-9 -25,-15l-4 -2c-8,-5 -16,-10 -24,-15l-5 -3c-8,-6 -17,-12 -25,-18l-2 -1c339,53 689,27 1000,-48z"/>
      </clipPath>
      <clipPath id="id15">
       <path d="M2754 3239c481,72 963,56 1446,-73 -106,886 -1257,752 -1446,73z"/>
      </clipPath>
     <clipPath id="id16">
      <path d="M2484 5012l9 128c123,21 249,31 377,31 286,0 560,-52 812,-147l-1198 -12z"/>
     </clipPath>
     <clipPath id="id17">
      <path d="M2490 5036l28 -1161 2018 21 0 562c-251,264 -565,468 -918,589l-1128 -11z"/>
     </clipPath>
     <clipPath id="id18">
      <path d="M4470 4323c43,-113 55,-228 29,-347 126,28 237,60 332,99 -70,113 -149,220 -237,319 -33,-32 -74,-56 -124,-71z"/>
     </clipPath>
     <clipPath id="id19">
      <path d="M2161 4066l-120 169c-655,-422 -344,-905 -190,-1193l49 -128 87 19 -30 124 66 -119 92 31 -44 104 65 -93 74 32 -75 121 93 -24 26 82 -111 53 -138 79c-65,23 -283,367 156,743z"/>
     </clipPath>
     <clipPath id="id20">
      <path d="M2535 3967c30,117 66,213 44,298 -417,178 -591,199 -728,-25 202,-39 316,-163 343,-372 102,105 215,141 341,99z"/>
     </clipPath>
  <linearGradient id="id21" gradientUnits="userSpaceOnUse" x1="3546.06" y1="3570.62" x2="3517.29" y2="4718.12">
   <stop offset="0" style="stop-opacity:1; stop-color:#CB7246"/>
   <stop offset="1" style="stop-opacity:1; stop-color:#994E35"/>
  </linearGradient>
  <linearGradient id="id22" gradientUnits="userSpaceOnUse" xlink:href="#id21" x1="3545.69" y1="3608.46" x2="3516.92" y2="4755.95">
  </linearGradient>
 </defs>
 <g id="Capa_x0020_1">
  <metadata id="CorelCorpID_0Corel-Layer"/>
  <rect class="fil0" width="5740" height="5740"/>
  <circle class="fil1" cx="2870" cy="2870" r="2708"/>
  <g id="_2713690071280">
   <path class="fil2" d="M2870 569c1271,0 2301,1030 2301,2301 0,1271 -1030,2301 -2301,2301 -1271,0 -2301,-1030 -2301,-2301 0,-1271 1030,-2301 2301,-2301z"/>
   <g>
    <path class="fil3" d="M1860 4236c64,-107 160,-224 344,-369l104 129 -214 314 -148 -16c0,0 -84,-57 -86,-58z"/>
    <path class="fil4" d="M2978 1326l1125 11c236,3 428,198 425,434l-23 2385c-3,237 -198,428 -434,426l-1125 -11c-237,-3 -428,-198 -426,-434l24 -2386c2,-236 197,-427 434,-425z"/>
    <g style="clip-path:url(#id0)">
     <g>
      <path id="1" class="fil5" d="M4465 3502l-4 428c-3,236 -189,427 -415,425l-1073 -10c-226,-3 -409,-198 -406,-434l4 -428 1894 19z"/>
     </g>
     <g style="clip-path:url(#id1)">
      <g>
       <path id="2" class="fil6" d="M4192 2022l201 2 -7 710 562 5 7 -709 -54 -438 110 1 13 -1313 -2456 -25 -5 462 -396 -4 -86 1288 -7 710 591 6 7 -710 186 2 5 -437 1294 12c74,-98 231,-39 235,-217 46,231 -115,208 -196,308l-4 347z"/>
      </g>
     </g>
     <g style="clip-path:url(#id2)">
      <path class="fil0" d="M4465 3502l-4 428c-3,236 -189,427 -415,425l-1073 -10c-226,-3 -409,-198 -406,-434l4 -428 1894 19z"/>
      <path class="fil7" d="M4244 1363c167,60 286,221 284,408l-23 2385c-1,81 -24,156 -64,220l-227 -2 30 -3011z"/>
     </g>
     <g style="clip-path:url(#id3)">
      <g>
       <path id="1" class="fil8" d="M8686 2484l210 2 -7 710 589 5 7 -709 -57 -438 115 1 13 -1313 -2573 -26 -5 462 -415 -5 -90 1289 -7 709 620 7 7 -710 195 2 4 -438 1357 14c77,-98 242,-39 246,-218 48,232 -121,209 -206,308l-3 348z"/>
       <path class="fil9" d="M8905 3737l-4 427c-2,237 -189,428 -414,426l-1074 -11c-226,-2 -408,-197 -406,-434l4 -427 1894 19z"/>
      </g>
      <g style="clip-path:url(#id4)">
       <g>
        <path id="1" class="fil6" d="M8633 2257l200 2 -7 710 562 5 7 -710 -54 -438 110 2 13 -1314 -2456 -24 -5 461 -396 -3 -86 1288 -7 710 591 5 7 -709 186 1 5 -437 1295 13c73,-98 231,-39 234,-218 46,232 -115,209 -196,309l-3 347z"/>
       </g>
      </g>
      <g style="clip-path:url(#id5)">
       <path class="fil0" d="M8905 3737l-4 427c-2,237 -189,428 -414,426l-1074 -11c-226,-2 -408,-197 -406,-434l4 -427 1894 19z"/>
       <path class="fil6" d="M8663 2468l210 2 -7 710 589 6 7 -710 -57 -438 115 1 13 -1313 -2573 -26 -5 462 -415 -4 -90 1288 -7 710 620 6 7 -710 195 2 4 -437 1357 13c77,-98 242,-39 246,-217 48,232 -121,208 -206,308l-3 347z"/>
      </g>
     </g>
     <g style="clip-path:url(#id6)">
      <path class="fil0" d="M4244 1363c167,60 286,221 284,408l-23 2385c-1,81 -24,156 -64,220l-227 -2 30 -3011z"/>
      <path class="fil8" d="M4245 2249l210 2 -7 710 590 6 7 -710 -57 -438 115 1 13 -1313 -2574 -26 -4 462 -415 -4 -90 1288 -7 710 619 6 7 -710 196 2 4 -437 1357 13c77,-98 242,-39 245,-217 49,231 -120,208 -205,308l-4 347z"/>
      <path class="fil6" d="M4223 2233l210 2 -8 710 590 6 7 -710 -57 -438 115 2 13 -1314 -2573 -25 -5 461 -415 -4 -90 1288 -7 710 620 6 7 -710 195 2 4 -437 1357 14c77,-98 242,-40 246,-218 48,232 -121,209 -206,308l-3 347z"/>
     </g>
    </g>
    <path class="fil0" d="M2978 1326l1125 11c236,3 428,198 425,434l-23 2385c-3,237 -198,428 -434,426l-1125 -11c-237,-3 -428,-198 -426,-434l24 -2386c2,-236 197,-427 434,-425z"/>
    <path class="fil10" d="M4508 3803l-3 316c-2,236 -198,427 -434,425l-1125 -11c-236,-2 -428,-198 -425,-434l3 -316 1984 20z"/>
    <g style="clip-path:url(#id7)">
     <g>
      <path id="1" class="fil8" d="M473 3115l210 2 -7 709 589 6 7 -710 -57 -437 115 1 13 -1314 -2573 -25 -4 461 -416 -4 -89 1289 -7 709 619 7 7 -710 195 2 5 -438 1356 14c78,-98 242,-39 246,-218 48,232 -121,209 -205,308l-4 348z"/>
      <path class="fil9" d="M693 4367l-5 428c-2,237 -188,428 -414,426l-1074 -11c-225,-2 -408,-197 -405,-434l4 -427 1894 18z"/>
     </g>
     <g style="clip-path:url(#id8)">
      <g>
       <path id="1" class="fil6" d="M420 2888l200 2 -7 709 563 6 7 -710 -54 -438 109 1 13 -1313 -2456 -24 -4 461 -396 -4 -86 1289 -7 710 591 5 7 -709 186 1 4 -437 1295 13c74,-98 231,-39 235,-218 46,232 -115,209 -196,308l-4 348z"/>
      </g>
     </g>
     <g style="clip-path:url(#id9)">
      <path class="fil0" d="M693 4367l-5 428c-2,237 -188,428 -414,426l-1074 -11c-225,-2 -408,-197 -405,-434l4 -427 1894 18z"/>
      <path class="fil6" d="M450 3099l210 2 -7 710 589 6 7 -710 -57 -438 116 1 13 -1313 -2574 -26 -4 462 -415 -4 -90 1288 -7 710 619 6 7 -710 195 2 5 -437 1356 13c78,-98 242,-39 246,-217 48,232 -120,208 -205,308l-4 347z"/>
     </g>
    </g>
    <path class="fil0" d="M4508 3803l-3 316c-2,236 -198,427 -434,425l-1125 -11c-236,-2 -428,-198 -425,-434l3 -316 1984 20z"/>
    <path class="fil11" d="M2986 2413c89,1 160,74 160,163 -1,89 -74,160 -163,159 -89,-1 -160,-74 -159,-162 1,-89 74,-160 162,-160z"/>
    <path class="fil6" d="M2985 2518c31,0 56,26 56,57 0,31 -26,56 -57,56 -31,-1 -56,-26 -56,-57 1,-31 26,-57 57,-56z"/>
    <path class="fil12" d="M3014 2492c15,1 28,13 28,29 0,15 -13,28 -29,28 -15,0 -28,-13 -28,-29 0,-15 13,-28 29,-28z"/>
    <path class="fil11" d="M4014 2424c89,0 160,73 160,162 -1,89 -74,160 -163,159 -89,-1 -160,-73 -159,-162 1,-89 74,-160 162,-159z"/>
    <path class="fil6" d="M4013 2528c31,0 56,26 56,57 0,31 -26,56 -57,56 -31,-1 -56,-26 -56,-57 1,-31 26,-56 57,-56z"/>
    <path class="fil12" d="M4042 2503c15,0 28,13 28,28 0,16 -13,28 -29,28 -15,0 -28,-13 -28,-28 1,-16 13,-28 29,-28z"/>
    <polygon class="fil13" points="3263,2951 3703,2956 3702,3097 3262,3093 "/>
    <g style="clip-path:url(#id10)">
     <g>
      <rect class="fil14" transform="matrix(0.906287 0.00900236 -0.000871048 0.0876902 3263.32 2951.38)" width="485" height="156"/>
     </g>
    </g>
    <polygon class="fil0" points="3263,2951 3703,2956 3702,3097 3262,3093 "/>
    <path class="fil15" d="M2754 3239c481,72 963,56 1446,-73 -106,886 -1257,752 -1446,73z"/>
    <g style="clip-path:url(#id11)">
     <g>
      <path id="1" class="fil1" d="M2754 3239c481,72 963,56 1446,-73 -5,38 -12,75 -20,110 -435,147 -899,173 -1390,62 -14,-31 -26,-64 -36,-99z"/>
     </g>
     <g style="clip-path:url(#id12)">
      <g>
       <path id="2" class="fil16" d="M2705 3170c518,72 1038,56 1558,-73 -5,39 -12,57 -21,91 -400,148 -1289,119 -1498,81 -16,-32 -29,-65 -39,-99z"/>
      </g>
     </g>
     <g style="clip-path:url(#id13)">
      <path class="fil0" d="M2754 3239c481,72 963,56 1446,-73 -5,38 -12,75 -20,110 -435,147 -899,173 -1390,62 -14,-31 -26,-64 -36,-99z"/>
      <path class="fil17" d="M3957 3645c-242,196 -608,183 -878,16 186,-161 635,-209 878,-16z"/>
      <path class="fil18" d="M4027 3578c-249,279 -700,267 -1000,48 339,53 689,27 1000,-48z"/>
     </g>
     <g style="clip-path:url(#id14)">
      <g>
       <path id="1" class="fil1" d="M4018 3571c-72,34 -89,37 -210,110 -218,130 -549,115 -790,-62 339,54 688,28 1000,-48z"/>
      </g>
     </g>
     <g style="clip-path:url(#id15)">
      <path class="fil0" d="M4027 3578c-249,279 -700,267 -1000,48 339,53 689,27 1000,-48z"/>
     </g>
    </g>
    <path class="fil0" d="M2754 3239c481,72 963,56 1446,-73 -106,886 -1257,752 -1446,73z"/>
    <polygon class="fil19" points="3920,1954 4581,2332 4490,2491 3829,2113 "/>
    <polygon class="fil19" points="3204,1933 2535,2298 2623,2459 3292,2094 "/>
    <path class="fil0" d="M2484 5012l9 128c123,21 249,31 377,31 286,0 560,-52 812,-147l-1198 -12z"/>
    <path id="1" class="fil20" d="M2484 5012l9 128c123,21 249,31 377,31 286,0 560,-52 812,-147l-1198 -12z"/>
    <g style="clip-path:url(#id16)">
     <g>
      <g>
       <path id="2" class="fil21" d="M3542 4972l32 1c9,105 18,625 -40,762 30,-254 33,-508 8,-763z"/>
       <path class="fil21" d="M3500 4970l-31 -1c-12,105 -31,625 24,763 -24,-254 -22,-508 7,-762z"/>
      </g>
      <g>
       <path class="fil22" d="M2822 5010c-1,-9 6,-17 16,-17 3,0 6,0 8,2 1,-8 8,-14 16,-14l0 0 1 0 0 0 1 0 1 0 0 0 0 0 1 0 1 0 0 0 1 0 0 0 1 0 1 0 0 0 0 0 1 0 1 0 0 0 1 0 1 0 0 0 1 0 0 0 1 0 0 0 1 -1 1 0 0 0 1 0 0 0 1 0 0 0 1 0 1 0 0 0 0 0 1 0 1 0 0 0 1 0 0 0 1 0 1 0 0 0 0 0 1 0 1 0 0 0 1 0 0 0 1 0 0 1c9,0 17,7 17,16 0,9 -8,16 -16,16 -9,0 -20,0 -29,1 -3,0 -6,-1 -8,-2l0 1 0 1c-17,0 -31,-1 -33,-4zm-1 29c-1,9 -9,15 -18,14 -9,-1 -15,-9 -15,-18l0 0 0 0 0 0 1 -2 0 -1 0 -2 0 -1 0 -2 0 -2 0 -1 0 -2 0 -1 0 -2 0 -1 0 -2 0 -2 0 -1 0 -2 33 -1c0,10 0,19 -1,29zm-52 68c4,-8 13,-12 22,-8 8,3 12,13 8,21 -4,9 -8,18 -13,27 -5,7 -14,10 -22,5 -8,-4 -11,-14 -6,-22l0 -1 1 -2 1 -1 1 -2 1 -1 0 -2 1 -2 1 -1 1 -2 1 -2 0 -1 1 -2 1 -1 1 -2 0 -1 0 0zm-57 86c6,-7 17,-7 23,-1 7,6 8,15 2,22 -6,8 -13,15 -21,22 -6,6 -16,5 -22,-1 -7,-6 -7,-17 0,-23l0 0 0 -1 2 -1 1 -2 2 -1 1 -1 2 -2 1 -1 1 -2 2 -1 1 -2 1 -1 2 -1 1 -2 1 -1 0 0zm78 64c7,-6 18,-5 24,2 6,7 5,17 -2,23l0 0 -1 1 -2 1 -2 2 -2 2 -2 2 -3 2 -2 1 -2 2 -2 2 -2 2 -3 1 -1 1 0 0c-7,6 -17,4 -23,-3 -5,-7 -4,-18 3,-23l0 0c8,-6 15,-12 22,-18zm-158 4c8,-5 18,-3 23,5 5,7 3,17 -4,22 -9,5 -17,10 -26,15 -8,4 -18,1 -22,-6 -4,-8 -1,-18 6,-23l2 -1 2 -1 2 -1 1 -1 2 -1 2 -1 2 -1 1 -1 2 -1 2 -1 2 -1 1 -1 2 -1 0 0zm65 61l0 0c8,-4 18,-2 23,6 4,8 1,18 -7,23l0 0 0 0 -3 1 -2 2 -3 1 -2 2 -3 1 -2 1 -3 2 -2 1 -3 1 -3 2 0 0 0 0 0 0c-8,4 -18,1 -22,-7 -4,-9 -1,-19 7,-23 9,-4 17,-8 25,-13zm-160 -17l0 0 0 0 0 0c9,-3 18,2 21,11 3,8 -2,17 -10,20 -10,3 -20,5 -30,8 -8,1 -16,-4 -18,-13 -2,-9 3,-18 12,-20l2 0 2 -1 2 0 2 0 2 -1 2 0 2 -1 2 -1 2 0 2 -1 2 0 2 -1 1 0zm-110 83l0 0c-3,-8 1,-18 9,-21 9,-4 18,0 22,9l0 0m21 44l0 0 -1 0 0 0 0 0 -1 0 -2 0 0 0 0 0 -1 0 -1 0 -1 0 0 0 -1 0 0 0 -1 0 -1 0 -1 -1 0 0 -1 0 0 0 -1 0 -1 0 0 0 -1 0 -1 -1 0 0 -1 0 -1 0 0 0 -1 0 -1 -1 -1 0 0 0 -1 0 -1 -1 0 0 -1 0 0 0 -1 0 -1 -1 -1 0 0 0 0 -1 -1 0 -1 0 -1 -1 0 0 0 0 -1 -1 -1 0 -1 0 0 -1 -1 0 0 -1 -1 0 0 0 -1 -1 -1 0 0 -1 0 0 -1 0 -1 -1 0 -1 0 0 -1 -1 -1 0 0 0 -1 -1 0 0 -1 -1 0 0 -1 -1 0 -1 0 0 -1 0 -1 -1 0 -1 0 0 -1 -1 0 0 0 -1 -1 0 0 -1 0 0 -1 -1 0 0 0 -1 0 -1 -1 0 0 -1 -1 -1 0 0 0 0 0 0 0 -1 -1 -1 0 0 0 -1 0 0m54 -1l0 0c10,0 17,7 17,16 0,9 -7,17 -16,17l0 0 0 0 -3 0m95 -13l0 0c-9,2 -18,-3 -20,-12 -2,-9 3,-18 12,-20l0 0c9,-2 18,-5 27,-7l0 0c9,-3 18,2 21,10 3,9 -2,18 -11,21l0 0 -1 0 -3 1 -2 1 -3 1 -3 1 -3 0 -3 1 -2 1 -3 1 -3 0 -3 1 0 0 0 0zm302 -189c-6,7 -16,8 -23,2 -7,-6 -8,-16 -2,-23l0 0c6,-8 12,-15 17,-23l0 0c6,-7 16,-8 23,-3 8,5 9,16 4,23l0 0 -1 1 -1 2 -2 2 -2 2 -1 2 -2 2 -1 2 -2 2 -2 2 -1 2 -2 2 -2 2 0 1 0 0zm64 -106c-3,8 -12,12 -21,9 -8,-3 -13,-12 -9,-21 3,-9 6,-18 8,-27l0 0c2,-9 10,-15 19,-13 9,2 15,11 13,20l0 0 0 0 0 0 0 0 -1 3 0 2 -1 2 0 2 -1 3 -1 2 0 2 -1 2 -1 2 0 3 -1 2 -1 2 -1 2 -1 2 0 1 0 0z"/>
       <path id="1" class="fil21" d="M2822 5010c7,158 -170,332 -361,341 -4,0 -15,37 18,36 218,-3 464,-219 441,-369 -1,-10 -94,0 -98,-8z"/>
      </g>
      <g>
       <path class="fil22" d="M4183 5007c3,-1 6,-1 8,-1 9,1 16,8 16,18 -1,9 -1,19 0,29 1,8 8,15 17,14 9,0 16,-8 16,-17l0 0 0 -1 0 -1 -1 -2 0 -2 0 -1 0 -2 0 -1 0 -2 0 -1 0 -2 0 -2 0 -1 0 -2 0 -1 0 -2 1 -1 -33 -2c-2,3 -16,3 -33,3l0 -1 0 -1c-2,1 -5,2 -7,2l0 0 0 0c-10,-1 -20,-1 -29,-1 -9,0 -16,-8 -16,-17 0,-9 7,-16 17,-16l0 0 0 0 0 0 1 0 0 0 1 0 1 0 0 0 1 0 0 0 1 0 0 0 1 0 0 0 1 0 1 0 0 0 1 0 0 0 1 0 0 0 1 0 1 0 0 0 1 0 0 0 1 0 0 0 1 0 0 0 1 0 1 0 0 0 1 0 0 0 1 0 1 0 0 0 0 0 1 0 1 0 0 0 1 0 0 0 1 0 1 1 0 0 0 0 1 0 1 0 0 0 1 0 1 0 0 0c8,0 14,6 15,13zm44 127c-3,-9 1,-18 9,-21 8,-4 18,0 22,9l0 1 1 1 0 2 1 2 1 1 1 2 0 2 1 1 1 2 1 1 1 2 0 2 1 1 1 2 1 1 0 0c4,8 1,18 -7,22 -8,4 -18,2 -22,-6 -5,-9 -9,-18 -13,-27zm60 96c-5,-7 -4,-17 2,-23 7,-6 18,-5 24,2l1 1 1 2 1 1 2 1 1 2 1 1 2 2 1 1 1 2 2 1 1 2 2 1 1 2 1 0 0 0c6,6 6,17 -1,23 -6,7 -16,7 -22,1 -8,-8 -14,-15 -21,-22zm-32 59l0 0c7,6 8,16 2,24 -6,7 -16,8 -23,2l0 0 -1 0 -2 -2 -2 -2 -2 -2 -2 -1 -2 -2 -3 -2 -2 -2 -2 -2 -2 -2 -2 -1 -1 -1 0 0c-7,-6 -7,-17 -1,-24 6,-6 16,-7 23,-1 7,6 14,12 22,18zm117 16c-7,-5 -8,-15 -4,-22 6,-8 16,-10 23,-5l0 0 2 1 2 1 1 1 2 2 2 1 2 1 1 1 2 1 2 1 2 1 2 1 1 1 2 1 0 0c8,5 10,15 6,23 -5,7 -14,10 -22,6 -9,-5 -17,-10 -26,-16zm-22 47c8,4 11,14 7,22 -5,8 -15,11 -23,7l0 0 0 0 -3 -1 -2 -2 -3 -1 -2 -2 -3 -1 -2 -1 -3 -2 -2 -1 -3 -2 -2 -1 -1 -1c-8,-4 -10,-14 -6,-22 5,-8 15,-11 23,-6l0 0c8,5 16,10 25,14zm124 3c-8,-3 -12,-12 -10,-20 3,-9 13,-14 21,-11l0 0 2 1 2 0 2 1 2 0 2 1 2 1 2 0 2 1 2 0 2 1 2 0 2 1 1 0 0 0c9,2 14,11 12,20 -2,9 -10,14 -19,12 -9,-2 -19,-5 -29,-8zm90 42c3,-8 13,-12 21,-9 8,4 12,14 9,22l0 0 0 0 -1 1 0 1 0 0 0 1 -1 0 0 1 0 0 -1 1 0 1 0 0 0 0 -1 1 0 1 -1 0 0 1 0 0 -1 1 0 1 0 -1 -1 1 -1 1 0 0 0 1 -1 0 0 1 -1 0 0 1 -1 1 0 0 0 0 -1 1 0 0 -2 1 0 0 0 1 -1 0 0 0 -1 1 0 0 -1 1 0 0 -1 1 -1 0 0 0 -1 1 -1 0 0 1 -1 0 0 0 -1 1 -1 0 0 0 -1 0 -1 1 -1 0 0 0 0 0 -1 1 -1 0 -1 0 0 0 0 1 -1 0 -1 0 -1 0 0 0 -1 1 -1 0 -1 0 -1 0 0 0 0 0 -1 0 -1 1 -1 0 0 0 -1 0 -1 0 0 0 -1 0 -1 0 0 0 0 0 -1 0 -1 1 -1 0 -1 0 0 0 -1 0 0 0 -1 0 -1 0 -1 0 0 0 -1 0 0 0 -3 -1 0 0 0 0c-9,0 -16,-8 -16,-17 1,-9 8,-16 17,-15l0 0m-84 -14c9,2 14,11 12,20 -2,9 -12,14 -20,12l0 0 0 0 -1 0 -3 -1 -2 -1 -3 -1 -3 0 -3 -1 -2 -1 -3 -1 -3 -1 -3 -1 -2 -1 -2 0 0 0c-8,-3 -13,-12 -10,-21 3,-8 12,-13 21,-10l0 0c9,3 18,6 27,8l0 0zm-307 -164l0 0 0 0 -2 -2 -1 -2 -2 -2 -1 -2 -2 -2 -2 -3 -1 -2 -2 -2 -1 -2 -2 -2 -1 -2 -1 -1 0 0c-5,-8 -4,-18 4,-23 7,-5 17,-4 23,4l0 0c5,7 11,15 17,22l0 0c6,8 4,18 -3,24 -7,5 -17,4 -23,-3l0 0zm-31 -119c3,9 -1,18 -10,21 -9,3 -18,-1 -21,-10l-1 -1 0 -3 -1 -2 -1 -2 -1 -2 0 -2 -1 -3 0 -2 -1 -2 -1 -2 0 -3 -1 -2 0 -2 -1 -2 0 -1 0 0c-2,-9 4,-18 13,-20 9,-2 18,4 20,13l0 0c1,9 4,18 7,27l0 0z"/>
       <path id="1" class="fil21" d="M4207 5024c-10,158 163,335 353,348 4,0 15,37 -18,36 -218,-8 -459,-229 -434,-378 2,-10 94,2 99,-6z"/>
      </g>
      <polygon class="fil21" points="3066,5697 2823,7633 3082,7780 3848,7774 4124,7661 3977,5706 "/>
     </g>
    </g>
    <path class="fil23" d="M2490 5036l28 -1161 2018 21 0 562c-251,264 -565,468 -918,589l-1128 -11z"/>
    <g style="clip-path:url(#id17)">
     <g id="_2713690091312">
      <rect class="fil24" transform="matrix(3.73488 0.0370995 -0.0511156 5.14592 3451.03 3905.81)" width="41.34" height="223.24"/>
      <rect class="fil25" transform="matrix(2.54051 0.0252355 -0.0511156 5.14592 3475.72 3906.06)" width="41.34" height="223.24"/>
      <rect class="fil25" transform="matrix(0.547493 0.00543838 -0.0587253 5.912 2628.44 3741.92)" width="41.34" height="223.24"/>
      <rect class="fil25" transform="matrix(0.547493 0.00543838 -0.0587253 5.912 2725.62 3742.89)" width="41.34" height="223.24"/>
      <rect class="fil25" transform="matrix(0.547493 0.00543838 -0.0587253 5.912 2822.8 3743.85)" width="41.34" height="223.24"/>
      <rect class="fil25" transform="matrix(0.547493 0.00543838 -0.0587253 5.912 2919.98 3744.82)" width="41.34" height="223.24"/>
      <rect class="fil25" transform="matrix(0.547493 0.00543838 -0.0587253 5.912 3017.17 3745.78)" width="41.34" height="223.24"/>
      <rect class="fil25" transform="matrix(0.547493 0.00543838 -0.0587253 5.912 3114.35 3746.75)" width="41.34" height="223.24"/>
      <rect class="fil25" transform="matrix(0.547493 0.00543838 -0.0587253 5.912 3211.53 3747.71)" width="41.34" height="223.24"/>
      <rect class="fil25" transform="matrix(0.547493 0.00543838 -0.0587253 5.912 3308.71 3748.68)" width="41.34" height="223.24"/>
      <rect class="fil25" transform="matrix(-0.547493 -0.00543838 -0.0587253 5.912 4420.31 3780.19)" width="41.34" height="223.24"/>
      <rect class="fil25" transform="matrix(-0.547493 -0.00543838 -0.0587253 5.912 4323.12 3779.22)" width="41.34" height="223.24"/>
      <rect class="fil25" transform="matrix(-0.547493 -0.00543838 -0.0587253 5.912 4225.94 3778.26)" width="41.34" height="223.24"/>
      <rect class="fil25" transform="matrix(-0.547493 -0.00543838 -0.0587253 5.912 4128.76 3777.29)" width="41.34" height="223.24"/>
      <rect class="fil25" transform="matrix(-0.547493 -0.00543838 -0.0587253 5.912 4031.58 3776.33)" width="41.34" height="223.24"/>
      <rect class="fil25" transform="matrix(-0.547493 -0.00543838 -0.0587253 5.912 3934.4 3775.36)" width="41.34" height="223.24"/>
      <rect class="fil25" transform="matrix(-0.547493 -0.00543838 -0.0587253 5.912 3837.22 3774.4)" width="41.34" height="223.24"/>
      <rect class="fil25" transform="matrix(-0.547493 -0.00543838 -0.0587253 5.912 3740.04 3773.43)" width="41.34" height="223.24"/>
      <path class="fil24" d="M2479 3941l2 -104 1010 2 -136 313 -876 -211zm1079 -102l1016 2 0 119 -886 195 -130 -316z"/>
     </g>
    </g>
    <path class="fil0" d="M2490 5036l28 -1161 2018 21 0 562c-251,264 -565,468 -918,589l-1128 -11z"/>
    <polygon class="fil26" points="3475,4180 3410,4726 3520,4884 3636,4728 3579,4181 "/>
    <path class="fil17" d="M3368 4109l105 91c36,-9 73,-11 108,0l109 -90 -84 -228 -142 -2 -96 229z"/>
    <path class="fil0" d="M4470 4323c43,-113 55,-228 29,-347 126,28 237,60 332,99 -70,113 -149,220 -237,319 -33,-32 -74,-56 -124,-71z"/>
    <path id="1" class="fil23" d="M4470 4323c43,-113 55,-228 29,-347 126,28 237,60 332,99 -70,113 -149,220 -237,319 -33,-32 -74,-56 -124,-71z"/>
    <g style="clip-path:url(#id18)">
     <g id="_2713690086064">
      <path id="2" class="fil24" d="M4405 4322c202,-14 435,30 433,215l-79 121 -150 18 -180 -204 -24 -150z"/>
     </g>
    </g>
    <path class="fil0" d="M2161 4066l-120 169c-655,-422 -344,-905 -190,-1193l49 -128 87 19 -30 124 66 -119 92 31 -44 104 65 -93 74 32 -75 121 93 -24 26 82 -111 53 -138 79c-65,23 -283,367 156,743z"/>
    <path id="1" class="fil5" d="M2161 4066l-120 169c-655,-422 -344,-905 -190,-1193l49 -128 87 19 -30 124 66 -119 92 31 -44 104 65 -93 74 32 -75 121 93 -24 26 82 -111 53 -138 79c-65,23 -283,367 156,743z"/>
    <g style="clip-path:url(#id19)">
     <g id="_2713690077744">
      <path id="2" class="fil27" d="M2213 3071l-102 -56 42 -80 114 -60 23 84 -48 77c0,0 -30,36 -29,35z"/>
      <polygon class="fil27" points="2103,3011 1987,2980 2013,2914 2117,2840 2148,2912 "/>
      <path class="fil27" d="M1978 2992l-66 -11c-167,631 -430,716 25,1155 18,18 149,-191 273,-243 60,-26 212,118 224,128l-439 257 -514 -286 237 -733 161 -355 97 -84 38 69 -36 103z"/>
     </g>
    </g>
    <path class="fil0" d="M2535 3967c30,117 66,213 44,298 -417,178 -591,199 -728,-25 202,-39 316,-163 343,-372 102,105 215,141 341,99z"/>
    <path id="1" class="fil23" d="M2535 3967c30,117 66,213 44,298 -417,178 -591,199 -728,-25 202,-39 316,-163 343,-372 102,105 215,141 341,99z"/>
    <g style="clip-path:url(#id20)">
     <g id="_2713690074544">
      <path id="2" class="fil24" d="M2872 4230c-157,128 -1059,373 -1165,222l-5 -145 251 -218c171,278 577,51 919,141z"/>
     </g>
    </g>
   </g>
  </g>
 </g>
</svg>
