<?xml version="1.0" encoding="UTF-8"?>
<!DOCTYPE svg PUBLIC "-//W3C//DTD SVG 1.1//EN" "http://www.w3.org/Graphics/SVG/1.1/DTD/svg11.dtd">
<!-- Creator: CorelDRAW X8 -->
<svg xmlns="http://www.w3.org/2000/svg" xml:space="preserve" width="57.4038mm" height="57.4038mm" version="1.1" style="shape-rendering:geometricPrecision; text-rendering:geometricPrecision; image-rendering:optimizeQuality; fill-rule:evenodd; clip-rule:evenodd"
viewBox="0 0 5740 5740"
 xmlns:xlink="http://www.w3.org/1999/xlink">
 <defs>
  <style type="text/css">
   <![CDATA[
    .fil0 {fill:none}
    .fil1 {fill:#FEFEFE}
    .fil2 {fill:#D2D3D5}
    .fil7 {fill:#F1E1D4}
    .fil9 {fill:#F0627C}
    .fil8 {fill:#E8D7CA}
    .fil15 {fill:black}
    .fil6 {fill:#3B0F2B}
    .fil5 {fill:#3F0D2A}
    .fil4 {fill:#490E2E}
    .fil3 {fill:#611533}
    .fil12 {fill:#780808}
    .fil14 {fill:#AD3A23}
    .fil11 {fill:#C9472D}
    .fil13 {fill:#D12E26}
    .fil16 {fill:#FF627C}
    .fil10 {fill:url(#id0)}
   ]]>
  </style>
  <linearGradient id="id0" gradientUnits="userSpaceOnUse" x1="2814.91" y1="3567.17" x2="2816.01" y2="4274.07">
   <stop offset="0" style="stop-opacity:1; stop-color:#A6351E"/>
   <stop offset="1" style="stop-opacity:1; stop-color:#C9472D"/>
  </linearGradient>
 </defs>
 <g id="Capa_x0020_1">
  <metadata id="CorelCorpID_0Corel-Layer"/>
  <rect class="fil0" width="5740" height="5740"/>
  <g id="_2713702056896">
   <circle class="fil1" cx="2870" cy="2870" r="2708"/>
   <g>
    <circle class="fil2" cx="2870" cy="2870" r="2295"/>
    <g>
     <path class="fil3" d="M4590 3195c111,100 194,258 220,446 51,361 -125,698 -393,753 -783,160 -509,383 -795,383 -115,0 -217,-69 -289,-179 -44,156 -152,267 -279,267 -118,0 -220,-95 -269,-234 -49,139 -151,234 -268,234 -117,0 -218,-93 -267,-229 -70,87 -161,141 -262,141 -199,0 -363,-209 -388,-480 -55,49 -119,83 -189,97 -117,24 -232,-10 -329,-85 -79,-98 -150,-202 -212,-312 -17,-50 -29,-102 -37,-158 -46,-322 89,-624 309,-725 -121,-125 -186,-321 -156,-529 34,-248 192,-442 385,-505 -23,-219 99,-450 323,-574 144,-79 302,-99 443,-68 15,-97 78,-190 177,-244 141,-78 307,-54 400,49 42,-88 114,-166 210,-219 224,-124 497,-61 607,140 53,96 60,206 27,309 54,-49 118,-90 192,-117 274,-103 570,13 662,258 54,144 24,302 -65,427 252,-18 486,199 534,507 44,282 -82,548 -291,647z"/>
     <path class="fil4" d="M4599 4304c-53,45 -115,76 -182,90 -149,30 -295,-33 -404,-157 -4,299 -178,540 -391,540 -115,0 -217,-69 -289,-179 -44,156 -152,267 -279,267 -118,0 -220,-95 -269,-234 -49,139 -151,234 -268,234 -117,0 -218,-93 -267,-229 -70,87 -161,141 -262,141 -55,0 -434,-89 -686,-232 -83,-77 -159,-160 -229,-248 -49,-200 -85,-371 -97,-459 -45,-315 82,-575 284,-668 -111,-115 -171,-295 -144,-487 32,-229 177,-408 356,-466 -22,-201 90,-414 297,-528 132,-73 278,-92 408,-63 14,-89 72,-175 164,-225 129,-71 282,-49 367,46 39,-81 105,-153 194,-202 207,-114 458,-57 560,128 48,89 54,191 24,285 50,-45 109,-82 177,-108 252,-94 525,12 610,238 49,133 22,278 -60,394 232,-17 447,183 492,467 41,260 -76,505 -268,596 102,92 167,157 203,410 13,92 -4,352 -41,649z"/>
     <path class="fil5" d="M4503 4365c-114,137 -649,412 -881,412 -115,0 -217,-69 -289,-179 -44,156 -152,267 -279,267 -118,0 -220,-95 -269,-234 -49,139 -151,234 -268,234 -117,0 -218,-93 -267,-229 -70,87 -161,141 -262,141 -199,0 -363,-209 -388,-480 -55,49 -119,83 -189,97 -56,11 -112,10 -166,-4 -51,-205 -89,-384 -101,-473 -41,-292 76,-533 264,-620 -104,-106 -159,-274 -134,-451 30,-212 165,-378 330,-432 -20,-187 84,-385 276,-491 123,-67 258,-84 378,-58 13,-82 67,-161 152,-208 120,-66 262,-46 341,42 36,-75 97,-142 179,-187 193,-106 425,-53 520,119 45,82 51,177 23,264 45,-42 101,-76 164,-100 234,-87 487,12 565,221 46,123 21,258 -56,365 216,-15 416,170 457,433 38,241 -70,468 -249,553 95,85 156,146 189,381 12,86 -5,336 -40,617z"/>
     <path class="fil6" d="M4229 4384c-441,295 -24,393 -607,393 -115,0 -217,-69 -289,-179 -44,156 -152,267 -279,267 -118,0 -220,-95 -269,-234 -49,139 -151,234 -268,234 -117,0 -218,-93 -267,-229 -70,87 -161,141 -262,141 -199,0 -363,-209 -388,-480 -9,8 -18,15 -27,22 -53,-203 -93,-389 -105,-474 -34,-242 63,-443 219,-514 -86,-88 -132,-227 -111,-374 25,-176 136,-314 273,-358 -16,-155 70,-319 229,-407 101,-56 214,-70 313,-48 11,-68 56,-134 126,-173 99,-54 217,-37 283,35 29,-62 35,-92 148,-155 114,-62 290,57 348,163 58,105 125,82 102,155 37,-35 83,-63 135,-83 194,-72 404,10 469,183 38,102 17,214 -46,302 179,-12 344,142 378,360 32,199 -58,388 -206,458 79,70 129,121 156,315 13,89 -11,383 -55,680z"/>
     <path class="fil7" d="M4287 4676c-222,-482 -719,-585 -1459,-609 -642,-21 -1236,27 -1522,482 410,382 960,616 1564,616 535,0 1027,-183 1417,-489z"/>
     <path class="fil8" d="M4287 4676c-222,-482 -719,-585 -1459,-609 -642,-21 -1236,27 -1522,482 171,160 366,293 579,395 23,-32 42,-69 58,-108 88,-219 272,-388 502,-252 248,147 611,-70 692,-44 186,60 306,305 482,500 244,-84 469,-208 668,-364z"/>
     <path class="fil9" d="M3445 4121c47,315 81,629 105,942 271,-84 520,-217 738,-388 -146,-323 -422,-514 -843,-554z"/>
     <path class="fil10" d="M2555 3410l513 0c-176,430 -31,635 357,658l22 53c-436,175 -861,139 -1334,-25l25 -31c377,12 536,-187 417,-655z"/>
     <path class="fil11" d="M2851 2100c336,0 567,-64 567,495 0,560 -272,1013 -609,1013 -336,0 -609,-453 -609,-1013 0,-559 315,-495 651,-495z"/>
     <path class="fil6" d="M2213 2903c44,23 77,99 77,190 0,109 -60,236 -104,197 -135,-118 45,-334 4,-599 -50,-327 -20,-349 88,-618 40,-100 213,-49 308,-106 326,-197 337,-220 634,43 118,105 164,260 196,415 9,44 46,213 70,370 10,59 43,61 42,175 -133,-77 -206,-212 -166,-309 6,-14 13,-25 22,-36 -137,-73 -218,-209 -185,-308 -54,29 -125,43 -202,36 -106,-10 -197,-58 -244,-122 -11,50 -37,106 -76,157 -46,61 -102,104 -153,122 -11,23 -24,46 -41,68 -63,83 -146,128 -203,115 -1,20 -3,41 -7,63 -11,59 -33,111 -60,147z"/>
     <path class="fil5" d="M2031 2567c-43,-45 -52,-122 -18,-190 26,-53 72,-89 120,-99 -22,-55 7,-129 73,-173 18,-12 37,-21 56,-26 2,-46 31,-96 80,-128 52,-35 113,-42 158,-21 18,-49 72,-88 140,-94 25,-2 50,0 72,7 14,-54 72,-97 144,-104 65,-6 124,20 152,62 26,-21 61,-36 100,-40 88,-8 163,41 170,109 0,6 0,13 0,19 33,0 69,11 102,32 72,49 101,135 63,192 -5,6 -10,11 -15,16 10,5 20,11 30,17 63,42 93,112 75,167 36,15 70,47 90,91 32,68 22,141 -20,180 46,25 79,86 79,158 1,94 -53,172 -122,173 -62,0 -114,-62 -124,-145 -31,-64 -40,-126 -28,-155 23,-55 13,-25 22,-36 -138,-73 -246,-258 -213,-358 -54,29 -134,68 -225,60 -92,-9 -197,-58 -245,-122 -11,50 -36,106 -75,157 -46,61 -102,104 -153,122 -11,23 -25,46 -41,68 -64,83 -147,128 -204,115 0,20 1,23 -7,63 -6,32 -33,104 -64,145 24,46 39,108 39,177 0,143 -65,260 -145,260 -79,0 -144,-117 -144,-260 0,-54 9,-104 24,-146 -58,-41 -75,-129 -36,-206 21,-41 54,-72 90,-87z"/>
     <path class="fil3" d="M2494 2141c112,-177 225,-136 395,-57 -191,24 18,-5 -160,28 -130,24 -112,-30 -235,29z"/>
     <path class="fil4" d="M2834 2121c-5,-63 140,-206 286,-82 38,32 60,61 111,74l2 1 -2 0c-111,30 -350,-92 -397,7z"/>
     <g>
      <g>
       <path class="fil12" d="M2818 3135c114,0 217,24 215,59 -4,70 -87,185 -210,185 -129,0 -193,-116 -202,-184 -4,-36 83,-60 197,-60z"/>
       <path class="fil1" d="M2818 3135c76,0 146,10 185,28 -43,43 -107,77 -184,77 -80,0 -138,-33 -177,-75 32,-19 98,-30 176,-30z"/>
       <path class="fil13" d="M2994 3288c-3,-2 -6,-4 -8,-5 -58,-34 -126,-27 -151,17l-1 1c-22,-19 -54,-30 -89,-30 -32,0 -60,9 -82,24 33,46 86,84 160,84 74,0 134,-43 171,-91z"/>
      </g>
      <path class="fil14" d="M2829 3405c18,0 40,14 40,32 0,17 -22,6 -40,6 -17,0 -44,13 -44,-5 0,-18 27,-33 44,-33z"/>
      <g>
       <g>
        <path class="fil15" d="M2561 2632c40,0 72,48 72,107 0,59 -32,107 -72,107 -41,0 -73,-48 -73,-107 0,-59 32,-107 73,-107z"/>
        <path class="fil1" d="M2562 2665c0,12 -27,22 -61,22 -33,0 -60,-10 -60,-22 0,-13 27,-23 60,-23 34,0 61,10 61,23z"/>
       </g>
       <g>
        <path class="fil15" d="M3094 2632c-41,0 -73,48 -73,107 0,59 32,107 73,107 40,0 72,-48 72,-107 0,-59 -32,-107 -72,-107z"/>
        <path class="fil1" d="M3092 2665c0,12 27,22 61,22 33,0 60,-10 60,-22 0,-13 -27,-23 -60,-23 -34,0 -61,10 -61,23z"/>
       </g>
      </g>
      <g>
       <path class="fil14" d="M2828 2912c53,0 96,52 96,102 0,50 -42,38 -95,38 -53,0 -98,12 -98,-38 0,-50 44,-102 97,-102z"/>
       <g>
        <path class="fil15" d="M2382 2439c99,-69 269,-104 306,54 5,23 4,18 -18,15 -87,-13 -206,-60 -286,-53 -32,3 -44,13 -2,-16z"/>
        <path class="fil15" d="M3272 2439c-98,-69 -269,-104 -305,54 -6,23 -5,18 18,15 86,-13 205,-60 285,-53 32,3 44,13 2,-16z"/>
       </g>
       <polygon class="fil0" points="2703,2336 2952,2336 2952,3086 2703,3086 "/>
      </g>
     </g>
     <path class="fil16" d="M4173 4488c50,59 95,115 138,169 -75,60 -153,116 -235,166 -23,-178 -5,-308 97,-335z"/>
     <path class="fil9" d="M2113 4094c-43,303 -78,604 -106,903 -264,-107 -503,-262 -708,-454 164,-255 446,-414 814,-449z"/>
     <path class="fil16" d="M1346 4488c-16,19 -31,37 -46,56 48,45 99,89 151,130 -4,-99 -34,-167 -105,-186z"/>
    </g>
   </g>
  </g>
 </g>
</svg>
