<?xml version="1.0" encoding="UTF-8"?>
<!DOCTYPE svg PUBLIC "-//W3C//DTD SVG 1.1//EN" "http://www.w3.org/Graphics/SVG/1.1/DTD/svg11.dtd">
<!-- Creator: CorelDRAW X8 -->
<svg xmlns="http://www.w3.org/2000/svg" xml:space="preserve" width="57.4038mm" height="57.4038mm" version="1.1" style="shape-rendering:geometricPrecision; text-rendering:geometricPrecision; image-rendering:optimizeQuality; fill-rule:evenodd; clip-rule:evenodd"
viewBox="0 0 5740 5740"
 xmlns:xlink="http://www.w3.org/1999/xlink">
 <defs>
  <style type="text/css">
   <![CDATA[
    .str0 {stroke:#373435;stroke-width:7.62}
    .fil0 {fill:none}
    .fil1 {fill:#FEFEFE}
    .fil9 {fill:#373435}
    .fil16 {fill:black}
    .fil13 {fill:#3B0F2B}
    .fil12 {fill:#3F0D2A}
    .fil11 {fill:#490E2E}
    .fil10 {fill:#611533}
    .fil15 {fill:#88101C}
    .fil8 {fill:#8A121D}
    .fil7 {fill:#AB2E25}
    .fil5 {fill:#AF4A42}
    .fil4 {fill:#C35D46}
    .fil3 {fill:#C9472D}
    .fil6 {fill:#DD6F54}
    .fil2 {fill:#FFDD94}
    .fil17 {fill:white}
    .fil18 {fill:black;fill-rule:nonzero}
    .fil14 {fill:url(#id0)}
   ]]>
  </style>
  <linearGradient id="id0" gradientUnits="userSpaceOnUse" x1="2855.7" y1="3027.52" x2="2866.05" y2="2107.02">
   <stop offset="0" style="stop-opacity:1; stop-color:#88101C"/>
   <stop offset="1" style="stop-opacity:1; stop-color:#C9472D"/>
  </linearGradient>
 </defs>
 <g id="Capa_x0020_1">
  <metadata id="CorelCorpID_0Corel-Layer"/>
  <rect class="fil0" width="5740" height="5740"/>
  <circle class="fil1" cx="2870" cy="2870" r="2708"/>
  <path class="fil2" d="M2870 569c1271,0 2301,1030 2301,2301 0,1271 -1030,2301 -2301,2301 -1271,0 -2301,-1030 -2301,-2301 0,-1271 1030,-2301 2301,-2301z"/>
  <g id="_2713555693232">
   <g>
    <path class="fil3" d="M1365 4611c20,-36 42,-70 67,-102l721 -385 392 -260 -37 -677 688 21 -11 672 409 252 730 367c21,35 41,70 59,105 -405,353 -934,567 -1513,567 -575,0 -1102,-211 -1505,-560z"/>
    <path class="fil4" d="M1365 4611c20,-36 42,-70 67,-102l694 -370 0 0 48 44 124 71 186 55 144 34 124 0 133 6 142 -11 139 -16 108 -13 92 -29 63 -31 65 -34 100 -83 730 367c21,35 41,70 59,105 -405,353 -934,567 -1513,567 -575,0 -1102,-211 -1505,-560z"/>
    <path class="fil5" d="M1365 4611c20,-36 42,-70 67,-102 543,627 1936,731 2892,-10 21,35 41,70 59,105 -405,353 -934,567 -1513,567 -575,0 -1102,-211 -1505,-560z"/>
    <path class="fil6" d="M2098 4153l55 -29 24 -16c155,250 1177,299 1388,5l29 19 43 21c-250,299 -1207,310 -1539,0z"/>
    <path class="fil7" d="M2539 3847l-31 -561 688 21 -9 546c-113,98 -181,148 -405,107 -49,-9 -151,-59 -243,-113z"/>
    <path class="fil8" d="M2523 3600l3 2c167,144 522,267 663,25 0,-1 1,-2 2,-3l5 -277 -688 -21 15 274z"/>
    <path class="fil9" d="M1797 4427c2,7 2,6 2,13 1,22 0,49 -1,72 -4,83 -9,165 -6,249 0,14 -1,28 0,42 0,36 2,69 5,103 -10,-5 -21,-11 -31,-16 -4,-27 -7,-53 -8,-81 -1,-15 -3,-33 -3,-48 2,-83 12,-168 25,-251 3,-23 7,-49 12,-71 2,-6 1,-6 5,-12z"/>
    <path class="fil9" d="M3991 4398c-3,7 -2,6 -2,13 -2,22 0,49 1,72 4,83 9,165 6,249 -1,14 0,28 0,42 0,37 -2,71 -6,107 11,-6 21,-12 31,-18 4,-27 7,-54 9,-83 1,-15 2,-33 2,-48 -2,-84 -11,-169 -24,-251 -3,-23 -7,-49 -13,-71 -1,-6 -1,-6 -4,-12z"/>
   </g>
   <g>
    <path class="fil3" d="M2845 1382l0 0c404,0 734,331 734,735l0 826c0,404 -330,735 -734,735l0 0c-404,0 -734,-331 -734,-735l0 -826c0,-404 330,-735 734,-735z"/>
    <path class="fil10" d="M2386 1102l925 0c150,0 272,122 272,272l0 1012 -79 0 0 -234c0,-72 -52,-133 -120,-148l0 -277c0,-23 -19,-42 -42,-42l-986 0c-24,0 -42,19 -42,42l0 274c-81,3 -146,70 -146,151l0 234 -54 0 0 -1012c0,-150 123,-272 272,-272z"/>
    <path class="fil11" d="M3583 1549l0 837 -79 0 0 -234c0,-72 -52,-133 -120,-148l0 -277c0,-23 -19,-42 -42,-42l-986 0c-24,0 -42,19 -42,42l0 274c-81,3 -146,70 -146,151l0 234 -54 0 0 -871c7,-37 25,-70 50,-96 -3,-9 -5,-7 -5,-29 0,-22 20,-61 50,-71 -6,-7 -9,-10 -9,-25 0,-16 25,-40 39,-40 13,0 11,2 15,4 20,-30 63,-49 91,-49 27,0 34,4 48,12 4,-33 31,-58 65,-58 35,0 66,44 66,66 0,21 -1,12 -3,17 2,0 -7,0 7,0 13,0 48,9 67,24 14,-45 57,-77 104,-77 47,0 85,28 101,68 11,-8 20,-12 38,-12 17,0 40,10 52,27 12,-48 52,-83 106,-83 55,0 105,45 109,102 18,-27 47,-45 80,-48 -2,-6 -2,3 -2,-18 0,-22 31,-66 65,-66 34,0 59,24 65,54 12,-5 15,-8 41,-8 26,0 69,18 89,46 7,-7 12,-12 28,-12 16,0 39,22 39,40 0,17 -7,25 -18,32 37,6 64,48 64,75 0,27 -5,31 -14,44 26,31 41,71 41,115z"/>
    <path class="fil12" d="M3583 1734l0 652 -79 0 0 -234c0,-72 -52,-133 -120,-148l0 -277c0,-23 -19,-42 -42,-42l-986 0c-24,0 -42,19 -42,42l0 274c-81,3 -146,70 -146,151l0 234 -54 0 0 -686c7,-37 25,-119 50,-145 -3,-9 -5,-7 -5,-29 0,-22 20,-61 50,-71 -6,-7 -9,-10 -9,-25 0,-16 25,-40 39,-40 13,0 11,2 15,4 20,-30 63,-49 91,-49 27,0 34,4 48,12 4,-33 31,-58 65,-58 35,0 66,44 66,66 0,21 -1,12 -3,17 2,0 -7,0 7,0 13,0 48,9 67,24 14,-45 57,-77 104,-77 47,0 85,28 101,68 11,-8 20,-12 38,-12 17,0 40,10 52,27 12,-48 52,-83 106,-83 55,0 105,45 109,102 18,-27 47,-45 80,-48 -2,-6 -2,3 -2,-18 0,-22 31,-66 65,-66 34,0 59,24 65,54 12,-5 15,-8 41,-8 26,0 69,18 89,46 7,-7 12,-12 28,-12 16,0 39,22 39,40 0,17 -7,25 -18,32 37,6 64,48 64,75 0,27 -5,31 -14,44 26,31 41,120 41,164z"/>
    <path class="fil13" d="M3583 1859l0 527 -79 0 0 -234c0,-72 -52,-133 -120,-148l0 -277c0,-23 -19,-42 -42,-42l-986 0c-24,0 -42,19 -42,42l0 274c-81,3 -146,70 -146,151l0 234 -54 0 0 -560c7,-37 25,-70 50,-96 -3,-9 -5,-19 -5,-30 0,-32 20,-60 50,-71 -6,-7 -9,-15 -9,-25 0,-22 17,-39 39,-39 5,0 11,1 15,3 20,-29 53,-48 91,-48 17,0 34,4 48,11 4,-32 31,-65 65,-65 35,0 66,45 66,66 0,21 -1,12 -3,18 2,0 -7,-1 7,-1 13,0 48,9 67,24 14,-45 57,-77 104,-77 47,0 85,28 101,68 11,-7 20,-12 38,-12 17,0 40,11 52,27 12,-48 52,-83 106,-83 55,0 105,45 109,102 18,-27 47,-45 80,-48 -2,-6 -2,3 -2,-18 0,-21 31,-66 65,-66 34,0 59,31 65,62 12,-6 26,-8 41,-8 37,0 69,18 89,45 7,-7 17,-11 28,-11 22,0 39,17 39,39 0,14 -7,26 -18,33 37,5 64,37 64,74 0,17 -5,32 -14,44 26,31 41,72 41,115z"/>
    <path class="fil14" d="M2856 2353l0 0c55,0 101,46 101,102l0 471c0,56 -46,102 -101,102l0 0c-56,0 -102,-46 -102,-102l0 -471c0,-56 46,-102 102,-102z"/>
    <path class="fil15" d="M2188 2115l410 0c39,0 71,32 71,72l0 0c0,39 -32,71 -71,71l-410 0c-39,0 -71,-32 -71,-71l0 0c0,-40 32,-72 71,-72z"/>
    <path class="fil16" d="M3163 2320l270 0c77,0 146,38 189,95l25 -14c18,-9 40,-3 50,15l0 0c9,18 3,40 -15,50l-25 13c9,25 14,52 14,79l0 0c0,131 -107,238 -238,238l-248 0 -22 0 -635 0 -8 0 -261 0c-131,0 -238,-107 -238,-238l0 0c0,-27 5,-54 13,-79l-25 -13c-17,-10 -24,-32 -14,-50l0 0c9,-18 32,-24 49,-15l25 14c44,-57 113,-95 190,-95l269 0c131,0 238,107 238,238l0 0c0,47 -13,90 -37,127l233 0c-23,-37 -37,-80 -37,-127l0 0c0,-131 107,-238 238,-238zm-1138 92c11,0 20,9 20,20 0,11 -9,20 -20,20 -11,0 -20,-9 -20,-20 0,-11 9,-20 20,-20zm1641 0c11,0 20,9 20,20 0,11 -9,20 -20,20 -11,0 -20,-9 -20,-20 0,-11 9,-20 20,-20zm-971 323c-8,-5 -14,-12 -19,-21 -11,-19 -10,-42 2,-61 18,-29 28,-61 28,-95 0,-97 -80,-177 -178,-177l-269 0c-98,0 -177,80 -177,177 0,98 79,177 177,177l436 0zm302 0l436 0c97,0 177,-79 177,-177 0,-97 -80,-177 -177,-177l-270 0c-97,0 -177,80 -177,177 0,34 9,66 27,95 13,19 13,42 2,61 -4,9 -11,16 -18,21z"/>
    <path class="fil0 str0" d="M2997 2735l436 0c97,0 177,-79 177,-177 0,-97 -80,-177 -177,-177l-270 0c-97,0 -177,80 -177,177 0,34 9,66 27,95 13,19 13,42 2,61 -4,9 -11,16 -18,21zm-302 0c-8,-5 -14,-12 -19,-21 -11,-19 -10,-42 2,-61 18,-29 28,-61 28,-95 0,-97 -80,-177 -178,-177l-269 0c-98,0 -177,80 -177,177 0,98 79,177 177,177l436 0z"/>
    <path class="fil0" d="M2997 2735l436 0c97,0 177,-79 177,-177 0,-97 -80,-177 -177,-177l-270 0c-97,0 -177,80 -177,177 0,34 9,66 27,95 13,19 13,42 2,61 -4,9 -11,16 -18,21zm-302 0c-8,-5 -14,-12 -19,-21 -11,-19 -10,-42 2,-61 18,-29 28,-61 28,-95 0,-97 -80,-177 -178,-177l-269 0c-98,0 -177,80 -177,177 0,98 79,177 177,177l436 0z"/>
    <path class="fil15" d="M3129 2121l410 0c39,0 72,32 72,71l0 0c0,39 -33,71 -72,71l-410 0c-39,0 -71,-32 -71,-71l0 0c0,-39 32,-71 71,-71z"/>
    <path class="fil1" d="M2025 2412c11,0 20,9 20,20 0,11 -9,20 -20,20 -11,0 -20,-9 -20,-20 0,-11 9,-20 20,-20zm1641 0c11,0 20,9 20,20 0,11 -9,20 -20,20 -11,0 -20,-9 -20,-20 0,-11 9,-20 20,-20z"/>
    <g>
     <path class="fil16" d="M3310 2450c-50,0 -90,40 -90,90 0,49 40,89 90,89 49,0 89,-40 89,-89 0,-50 -40,-90 -89,-90z"/>
     <path class="fil17" d="M3371 2459c-49,0 -89,16 -89,35 0,20 40,35 89,35 50,0 90,-15 90,-35 0,-19 -40,-35 -90,-35z"/>
    </g>
    <path class="fil17" d="M2606 3154c164,60 325,61 481,0 56,-21 108,49 108,108l0 0c0,59 -50,92 -108,108 -159,44 -319,40 -481,0 -58,-14 -108,-49 -108,-108l0 0c0,-59 52,-128 108,-108z"/>
    <path class="fil18" d="M2581 3265c53,25 70,32 131,46 8,2 16,4 25,5 50,9 95,12 146,12 54,0 104,-4 156,-17 20,-5 39,-11 57,-20 8,-3 21,-13 26,-20 17,-26 -19,-3 -34,3 -18,5 -36,9 -55,13 -16,3 -32,6 -49,8 -34,5 -67,7 -102,9 -58,2 -110,0 -167,-8 -24,-3 -46,-8 -69,-14 -16,-4 -83,-34 -65,-17z"/>
    <path class="fil18" d="M2682 3258c0,3 -7,17 -8,20 -7,13 -16,36 -8,50 7,10 13,-17 13,-20 2,-13 4,-26 6,-39 0,-2 2,-15 -3,-11z"/>
    <path class="fil18" d="M3082 3246c0,4 7,17 9,20 7,14 15,36 8,51 -7,10 -13,-17 -14,-20 -2,-13 -4,-26 -6,-39 0,-3 -2,-16 3,-12z"/>
    <g>
     <path class="fil16" d="M2440 2458c49,0 90,40 90,89 0,50 -41,90 -90,90 -50,0 -90,-40 -90,-90 0,-49 40,-89 90,-89z"/>
     <path class="fil17" d="M2378 2467c50,0 90,16 90,35 0,19 -40,35 -90,35 -49,0 -90,-16 -90,-35 0,-19 41,-35 90,-35z"/>
    </g>
   </g>
  </g>
 </g>
</svg>
